<svg version="1.2" xmlns="http://www.w3.org/2000/svg" viewBox="0 0 876 491" width="876" height="491"><defs><clipPath clipPathUnits="userSpaceOnUse" id="cp1"><path d="m0 0h876v491h-876z"/></clipPath></defs><style>.a{fill:#6f4c29}.b{opacity:.2}.c{fill:#828286;stroke:#000;stroke-width:2.4}.d{fill:#c4c4c4}.e{fill:#192228}.f{opacity:.6;fill:#2a3b47}.g{opacity:.6}.h{opacity:.6;fill:#3d5567}.i{opacity:.6;fill:#1b252d}.j{opacity:.6;fill:#66d1ff}.k{opacity:.6;fill:#51e199}.l{opacity:.6;fill:#eb5757}.m{opacity:.6;fill:#ffc757}.n{opacity:.6;fill:#2cd37f}.o{fill:#2a3b47}.p{fill:#3d5567}.q{fill:#1b252d}.r{fill:#66d1ff}.s{fill:#51e199}.t{fill:#eb5757}.u{fill:#ffc757}.v{fill:#2cd37f}.w{fill:#063353;stroke:#000;stroke-linejoin:round;stroke-width:2}.x{opacity:.3}.y{fill:#dadada}.z{fill:#edac7c}.A{fill:#f7a588}.B{fill:#cf9166}.C{fill:#edac7c;stroke:#000;stroke-linejoin:round;stroke-width:2}.D{fill:none;stroke:#000;stroke-linejoin:round;stroke-width:2}.E{fill:#482517}.F{fill:#3d1d10;stroke:#000;stroke-linejoin:round;stroke-width:2}.G{fill:#3d1d10}.H{fill:#43382d;stroke:#000;stroke-linejoin:round;stroke-width:2}.I{fill:#697477;stroke:#000;stroke-linejoin:round;stroke-width:2}.J{fill:#a0a7ac;stroke:#000;stroke-linejoin:round;stroke-width:2}.K{fill:#889297;stroke:#000;stroke-linejoin:round;stroke-width:2}.L{fill:#4d5557}.M{fill:#232f38;stroke:#000;stroke-linejoin:round;stroke-width:2}.N{fill:#33424e;stroke:#000;stroke-linejoin:round;stroke-width:2}.O{fill:#232f38;stroke:#000;stroke-linejoin:round;stroke-width:1.4}.P{fill:#ecf4ff}.Q{fill:#ddeafb}.R{fill:#477b9e}.S{fill:#3f6d8e}.T{fill:#bed8fb}.U{fill:#7fb3fa}.V{fill:#ffe07d}.W{fill:#ffd064}.X{fill:#e28086}.Y{fill:#dd636e}.Z{fill:#6f4c29;stroke:#000;stroke-width:1.2}</style><g clip-path="url(#cp1)"><path class="a" d="m254.5 302.2c0-3.8 2.1-7 4.6-7h343.8c2.7 0 4.7 3.2 4.7 7 0 3.9-2.2 7-4.7 7h-343.8c-2.5 0-4.6-3.1-4.6-7z"/><path fill-rule="evenodd" d="m251.3 302c0-2.5 0.7-4.8 1.8-6.8 1.2-1.8 3.4-3.5 6-3.5h343.8c2.7 0 4.8 1.7 6 3.5 1.2 1.8 1.9 4.3 1.9 6.8 0 2.6-0.7 4.9-1.9 6.9-1.2 1.8-3.2 3.5-6 3.5h-343.8c-2.6 0-4.8-1.7-6-3.5-1.1-1.8-1.8-4.3-1.8-6.9zm356.3 0.2c0-3.8-2.2-7-4.7-7h-343.8c-2.6 0-4.6 3.2-4.6 7 0 3.9 2.1 7 4.6 7h343.8c2.5 0 4.7-3.1 4.7-7z"/><path class="b" d="m607.2 304.9c-0.8 2.5-2.5 4.3-4.3 4.3h-343.8c-1.8 0-3.5-1.8-4.1-4.3z"/><rect class="a" x="344.1" y="287.5" width="195.1" height="7.5" rx="1"></rect><path fill-rule="evenodd" d="m340.9 287.3c0-1.6 1.3-2.9 2.9-2.9h195.6c1.6 0 2.9 1.3 2.9 2.9v8c0 1.6-1.3 2.9-2.9 2.9h-195.6c-1.6 0-2.9-1.3-2.9-2.9zm3.2 6.8c0 0.5 0.4 1 1 1h193.1c0.5 0 1-0.5 1-1v-5.5c0-0.6-0.5-1-1-1h-193.1c-0.6 0-1 0.4-1 1z"/><rect class="c" x="268.6" y="37.5" width="330.3" height="214.6" rx="19.7"></rect><rect class="d" x="270.6" y="39.5" width="326.3" height="207.3" rx="18.5"></rect><rect class="e" x="278.3" y="47.7" width="310.9" height="191.2" rx="9.7"></rect><path fill-rule="evenodd" d="m276.8 63.9c0-9.8 8-17.8 17.9-17.8h278.5c9.8 0 17.9 8 17.9 17.8v158.9c0 9.8-8.1 17.8-17.9 17.8h-278.7c-9.8 0-17.8-8-17.8-17.8v-158.9zm17.6-14.7c-8 0-14.5 6.5-14.5 14.5v158.9c0 8 6.5 14.5 14.5 14.5h278.6c8 0 14.5-6.5 14.5-14.5v-158.7c0-8-6.5-14.5-14.5-14.5h-278.6z"/><g style="opacity:.6"><path class="f" d="m505.8 230.3h-72.8v-92.5h110.3v88c0 0 0.2 4.3-4 4.3-6.1 0-33.5 0.2-33.5 0.2z"/><path fill-rule="evenodd" class="g" d="m432.4 137.7c0-0.5 0.3-0.9 0.8-0.9h110.3c0.5 0 0.8 0.4 0.8 0.9v88.8c0 0.5-0.1 1.1-0.5 1.8-0.3 0.7-0.6 1.3-1.5 1.8-0.6 0.5-1.6 0.9-2.8 0.9h-106.3c-0.5 0-0.8-0.4-0.8-0.9zm73.4 91.6h33.5c0.9 0 1.5-0.1 1.9-0.5 0.3-0.3 0.6-0.6 0.8-1.1 0.2-0.5 0.3-1 0.3-1.4v-87.9h-108.6v90.8h72.1z"/><path class="h" d="m433.2 137.7v92.4h-5c-2.4 0-2.5-2.5-2.5-2.5v-89.9z"/><path fill-rule="evenodd" class="g" d="m424.8 137.7c0-0.5 0.4-0.9 0.9-0.9h7.5c0.5 0 0.8 0.4 0.8 0.9v92.4c0 0.5-0.3 0.9-0.8 0.9h-5c-1.5 0-2.5-0.9-2.9-1.7-0.1-0.3-0.3-0.8-0.3-1v-90.6zm1.7 89.9v0.2c0 0.2 0.1 0.3 0.1 0.7 0.2 0.3 0.7 0.8 1.4 0.8h4.2v-90.8h-5.9v89.1z"/><path class="i" d="m543.3 137.7h-117.8v-5c0-2.9 2.2-5 5-5h107.8c2.9 0 5 2.1 5 5z"/><path fill-rule="evenodd" class="g" d="m424.8 132.7c0-3.2 2.7-5.9 5.9-5.9h107.8c3.3 0 5.8 2.7 5.8 5.9v5c0 0.5-0.3 0.8-0.8 0.8h-117.8c-0.5 0-0.9-0.3-0.9-0.8zm5.9-4.2c-2.4 0-4.2 1.8-4.2 4.2v4.1h116.2v-4.1c0-2.4-1.9-4.2-4.2-4.2z"/><path class="j" d="m490.8 150.2h-47.8c-1.3 0-2.5-1.2-2.5-2.5 0-1.4 1.2-2.5 2.5-2.5h47.8c1.3 0 2.5 1.1 2.5 2.5 0 1.3-1 2.5-2.5 2.5z"/><path class="k" d="m498.3 160.2h-50.3c-1.3 0-2.5-1.2-2.5-2.5 0-1.3 1.2-2.5 2.5-2.5h50.3c1.3 0 2.5 1.2 2.5 2.5 0 1.3-1 2.5-2.5 2.5zm-15 50.1h-35.1c-1.3 0-2.5-1.2-2.5-2.5 0-1.4 1.2-2.5 2.5-2.5h35.1c1.3 0 2.5 1.1 2.5 2.5 0 1.3-1 2.5-2.5 2.5zm30.2-50.1h-5c-1.4 0-2.6-1.2-2.6-2.5 0-1.3 1.2-2.5 2.6-2.5h5c1.3 0 2.5 1.2 2.5 2.5 0 1.3-1.2 2.5-2.5 2.5z"/><path class="j" d="m458.2 220.3h-15c-1.3 0-2.5-1.2-2.5-2.5 0-1.4 1.2-2.5 2.5-2.5h15c1.4 0 2.5 1.1 2.5 2.5 0 1.3-1.1 2.5-2.5 2.5z"/><path class="l" d="m526 170.2h-52.8c-1.3 0-2.5-1.2-2.5-2.5 0-1.3 1.2-2.5 2.5-2.5h52.8c1.3 0 2.5 1.2 2.5 2.5 0 1.3-1.2 2.5-2.5 2.5z"/><path class="m" d="m485.8 180.2h-32.6c-1.3 0-2.5-1.1-2.5-2.5 0-1.3 1.2-2.5 2.5-2.5h32.6c1.3 0 2.5 1.2 2.5 2.5 0 1.4-1 2.5-2.5 2.5z"/><path class="l" d="m505.9 200.3h-52.7c-1.3 0-2.5-1.2-2.5-2.6 0-1.3 1.2-2.5 2.5-2.5h52.7c1.4 0 2.6 1.2 2.6 2.5 0 1.4-1.2 2.6-2.6 2.6z"/><path class="m" d="m505.9 190.2h-35c-1.3 0-2.5-1.1-2.5-2.5 0-1.3 1.2-2.5 2.5-2.5h35c1.4 0 2.6 1.2 2.6 2.5 0 1.4-1.2 2.5-2.6 2.5zm-45.2 0h-7.5c-1.3 0-2.5-1.1-2.5-2.5 0-1.3 1.2-2.5 2.5-2.5h7.5c1.4 0 2.5 1.2 2.5 2.5 0 1.4-1.1 2.5-2.5 2.5z"/><path class="l" d="m463.2 170.2h-10c-1.3 0-2.5-1.2-2.5-2.5 0-1.3 1.2-2.5 2.5-2.5h10c1.4 0 2.5 1.2 2.5 2.5 0 1.3-1.1 2.5-2.5 2.5z"/><circle class="m" cx="433.2" cy="132.7" r="2.5"/><circle class="n" cx="440.7" cy="132.7" r="2.5"/><circle class="l" cx="448.2" cy="132.7" r="2.5"/></g><g style="opacity:.6"><path class="f" d="m395.6 227.1h-72.7v-92.4h110.3v88.1c0 0 0.2 4.3-4 4.3z"/><path fill-rule="evenodd" class="g" d="m322 134.5c0-0.5 0.4-0.8 0.9-0.8h110.3c0.5 0 0.8 0.3 0.8 0.8v88.8c0 0.5-0.1 1.1-0.5 1.8-0.3 0.7-0.6 1.4-1.5 1.9-0.6 0.5-1.6 0.8-2.8 0.8h-106.3c-0.5 0-0.9-0.3-0.9-0.8zm73.6 91.7h33.6c0.8 0 1.5-0.1 1.8-0.5 0.5-0.3 0.7-0.6 0.9-1.1 0.1-0.5 0.3-0.9 0.3-1.4v-87.9h-108.7v90.8h72.1z"/><path class="h" d="m322.9 134.5v92.5h-5c-2.4 0-2.5-2.6-2.5-2.6v-89.9z"/><path fill-rule="evenodd" class="g" d="m314.5 134.5c0-0.5 0.4-0.8 0.9-0.8h7.5c0.5 0 0.8 0.3 0.8 0.8v92.5c0 0.5-0.3 0.8-0.8 0.8h-5c-1.5 0-2.5-0.8-2.9-1.7-0.1-0.3-0.3-0.8-0.3-1v-90.6zm1.7 90.1v0.2c0 0.1 0.1 0.3 0.1 0.6 0.2 0.4 0.7 0.9 1.4 0.9h4.1v-90.8h-5.8v89.1z"/><path class="i" d="m433.2 134.5h-117.8v-5c0-2.8 2.1-5 5-5h107.8c2.8 0 5 2.2 5 5z"/><path fill-rule="evenodd" class="g" d="m314.5 129.5c0-3.2 2.7-5.8 5.9-5.8h107.8c3.2 0 5.8 2.6 5.8 5.8v5c0 0.5-0.3 0.8-0.8 0.8h-117.8c-0.5 0-0.9-0.3-0.9-0.8zm5.9-4c-2.4 0-4.2 1.8-4.2 4.2v4.1h116.2v-4.1c0-2.4-1.9-4.2-4.2-4.2z"/><path class="j" d="m380.5 147h-47.8c-1.3 0-2.5-1.2-2.5-2.5 0-1.3 1.2-2.5 2.5-2.5h47.8c1.3 0 2.5 1.2 2.5 2.5 0.1 1.3-1 2.5-2.5 2.5z"/><path class="k" d="m388.1 157h-50.2c-1.3 0-2.5-1.1-2.5-2.5 0-1.3 1.2-2.5 2.5-2.5h50.2c1.4 0 2.5 1.2 2.5 2.5 0 1.4-1.1 2.5-2.5 2.5zm-15.2 50.1h-35.2c-1.3 0-2.5-1.2-2.5-2.5 0-1.3 1.2-2.5 2.5-2.5h35.2c1.4 0 2.5 1.2 2.5 2.5 0 1.3-1 2.5-2.5 2.5zm30.3-50.1h-5.1c-1.3 0-2.5-1.1-2.5-2.5 0-1.3 1.2-2.5 2.5-2.5h5.1c1.3 0 2.5 1.2 2.5 2.5 0 1.4-1.2 2.5-2.5 2.5z"/><path class="j" d="m347.9 217.1h-15c-1.3 0-2.5-1.2-2.5-2.5 0-1.3 1.2-2.5 2.5-2.5h15c1.3 0 2.5 1.2 2.5 2.5 0 1.3-1.2 2.5-2.5 2.5z"/><path class="l" d="m415.7 167h-52.8c-1.3 0-2.5-1.1-2.5-2.5 0-1.3 1.2-2.5 2.5-2.5h52.8c1.3 0 2.5 1.2 2.5 2.5 0 1.4-1.2 2.5-2.5 2.5z"/><path class="m" d="m375.4 177.1h-32.5c-1.3 0-2.5-1.2-2.5-2.5 0-1.4 1.2-2.6 2.5-2.6h32.5c1.4 0 2.6 1.2 2.6 2.6 0 1.3-1 2.5-2.6 2.5z"/><path class="l" d="m395.6 197.1h-52.7c-1.3 0-2.5-1.2-2.5-2.5 0-1.4 1.2-2.5 2.5-2.5h52.7c1.4 0 2.5 1.1 2.5 2.5 0 1.3-1.1 2.5-2.5 2.5z"/><path class="m" d="m395.6 187.1h-35c-1.3 0-2.5-1.2-2.5-2.5 0-1.4 1.2-2.5 2.5-2.5h35c1.4 0 2.5 1.1 2.5 2.5 0 1.3-1.1 2.5-2.5 2.5zm-45.2 0h-7.5c-1.3 0-2.5-1.2-2.5-2.5 0-1.4 1.2-2.5 2.5-2.5h7.5c1.4 0 2.5 1.1 2.5 2.5 0 1.3-1.1 2.5-2.5 2.5z"/><path class="l" d="m352.9 167h-10c-1.3 0-2.5-1.1-2.5-2.5 0-1.3 1.2-2.5 2.5-2.5h10c1.4 0 2.5 1.2 2.5 2.5 0 1.4-1.1 2.5-2.5 2.5z"/><circle class="m" cx="322.9" cy="129.5" r="2.5"/><circle class="n" cx="330.4" cy="129.5" r="2.5"/><circle class="l" cx="337.9" cy="129.5" r="2.5"/></g><path class="o" d="m339.6 155.2h-105v-133.5h159v127.2c0 0 0.2 6.3-5.6 6.3z"/><path fill-rule="evenodd" d="m233.4 21.9c0-0.7 0.5-1.2 1.2-1.2h159c0.7 0 1.2 0.5 1.2 1.2v128.1c0 0.7-0.3 1.7-0.7 2.5-0.3 1-1 2-2.1 2.7-1 0.8-2.4 1.2-4.2 1.2h-153.4c-0.6 0-1.1-0.5-1.1-1.2v-133.3zm154.5 132.1c1.2 0 2.2-0.3 2.7-0.6 0.6-0.5 1-1 1.3-1.7 0.3-0.7 0.5-1.3 0.5-1.8v-126.7h-156.5v130.8z"/><path class="p" d="m234.8 21.9v133.5h-7.2c-3.3 0-3.7-3.7-3.7-3.7v-129.8z"/><path fill-rule="evenodd" d="m222.8 21.9c0-0.7 0.5-1.2 1.1-1.2h10.9c0.6 0 1.1 0.5 1.1 1.2v133.5c0 0.6-0.5 1.1-1.1 1.1h-7.2c-2.3 0-3.5-1.1-4.2-2.5-0.3-0.5-0.5-1.1-0.5-1.5 0-0.1 0-0.3-0.1-0.5zm2.3 130.2c0 0.3 0.2 0.7 0.3 0.8 0.4 0.7 0.9 1.2 2 1.2h6v-131h-8.3z"/><path class="q" d="m393.8 21.9h-169.9v-7.2c0-4 3.2-7.2 7.2-7.2h155.5c4 0 7.2 3.2 7.2 7.2z"/><path fill-rule="evenodd" d="m222.6 14.5c0-4.7 3.8-8.5 8.5-8.5h155.5c4.7 0 8.5 3.8 8.5 8.5v7.2c0 0.7-0.5 1.2-1.1 1.2h-170.1c-0.6 0-1.1-0.5-1.1-1.2v-7.2zm8.5-5.8c-3.4 0-6 2.6-6 6v6h167.3v-6c0-3.4-2.6-6-6-6z"/><path class="r" d="m317.9 39.9h-68.8c-2 0-3.7-1.7-3.7-3.7 0-2 1.7-3.7 3.7-3.7h68.8c2 0 3.6 1.7 3.6 3.7 0 2-1.6 3.7-3.6 3.7z"/><path class="s" d="m328.7 54.2h-72.4c-2 0-3.7-1.6-3.7-3.6 0-2 1.7-3.7 3.7-3.7h72.4c2 0 3.7 1.7 3.7 3.7 0 2-1.7 3.6-3.7 3.6zm-21.7 72.3h-50.7c-2 0-3.7-1.7-3.7-3.7 0-2 1.7-3.7 3.7-3.7h50.7c2 0 3.7 1.7 3.7 3.7 0 2-1.7 3.7-3.7 3.7zm43.4-72.3h-7.2c-2 0-3.6-1.6-3.6-3.6 0-2 1.6-3.7 3.6-3.7h7.2c2 0 3.7 1.7 3.7 3.7 0 2-1.7 3.6-3.7 3.6z"/><path class="r" d="m270.8 140.8h-21.7c-2 0-3.7-1.6-3.7-3.6 0-2 1.7-3.7 3.7-3.7h21.7c2 0 3.7 1.7 3.7 3.7 0 2-1.7 3.6-3.7 3.6z"/><path class="t" d="m368.6 68.7h-75.9c-2 0-3.7-1.6-3.7-3.6 0-2 1.7-3.7 3.7-3.7h75.9c2 0 3.7 1.7 3.7 3.7 0 2-1.7 3.6-3.7 3.6z"/><path class="u" d="m310.7 83.1h-47.1c-2 0-3.6-1.7-3.6-3.7 0-2 1.6-3.6 3.6-3.6h47.1c2 0 3.7 1.6 3.7 3.6 0 2-1.7 3.7-3.7 3.7z"/><path class="t" d="m339.6 112h-76.1c-2 0-3.7-1.7-3.7-3.7 0-2 1.7-3.7 3.7-3.7h76.1c2 0 3.6 1.7 3.6 3.7 0 2-1.6 3.7-3.6 3.7z"/><path class="u" d="m339.7 97.5h-50.7c-2 0-3.7-1.7-3.7-3.7 0-2 1.7-3.7 3.7-3.7h50.7c2 0 3.7 1.7 3.7 3.7-0.2 2.1-1.7 3.7-3.7 3.7zm-65.2 0h-10.9c-2 0-3.6-1.7-3.6-3.7 0-2 1.6-3.7 3.6-3.7h10.9c2 0 3.7 1.7 3.7 3.7 0 2.1-1.7 3.7-3.7 3.7z"/><path class="t" d="m278.2 68.7h-14.6c-2 0-3.6-1.6-3.6-3.6 0-2 1.6-3.7 3.6-3.7h14.6c2 0 3.6 1.7 3.6 3.7-0.1 2-1.6 3.6-3.6 3.6z"/><circle class="u" cx="234.8" cy="14.5" r="3.7"/><circle class="v" cx="245.6" cy="14.5" r="3.7"/><circle class="t" cx="256.5" cy="14.5" r="3.7"/><path class="o" d="m582.7 155.4h-104.1v-132.4h157.9v126c0 0 0.1 6.4-5.7 6.4z"/><path fill-rule="evenodd" d="m477.4 22.9c0-0.7 0.5-1.2 1.2-1.2h157.9c0.6 0 1.1 0.5 1.1 1.2v127.1c0 0.7-0.1 1.5-0.6 2.5-0.5 1-1 2-2.2 2.7-1 0.8-2.4 1.2-4.2 1.2h-152.2c-0.7 0-1.2-0.5-1.2-1.2v-132.3zm153.4 131.3c1.3 0 2-0.3 2.7-0.7 0.6-0.5 1-1 1.3-1.6 0.3-0.7 0.5-1.4 0.5-1.9v-125.8h-155.5v130z"/><path class="p" d="m478.6 22.9v132.5h-7.2c-3.3 0-3.7-3.5-3.7-3.5v-128.9h10.9z"/><path fill-rule="evenodd" d="m466.7 22.9c0-0.7 0.5-1.2 1.2-1.2h10.7c0.6 0 1.1 0.5 1.1 1.2v132.5c0 0.6-0.5 1.1-1.1 1.1h-7.2c-2.3 0-3.5-1.1-4.2-2.5-0.3-0.5-0.5-1.1-0.5-1.5zm2.4 128.9v0.3c0 0.3 0.1 0.7 0.3 0.8 0.3 0.7 0.8 1.2 2 1.2h5.8v-130h-8.3v127.7z"/><path class="q" d="m636.5 22.9h-168.6v-7.2c0-4 3.2-7.2 7.2-7.2h154.3c4 0 7.2 3.2 7.2 7.2v7.2z"/><path fill-rule="evenodd" d="m466.6 15.7c0-4.7 3.6-8.4 8.3-8.4h154.4c4.6 0 8.3 3.7 8.3 8.4v7.2c0 0.6-0.5 1.1-1.1 1.1h-168.8c-0.6 0-1.1-0.5-1.1-1.1zm8.5-5.9c-3.4 0-6 2.7-6 6v6h166.2v-6c0-3.3-2.7-6-6-6z"/><path class="r" d="m561.2 40.7h-68.3c-2 0-3.6-1.7-3.6-3.5 0-2 1.6-3.5 3.6-3.5h68.3c2 0 3.7 1.7 3.7 3.5 0 2-1.7 3.5-3.7 3.5z"/><path class="s" d="m572 55.1h-71.7c-2 0-3.7-1.7-3.7-3.5 0-1.9 1.7-3.5 3.7-3.5h71.7c2 0 3.7 1.6 3.7 3.5 0 1.8-1.7 3.5-3.7 3.5zm-21.5 71.7h-50.2c-2 0-3.7-1.6-3.7-3.5 0-2 1.7-3.5 3.7-3.5h50.2c2 0 3.5 1.7 3.5 3.5 0 1.9-1.5 3.5-3.5 3.5zm43.1-71.7h-7.2c-2 0-3.5-1.7-3.5-3.5 0-1.9 1.7-3.5 3.5-3.5h7.2c2 0 3.6 1.6 3.6 3.5 0 1.8-1.6 3.5-3.6 3.5z"/><path class="r" d="m514.5 141h-21.6c-2 0-3.6-1.7-3.6-3.5 0-2 1.6-3.5 3.6-3.5h21.6c2 0 3.6 1.7 3.6 3.5 0 2-1.6 3.5-3.6 3.5z"/><path class="t" d="m611.6 69.4h-75.4c-2 0-3.7-1.7-3.7-3.5 0-1.8 1.7-3.5 3.7-3.5h75.4c2 0 3.5 1.7 3.5 3.5 0 1.8-1.5 3.5-3.5 3.5z"/><path class="u" d="m554 83.8h-46.7c-2 0-3.7-1.7-3.7-3.5 0-1.9 1.7-3.5 3.7-3.5h46.7c2 0 3.7 1.6 3.7 3.5 0 1.8-1.7 3.5-3.7 3.5z"/><path class="t" d="m582.7 112.5h-75.4c-2 0-3.7-1.7-3.7-3.5 0-2 1.7-3.5 3.7-3.5h75.4c2 0 3.7 1.6 3.7 3.5 0 1.8-1.7 3.5-3.7 3.5z"/><path class="u" d="m582.9 98.1h-50.2c-2.1 0-3.7-1.7-3.7-3.5 0-2 1.6-3.5 3.7-3.5h50.2c2 0 3.7 1.7 3.7 3.5-0.2 1.8-1.7 3.5-3.7 3.5zm-64.8 0h-10.8c-2 0-3.7-1.7-3.7-3.5 0-2 1.7-3.5 3.7-3.5h10.8c2 0 3.5 1.7 3.5 3.5 0 1.8-1.5 3.5-3.5 3.5z"/><path class="t" d="m521.6 69.4h-14.3c-2 0-3.7-1.7-3.7-3.5 0-1.8 1.7-3.5 3.7-3.5h14.3c2 0 3.7 1.7 3.7 3.5 0 1.8-1.7 3.5-3.7 3.5z"/><ellipse class="u" cx="478.7" cy="15.8" rx="3.6" ry="3.5"/><ellipse class="v" cx="489.4" cy="15.8" rx="3.6" ry="3.5"/><ellipse class="t" cx="500.2" cy="15.8" rx="3.6" ry="3.5"/><path fill-rule="evenodd" class="w" d="m427.8 289.7h57.6q0.9 0 1.8 0l-61 1.5c0-0.8 0.8-1.5 1.6-1.5zm60.8 0.2l-62.4 1.3v42.6c0 0.8 0.8 1.5 1.6 1.5h45.4l-16 93.9c0 0.5 0 0.8 0.4 1.3 0.3 0.4 0.8 0.5 1.3 0.5h33.9c0.8 0 1.5-0.5 1.6-1.1l23.6-101c4.8-18.5-8.9-37.2-29.6-39.2h-1.2q0.6 0.1 1.4 0.2z"/><path fill-rule="evenodd" class="w" d="m431.2 289.5c1 0 1.7 0.7 1.7 1.5v43.3c0 0.8-0.7 1.5-1.7 1.5h-45.4l16 94.9c0 0.5 0 1-0.3 1.3-0.4 0.4-0.9 0.6-1.4 0.6h-33.8c-0.9 0-1.5-0.6-1.7-1.2l-23.7-102c-4.8-18.7 8.8-37.5 29.5-39.5zm-60.7 0.1c1.2-0.1 2.2-0.1 3.2-0.1zm60.7-0.2h-57.6zm0 0h-57.5z"/><path class="x" d="m459.6 427.7l16.1-95.8h-47.4v-12h75.5c-0.2 0.3-0.2 0.7-0.2 1-0.2 1.3-0.3 2.8-0.5 4.2 0 0.3-0.2 1.1-0.3 2.3l-1.5 8c-2.9 13-6.5 25.9-10.4 38.7-3.6 11.9-7.5 40.4-11.3 52.3-0.2 0.3-0.2 0.6-0.4 1z"/><path class="x" d="m431.2 334.4h-47.4l16.2 96.8h-12.7c-1.8-6.7-3.2-30-5-36.7-3-11.3-7.2-22.4-11.2-33.5-4-11.4-8.2-22.7-11.3-34.4-0.4-1.5-0.7-2.9-1-4.2h72.4z"/><path class="y" d="m457.4 414.5h29.7c0 0 31.7 2.9 31.7 22.7h-61.4z"/><path  d="m487.4 411.9l-0.3 2.6h-29.7v22.7h61.4c0-1 0-1.8-0.2-2.6-2.6-17.6-31.5-20.1-31.5-20.1l0.3-2.6h0.5c0.4 0 0.7 0 1 0.1 0.9 0.2 2.2 0.4 3.9 0.7 3.1 0.7 7.1 1.7 11.5 3.3 8.2 3.4 17.5 9.7 17.5 21.4 0 1.5-1.3 2.7-2.8 2.7h-61.4c-1.5 0-2.9-1.2-2.9-2.7v-22.7c0-1.5 1.4-2.7 2.9-2.7h29.7c0-0.1 0.1-0.1 0.1-0.1z"/><path class="y" d="m402.1 436.9h-62.9c0-19.9 32.6-22.7 32.6-22.7h30.5z"/><path  d="m371.6 411.5h30.9c1.7 0 2.8 1.2 2.8 2.7v22.7c0 1.5-1.3 2.7-2.8 2.7h-62.9c-1.7 0-2.9-1.2-2.9-2.7 0-11.7 9.5-18 18.1-21.4 4.3-1.6 8.5-2.6 11.6-3.3 1.7-0.3 2.9-0.5 3.9-0.7 0.5 0 0.8-0.1 1.1-0.1-0.1 0.1 0 0.1 0.2 0.1l0.3 2.7c0 0-29.5 2.5-32.2 20-0.1 0.9-0.1 1.9-0.1 2.7h62.9v-22.7h-30.6z"/><path class="z" d="m396.3 119.1c-15 3.7-23.7-18.8-15.5-25 8.3-6.2 15.5 5.2 15.5 5.2z"/><path class="A" d="m396.3 106.8v10.2c-12.8 1-18.2-17.2-12.2-19 4.9-1.4 10 5.3 12.2 8.8z"/><path class="B" d="m381.5 100.6v-0.6c0-0.4 0-0.7 0.1-1 0-0.4 0.4-0.9 0.7-1.2 0.2-0.2 0.3-0.3 0.7-0.5 0.1 0 0.3-0.2 0.5-0.2h0.5c0.1-0.1 0.3-0.1 0.5-0.1 0.1-0.2 0.3-0.2 0.5-0.2h1q1 0 2 0.5c0.6 0.3 1.3 0.7 1.8 1 1 0.8 2 1.7 2.8 2.7 0.5 0.3 0.9 0.8 1.2 1.3 0.3 0.5 0.7 1 0.8 1.3 0.5 0.9 0.9 1.7 1 2.2 0.2 0.5 0.4 0.8 0.4 0.8 0 0-0.9-1-2.2-2.3l-2.3-2.3c-0.5-0.4-0.9-0.9-1.4-1.2l-1.5-1c-1-0.7-2-1.2-3-1.3h-1.5c-0.1 0.1-0.1 0.1-0.3 0.1-0.2 0.2-0.3 0.2-0.5 0.4-0.7 0.5-1.2 1.1-1.3 1.6-0.2 0.4-0.4 0.5-0.4 0.7v0.2z"/><path class="C" d="m471.2 104.6c0-0.1 0.2-0.1 0.2-0.1l0.3-0.4 1.2-1.1c1-0.9 2.5-2 4.2-2.9 1.6-0.8 3.8-1.5 6-1.3 2.3 0.2 4.7 1.2 6.7 3.3 2.1 2.4 2.8 5.7 2.3 8.9-0.3 3.3-1.8 6.6-4 9.5-4.2 5.8-11.7 10-19.7 6.5-0.7-0.3-1.2-1-1-1.8l3.5-19.6c0.2-0.3 0.3-0.6 0.5-0.8l1.3 1.2c-1.3-1.2-1.3-1.2-1.5-1.4z"/><path class="A" d="m484.9 106.6c5.5 3-3 19.9-15.3 16.7l1.8-10c2.7-3.2 9-8.8 13.5-6.7z"/><path class="B" d="m486.6 110.6v-0.1c0-0.2 0-0.4-0.2-0.7-0.1-0.5-0.5-1.3-1-1.8-0.1-0.2-0.3-0.4-0.5-0.4-0.1 0-0.1-0.1-0.3-0.1h-0.2c-0.1 0-0.3 0-0.3-0.2h-1c-1 0-2.2 0.3-3.2 0.8-0.5 0.2-1.2 0.5-1.7 0.9l-1.5 1c-1 0.6-1.8 1.3-2.6 1.8-1.5 1.2-2.5 2-2.5 2 0 0 0.1-0.3 0.5-0.8 0.3-0.5 0.8-1.2 1.3-1.9 0.3-0.3 0.7-0.8 1-1.1 0.3-0.4 0.8-0.9 1.3-1.2 1-0.8 2-1.5 3.4-2.2 0.6-0.3 1.3-0.5 2-0.6 0.7-0.2 1.3-0.2 2.2-0.2h0.5c0.1 0 0.3 0 0.5 0.2 0.1 0 0.3 0.1 0.5 0.1 0.1 0 0.3 0.2 0.5 0.2l0.1 0.2h0.4c0.1 0.1 0.3 0.1 0.3 0.3 0.2 0.2 0.5 0.5 0.5 0.7 0.3 0.5 0.5 1 0.5 1.3v1c0 0.3 0 0.5-0.2 0.7-0.1 0-0.3 0.1-0.3 0.1z"/><path class="z" d="m420.7 135.5h20.7c0 0 0.8 32.5 1 32.5 0 0-1.5 6.6-10.7 6.7-9.2 0.2-11.5-6.7-11.5-6.7 0.1-0.1 0.5-32.5 0.5-32.5z"/><path fill-rule="evenodd" class="B" d="m420.7 133.8h20.7c1 0 1.6 0.7 1.6 1.7v1.3c0 0.9 0 2.2 0.2 3.7 0 3 0.2 7.2 0.3 11.2 0.2 4 0.2 8.2 0.4 11.2 0 1.5 0 2.8 0.1 3.6v2.4c-0.1 0.1-0.1 0.5-0.3 1-0.3 0.6-0.8 1.6-1.8 2.6-1.9 2.1-5 3.9-10 4.1-5.1 0.1-8.4-1.9-10.4-3.7-1-1-1.7-2-2.2-2.7l-0.5-1c0-0.2-0.1-0.2-0.1-0.3v-0.2l1.5-0.5c0.5 1.1 3.2 6.7 11.5 6.5 6.3-0.1 9.2-3.2 10.2-5.2l-22.9-34c0-1 0.8-1.7 1.7-1.7zm-0.5 34.4q0-0.2 0-0.2l-1.2-32.5 1.3 32.7zm-1.2-32.7v5c0 2-0.1 4.5-0.1 7.2zm-0.2 20l-0.2 12.4v-5c0-2.1 0.1-4.7 0.2-7.4zm0-3.8q0-2 0-3.9zm0 0q0 1.9 0 3.7zm1.3 16.4l-1.6 0.5c0-0.2-0.2-0.5 0-0.7zm-1.2-32.5l-0.5 32.4zm1.2 32.5l-1.7-0.2z"/><path class="D" d="m419 135.5c0-1 0.8-1.7 1.7-1.7h20.7c1 0 1.6 0.7 1.6 1.7h-1.6 1.6v1.3c0 0.9 0 2.2 0.2 3.7 0 3 0.2 7.2 0.3 11.2 0.2 4 0.2 8.2 0.4 11.2 0 1.5 0 2.8 0.1 3.6v1.9l-1.6-0.4 1.6 0.4v0.5c-0.1 0.1-0.1 0.5-0.3 1-0.3 0.6-0.8 1.6-1.8 2.6-1.9 2.1-5 3.9-10 4.1-5.1 0.1-8.4-1.9-10.4-3.7-1-1-1.7-2-2.2-2.7l-0.5-1c0-0.2-0.1-0.2-0.1-0.3v-0.2l1.6-0.5zm0 0l-0.5 32.4zm1.2 32.5l-1.7 0.5c0-0.1-0.1-0.5 0-0.6zm-1.1-32.6l22.8 34.1c-1 2-3.8 5-10.1 5.1-9.2 0.2-11.6-6.6-11.6-6.6zm0 0h1.7zm0 0v5c0 3-0.2 7-0.2 11.1 0 4.1-0.1 8.2-0.1 11.2v5zm1.1 32.6l-1.6-0.2"/><path class="B" d="m422 140.7l20.7 1.8c0 0-0.2 4.2-0.2 7.7 0 0.5-6 0.8-6.6 1-5.2 0.3-10.1-0.7-14.9-2.3 0.3-3.7 1-8.2 1-8.2z"/><path class="E" d="m392 89.6c1.6-14.3 9.1-27.4 23.8-31.7 7.5-2.2 15.6-2.3 23.2-1.5 7.7 0.8 15.7 2 22.7 5.3 12.4 6 10 12.6 10.2 25.9 0 1.3 8.2 8.3 8 9.7-0.2 3-0.2 5.8-0.5 8.8-0.8 6.7-2.5 13.4-5.2 19.4-3.3 7.5-8.3 14.2-15.1 18.8-3.9 2.7-8.4 4.6-12.9 5.7-7.5 2-14.7 2.2-22.2 0.2-5.2-1.3-10-3.5-14.3-6.5-7.2-5-12.4-12.4-15.2-20.5-2.4-6.9-3.4-14.2-3.4-21.4 0-4 0.4-8 1-11.9-0.3 0-0.3-0.1-0.1-0.3zm-0.9 0.5c0 0-0.1-5.7 0.5-12.8-0.6 7.3-0.5 12.8-0.5 12.8z"/><path fill-rule="evenodd" class="F" d="m408.7 145.3c-11.4-4.8-18.7-11.5-22.9-19-4.2-7.5-5.3-15.8-4.7-24 1.5-16.4 10.4-32.7 16.9-42.6zm65.4-82.2c7.7 8.6 12.8 21 14 37.8 0.8 12.4-2 22.1-7.3 29.6-5.4 7.5-12.9 12.5-21.4 15.7-16.7 6.3-37.2 5-50.7-0.9zm-27.6-15.8c10.1 2.2 19.9 7.2 27.6 15.8zm-29.1 0.7c8.7-2.3 19.1-2.8 29.1-0.7zm-19.7 11.9c3.7-5.4 10.8-9.5 19.5-11.9zm10.9 85.6l65.4-82.2zm65.4-82.3l-27.5-15.9zm-27.6-15.8l-29 0.7z"/><path class="G" d="m388.8 110c0 0-6.5-2-10.2-16.4-2.5-9.8 0.4-30.7 12.5-40.7 7.2-5.8 9.2-3.2 9.2-3.2 0 0 1.8-7 15.4-13 44.4-19.2 55.5 1.7 61.9 18.9 8.7 23.5 4.3 41-42.1 25.8-18.7-6.1-30.5-9.1-30.5-9.1 0 0 0.2 6-3.7 14.6-3.7 8.7-12.7 18.1-12.7 18.1"/><path fill-rule="evenodd" d="m376.8 93.9c-1.4-5.3-1.2-13.3 0.8-21.1 2-7.9 5.9-16.1 12.4-21.4l2.3 2.7c-5.7 4.6-9.3 12-11.2 19.5-2 7.3-2 14.8-0.8 19.3zm13.7-42.3c3.6-3 6.3-4.2 8.3-4.2q0.4 0 0.7 0c0.5-0.9 1.1-2 2.2-3.2 2.3-2.8 6.3-6.2 13.3-9.2l0.1 0.2c22.3-9.7 36.8-9.5 46.6-4.2 9.9 5.4 14.4 15.4 17.6 24.1l-3.4 1.1c-3.2-8.6-7.3-17.5-15.8-22.2-8.5-4.5-21.7-5.1-43.8 4.4-6.6 2.8-10.1 5.8-12.1 8.2-1 1.1-1.5 2-1.9 2.6-0.1 0.4-0.3 0.5-0.3 0.7v0.2l-0.1-0.1c-0.2 0.6-0.6 1.1-1.2 1.2-0.6 0.2-1.4-0.1-1.7-0.5h-0.5c-0.9 0-2.7 0.5-6.2 3.4zm89.8 27.3c-1-0.3-1.5-1.1-1.3-2.1 1.3-5.2 0-12.4-3-20.6l3.5-1.1c3 8.3 4.6 16.3 3 22.5-0.2 1-1.2 1.5-2.2 1.3zm-92 32.6h-0.1c-0.2 0-0.2-0.2-0.4-0.2-0.3 0-0.6-0.3-1-0.5-0.8-0.5-1.8-1.2-3-2.5-2.3-2.5-5-6.8-6.8-14.4l3.5-0.8c1.8 7 4.2 10.9 6 12.9 0.8 1.1 1.7 1.6 2.2 2 0.1 0.1 0.3 0.3 0.5 0.3h0.1l-0.5 1.7c-0.5 1.6-0.5 1.6-0.5 1.5zm14.9-23.9c-2 4.5-5.3 9-8 12.5-1.4 1.7-2.5 3.2-3.5 4.2l-1.5 1.5v0.2l-2.7-2.4 0.3-0.3c0.2-0.3 0.5-0.7 1-1.2q1.5-1.5 3.5-4c2.7-3.3 5.7-7.8 7.6-11.8zm74.4-32.1l1.7-0.6zm-99 37.8l1.7-0.5zm12.5-40.7l1.1 1.4zm24.6-16.1l-0.7-1.6z"/><path class="H" d="m400.3 165h62.4c11.2 0 21.6 5.7 25.4 14.6l24.7 56.4c3.2 7.3 1.3 14.6-3.5 20.2-4.9 5.3-12.7 9-21.9 9h-112.1c-9.2 0-17-3.5-21.9-9-4.8-5.6-6.7-13.1-3.5-20.2l24.7-56.4c3.9-8.9 14.2-14.6 25.7-14.6z"/><rect class="I" x="368.4" y="175.1" width="126.7" height="149.2" rx="16.3"></rect><rect class="J" x="376.1" y="176.9" width="111.3" height="136.8" rx="15.3"></rect><rect class="I" x="372.6" y="86.1" width="114.6" height="75.6" rx="16.3"></rect><rect class="J" x="383" y="91.9" width="94" height="60.2" rx="11.4"></rect><path class="K" d="m378 355.6c-6.6-1.5-12.1-3.3-15.9-5.5-2-1-3.5-2.2-4.7-3.5-1.1-1.3-1.8-2.8-1.8-4.5 0-1.7 0.7-3.2 1.8-4.5 1.2-1.3 2.7-2.5 4.7-3.5 3.8-2 9.2-4 15.9-5.5 13.1-3.2 31.3-5 51.4-5 20 0 38.2 1.8 51.4 5 6.5 1.5 12 3.3 15.8 5.5 2 1 3.5 2.2 4.7 3.5 1.1 1.3 1.8 2.8 1.8 4.5 0 1.7-0.7 3.2-1.8 4.5-1.2 1.3-2.7 2.5-4.7 3.5-3.8 2-9.2 4-15.8 5.5-13.2 3.2-31.4 5-51.4 5-20.1 0-38.3-2-51.4-5z"/><path class="L" d="m500.4 345.3c-6.6 7.8-35.8 13.7-70.9 13.7-35 0-64.4-5.9-70.9-13.7z"/><path class="M" d="m418.7 445.1c-0.9 0-1.7-0.7-1.7-1.7v-173.7c0-6.9 5.5-12.4 12.4-12.4 6.8 0 12.3 5.5 12.3 12.4v173.7c0 0.8-0.7 1.7-1.7 1.7z"/><path class="M" d="m421.8 263.3c-0.8 0-1.6-0.6-1.6-1.6v-148.9c0-5 4.1-9.2 9.2-9.2 5 0 9.1 4.2 9.1 9.2v148.9c0 0.8-0.6 1.6-1.6 1.6z"/><path class="N" d="m431.4 363c0.1 0.5 0 1-0.4 1.3-0.3 0.3-0.6 0.7-1.1 0.7-0.5 0-4.6 0.3-11.1 0.3-12 0-32.8-1.2-55.2-7.8-16.7-5.1-23-22.7-25-40.4-1.9-16.9 0-34.6 1.5-44.3-3.4-0.3-6.4-0.8-8.5-1.6-1.4-0.5-2.5-1-3.4-1.7-0.8-0.7-1.6-1.7-1.6-3 0-1.5 1.3-2.7 2.3-3.3 1.2-0.9 2.7-1.4 4.5-1.9 3.5-1 8.5-1.5 13.8-1.5 5.4 0 10.2 0.5 13.9 1.5 1.8 0.5 3.3 1.2 4.5 1.9 1.2 0.6 2.3 1.6 2.3 3.3 0 1.5-1 2.5-2 3.2-1 0.6-2.3 1.1-3.8 1.6-2.7 0.9-6.3 1.5-10.5 1.7-1.9 11.4-3.4 28.2-1.7 43.1 0.8 7.8 2.5 15 5.4 20.5 2.6 5.5 6.6 9.5 11.8 11 31.7 9.4 60.6 7 61.4 7 1 0 1.7 0.7 1.9 1.5z"/><path class="N" d="m494.9 347.6c5.2-1.5 9-5.5 11.9-11 2.8-5.7 4.5-12.7 5.3-20.5 1.7-14.9 0.2-31.7-1.6-43.1-4.2-0.3-7.7-0.8-10.6-1.7-1.5-0.5-2.8-1-3.8-1.6-1-0.7-2-1.7-2-3.2 0-1.5 1.3-2.7 2.3-3.3 1.2-0.9 2.7-1.4 4.5-1.9 3.7-1 8.7-1.5 14.1-1.5 5.3 0 10.1 0.5 13.8 1.5 1.7 0.5 3.4 1.2 4.5 1.9 1.2 0.6 2.4 1.6 2.4 3.3 0 1.3-0.9 2.3-1.7 3-0.8 0.7-2 1.2-3.4 1.7-2.1 0.6-5.1 1.3-8.5 1.6 1.4 9.7 3.4 27.4 1.5 44.3-2 17.8-8.3 35.3-25 40.4-22.4 6.6-43 7.8-55.2 7.8-6.5 0-10.5-0.3-11-0.3-0.5 0-0.9-0.4-1.2-0.7-0.3-0.3-0.3-0.8-0.3-1.3l0.8-6.9c0.2-1 1-1.5 1.8-1.5 0.9 0.2 29.9 2.5 61.4-7z"/><path class="M" d="m429.5 469.9c-7.8 0-14.2-6.3-14.2-14.2 0-7.8 6.4-14.1 14.2-14.1 7.9 0 14.2 6.3 14.2 14.1 0 7.9-6.3 14.2-14.2 14.2zm0-192.2c-7.8 0-14.2-6.4-14.2-14.2 0-7.8 6.4-14.2 14.2-14.2 7.9 0 14.2 6.4 14.2 14.2 0 7.8-6.3 14.2-14.2 14.2z"/><circle class="O" cx="429.4" cy="360.6" r="9.7"/><path class="M" d="m361.9 469.9c-7.8 0-14.2-6.3-14.2-14.2 0-7.8 6.4-14.1 14.2-14.1 7.9 0 14.2 6.3 14.2 14.1 0 7.9-6.3 14.2-14.2 14.2zm139 0c-7.8 0-14.1-6.3-14.1-14.2 0-7.8 6.3-14.1 14.1-14.1 7.9 0 14.2 6.3 14.2 14.1 0 7.9-6.3 14.2-14.2 14.2z"/><path class="M" d="m500.3 445.1v2c0 2.8-4.2 5.1-9.2 5.1h-123.3c-5 0-9.2-2.3-9.2-5.1v-2c0-2.9 4.2-5.2 9.2-5.2h123.3c5.2 0 9.2 2.3 9.2 5.2z"/><path class="P" d="m268.6 405.4h65.9v12.8h-65.7c-3.6 0-6.4-2.7-6.6-6.2-0.1-3.5 2.9-6.5 6.4-6.5zm63.6 28.7c0 3.4-3 6.2-6.5 6.2h-65.8v-12.9h65.9c3.5 0 6.5 3.1 6.4 6.7zm0 21.9c0 3.3-3 6.2-6.5 6.2h-65.8v-12.9h65.9c3.5 0 6.5 3 6.4 6.7z"/><path fill-rule="evenodd" class="Q" d="m279.4 418.2h-10.8c-3.5 0-6.4-2.7-6.5-6.2-0.2-3.5 2.8-6.5 6.3-6.5h11.5c-3.5 0-6.3 2.9-6.3 6.5 0.2 3.3 2.7 6 5.8 6.2zm0.5 0q-0.2 0-0.5 0zm-20.1 9.2h11.6v12.8h-11.6zm0 21.9h11.6v12.8h-11.6z"/><path class="R" d="m287.6 405.2v7.5c0 0.5-0.5 0.8-0.8 0.5l-2.2-1.7c-0.2-0.1-0.5-0.1-0.7 0l-2.1 1.7c-0.4 0.2-0.9 0-0.9-0.5v-7.5z"/><path class="S" d="m284.4 411.4c-0.1 0-0.1 0.1-0.3 0.1l-2.2 1.7c-0.3 0.2-0.8 0-0.8-0.5v-7.5h3.3z"/><path class="R" d="m313.5 427v7.6c0 0.5-0.5 0.6-0.9 0.5l-2.1-1.7c-0.2-0.2-0.5-0.2-0.7 0l-2.2 1.7c-0.3 0.3-0.8 0-0.8-0.5v-7.6z"/><path class="S" d="m310 433.2c-0.2 0-0.2 0.2-0.4 0.2l-2.1 1.7c-0.4 0.1-0.9 0-0.9-0.5v-7.6h3.4z"/><path class="R" d="m313.5 449.1v7.5c0 0.5-0.5 0.7-0.9 0.5l-2.1-1.7c-0.2-0.2-0.5-0.2-0.7 0l-2.2 1.7c-0.3 0.3-0.8 0-0.8-0.5v-7.5z"/><path class="S" d="m310 455.2c-0.2 0-0.2 0.2-0.4 0.2l-2.1 1.7c-0.4 0.2-0.9 0-0.9-0.5v-7.5h3.4z"/><path class="T" d="m262.2 412c0.2 3.4 3 6 6.4 6h66.7c0.7 0 1.2 0.5 1.2 1.2v2.5c0 0.7-0.5 1.2-1.2 1.2h-66.9c-6 0-11-5-10.8-11.2 0.1-6 5.1-10.9 11.2-10.9h66.7c0.7 0 1.2 0.5 1.2 1.2v2.5c0 0.7-0.5 1.2-1.2 1.2h-66.9c-3.4 0-6.2 2.8-6.4 6.3z"/><path class="U" d="m287.1 422.9h-18.5c-6 0-11-5-10.9-11.2 0.2-6 5.2-10.9 11.2-10.9h18.4c-3.9 0-7.2 2-9.2 4.9h-9.5c-3.5 0-6.4 2.8-6.2 6.3 0.2 3.4 3 6 6.4 6h9.3c1.8 2.9 5.2 4.9 9 4.9z"/><path class="V" d="m325.8 427.5h-66.9c-0.7 0-1.2-0.5-1.2-1.1v-2.5c0-0.7 0.5-1.2 1.2-1.2h66.8c6 0 11 4.8 11.1 10.9 0.2 6.1-4.8 11.1-11 11.1h-66.9c-0.7 0-1.2-0.5-1.2-1.1v-2.5c0-0.7 0.5-1.2 1.2-1.2h66.8c3.3 0 6.1-2.7 6.3-6 0-3.5-2.8-6.4-6.2-6.4z"/><path class="W" d="m257.7 426.4v-2.5c0-0.7 0.5-1.2 1.2-1.2h11.4c-0.7 0-1.2 0.5-1.2 1.2v2.5c0 0.6 0.5 1.1 1.2 1.1h-11.4c-0.7 0-1.2-0.5-1.2-1.1zm12.6 18.3h-11.4c-0.7 0-1.2-0.5-1.2-1.1v-2.5c0-0.7 0.5-1.2 1.2-1.2h11.4c-0.7 0-1.2 0.5-1.2 1.2v2.5c0 0.6 0.5 1.1 1.2 1.1z"/><path class="X" d="m325.8 449.4h-66.9c-0.7 0-1.2-0.5-1.2-1.2v-2.5c0-0.6 0.5-1.1 1.2-1.1h66.8c6 0 11 4.8 11.1 10.8 0.2 6.2-4.8 11.2-11 11.2h-66.9c-0.7 0-1.2-0.5-1.2-1.2v-2.5c0-0.6 0.5-1.1 1.2-1.1h66.8c3.3 0 6.1-2.7 6.3-6.1 0-3.3-2.8-6.3-6.2-6.3z"/><path class="Y" d="m257.7 448.2v-2.5c0-0.6 0.5-1.1 1.2-1.1h11.4c-0.7 0-1.2 0.5-1.2 1.1v2.5c0 0.7 0.5 1.2 1.2 1.2h-11.4c-0.7 0-1.2-0.5-1.2-1.2zm12.6 18.4h-11.4c-0.7 0-1.2-0.5-1.2-1.2v-2.5c0-0.6 0.5-1.1 1.2-1.1h11.4c-0.7 0-1.2 0.5-1.2 1.1v2.5c0 0.7 0.5 1.2 1.2 1.2z"/><path fill-rule="evenodd" d="m256.9 465.9v-2.5c0-1.3 1-2.3 2.3-2.3v-10c-1.3 0-2.3-1-2.3-2.4v-2.5c0-0.5 0.2-0.8 0.3-1.1-0.1-0.4-0.3-0.7-0.3-1.2v-2.5c0-1.3 1-2.3 2.3-2.3v-10.1c-1.3 0-2.3-1-2.3-2.3v-2.5c0-1.3 1-2.3 2.3-2.3h2.5c-3.1-2.4-5-6-5-10 0.2-6.7 5.7-12.1 12.4-12.1h66.7c1.4 0 2.4 1 2.4 2.4v2.5c0 1.3-1 2.3-2.4 2.3v2.2c0 0.7-0.5 1.2-1.1 1.2-0.7 0-1.2-0.5-1.2-1.2v-2.2h-44.1v5.9c0 1.3-1.6 2.1-2.8 1.3l-1.8-1.3-1.9 1.3c-1.1 0.8-2.8 0.2-2.8-1.3v-5.9h-11.2c-2.6 0-4.8 2.2-5 4.7-0.3 3 2.2 5.3 5 5.3h64.4v-2.1c0-0.7 0.5-1.2 1.2-1.2 0.7 0 1.2 0.5 1.2 1.2v2.1c1.3 0 2.3 1 2.3 2.4v2.5c0 1.3-1 2.3-2.3 2.3h-2.7c3 2.2 5 5.7 5 9.5 0 5-3 9.4-7 11.2 4.2 1.8 7 6 7 10.7 0 6.8-5.3 12.3-12.2 12.3h-29.8c-0.7 0-1.2-0.5-1.2-1.1 0-0.7 0.5-1.2 1.2-1.2h29.8c5.4 0 9.7-4.3 9.7-9.9 0-5.3-4.5-9.6-9.8-9.6h-66.8v2.3h66.9c4.2 0 7.5 3.3 7.4 7.5-0.2 4-3.5 7.2-7.5 7.2h-66.8v2.3h31.4c0.6 0 1.1 0.5 1.1 1.2 0 0.7-0.5 1.2-1.1 1.2h-31.4c-1.3 0-2.3-1-2-1.9zm4.5-5.1h64.6c2.7 0 5-2.2 5-4.9 0-2.8-2.2-5.2-5-5.2h-11.2v5.9c0 1.3-1.7 2.2-2.8 1.3l-1.9-1.3-1.8 1.3c-1.2 0.9-2.8 0.2-2.8-1.3v-5.9h-44.1zm46.4-5.3l1.2-0.8c0.6-0.5 1.5-0.5 2.1 0l1.2 0.8v-4.7h-4.5zm-39.2-34h66.9v-2.3h-66.7c-4.2 0-7.7-3.4-7.6-7.6 0.2-3.8 3.4-7.1 7.4-7.1h66.9v-2.4h-66.7c-5.4 0-9.7 4.4-9.9 9.7-0.2 5.5 4.3 10 9.7 9.7zm18-14.5h-4.5v4.6l1.2-0.8c0.6-0.5 1.5-0.5 2.1 0l1.2 0.8zm-27.7 36.8h66.8c5.8 0 9.8-4.7 9.8-9.9 0-5.3-4.5-9.7-9.8-9.7h-66.8v2.4h66.9c4.2 0 7.5 3.3 7.4 7.5-0.2 4-3.5 7.2-7.5 7.2h-66.8zm46.6-8.9v-5.8h-44.1v10h64.6c2.7 0 5-2.2 5-4.9 0-2.8-2.2-5.1-5-5.1h-11.2v5.8c0 1.3-1.7 2.2-2.8 1.3l-1.9-1.3-1.8 1.3c-1.2 0.9-2.8 0-2.8-1.3zm3.5-2.2c0.6-0.5 1.5-0.5 2.1 0l1.2 0.9v-4.7h-4.5v4.7z"/><rect class="Z" x="190" y="464.3" width="517" height="19.7" rx="5.9"></rect></g></svg>