<svg version="1.2" xmlns="http://www.w3.org/2000/svg" viewBox="0 0 500 500" width="500" height="500"><style>.a{opacity:.1;fill:#05a9e1}.b{fill:#514e5b}.c{fill:#f8fafd}.d{opacity:.6;fill:#f8fafd}.e{opacity:.3;fill:#f8fafd}.f{fill:#151c28}.g{fill:#57463a}.h{fill:#fff}.i{fill:#05a9e1}.j{fill:#087b96}.k{fill:#493b32}.l{fill:#3e312a}.m{fill:#b9a090}.n{fill:#fba823}.o{fill:#a58a7c}.p{fill:#977c70}.q{fill:#ab8433}</style><ellipse class="a" cx="249.1" cy="249.8" rx="167.4" ry="166.8"/><path fill-rule="evenodd" class="b" d="m235.5 271.9h-172.5q-0.7 0-1.4-0.1-0.7-0.2-1.3-0.4-0.6-0.3-1.2-0.7-0.6-0.3-1.1-0.8-0.4-0.5-0.8-1.1-0.4-0.5-0.7-1.2-0.2-0.6-0.4-1.3-0.1-0.7-0.1-1.3v-119.9q0-0.7 0.1-1.4 0.2-0.7 0.4-1.3 0.3-0.6 0.7-1.2 0.4-0.6 0.8-1.1 0.5-0.4 1.1-0.8 0.6-0.4 1.2-0.7 0.6-0.2 1.3-0.4 0.7-0.1 1.4-0.1h172.5q0.3 0 0.7 0 0.3 0.1 0.6 0.1 0.4 0.1 0.7 0.2 0.3 0.1 0.6 0.2 1.3 0.6 2.3 1.5 1 1 1.5 2.3 0.6 1.3 0.6 2.6v120q0 1.3-0.6 2.6-0.5 1.3-1.5 2.3-1 0.9-2.3 1.5-0.3 0.1-0.6 0.2-0.3 0.1-0.7 0.2-0.3 0-0.6 0.1-0.4 0-0.7 0zm-172.5-131.3c-1.2 0-2.3 0.5-3.2 1.3-0.8 0.8-1.2 2-1.2 3.1v119.9c0 1.2 0.4 2.3 1.2 3.1 0.9 0.9 2 1.3 3.2 1.3h172.5c1.1 0 2.3-0.4 3.1-1.3 0.8-0.8 1.3-1.9 1.3-3.1v-119.8c0-1.2-0.5-2.3-1.3-3.2-0.8-0.8-2-1.2-3.1-1.2z"/><path class="b" d="m241.2 152.9h-183.9v-7.8q0-1.2 0.4-2.2 0.1-0.3 0.2-0.5 0.2-0.3 0.3-0.5 0.2-0.2 0.4-0.5 0.1-0.2 0.3-0.4 0.2-0.2 0.4-0.3 0.3-0.2 0.5-0.4 0.2-0.1 0.5-0.3 0.2-0.1 0.5-0.2 1-0.4 2.2-0.4h172.5q0.5 0 1.1 0.1 0.5 0.1 1.1 0.3 0.5 0.2 0.9 0.5 0.5 0.3 0.9 0.7c1.1 1.1 1.7 2.5 1.7 4.1 0 0 0 7.8 0 7.8z"/><path class="c" d="m68.5 145.6q0 0.1 0 0.3 0 0.2-0.1 0.4-0.1 0.2-0.1 0.3-0.1 0.2-0.2 0.4-0.5 0.6-1.2 0.9c-0.4 0.2-1 0.2-1.4 0.2-0.5-0.1-1-0.4-1.4-0.7q-0.1-0.2-0.2-0.3-0.1-0.2-0.2-0.3-0.1-0.2-0.2-0.4 0-0.2-0.1-0.3c-0.1-0.5 0-1.1 0.2-1.5q0.1-0.2 0.2-0.4 0.1-0.1 0.2-0.3 0.1-0.1 0.2-0.2 0.2-0.2 0.3-0.3c0.5-0.2 1-0.4 1.5-0.4 0.6 0 1.3 0.3 1.8 0.8q0.1 0.1 0.3 0.3 0.1 0.3 0.2 0.5 0.1 0.2 0.2 0.5 0 0.2 0 0.5z"/><path class="d" d="m76.2 145.6q0 0.1 0 0.3-0.1 0.2-0.1 0.4-0.1 0.2-0.2 0.3 0 0.2-0.1 0.4-0.5 0.6-1.2 0.9c-0.5 0.2-1 0.2-1.5 0.2-0.5-0.1-0.9-0.4-1.3-0.7q-0.1-0.2-0.2-0.3-0.1-0.2-0.2-0.3-0.1-0.2-0.2-0.4 0-0.2-0.1-0.3c-0.1-0.5 0-1.1 0.2-1.5q0.1-0.2 0.1-0.4 0.1-0.1 0.3-0.3 0.1-0.1 0.2-0.2 0.2-0.2 0.3-0.3c0.4-0.2 0.9-0.4 1.4-0.4 0.7 0 1.4 0.3 1.8 0.8q0.2 0.1 0.4 0.3 0.1 0.3 0.2 0.5 0.1 0.2 0.1 0.5 0.1 0.2 0.1 0.5z"/><path class="c" d="m83.9 145.6q0 0.1 0 0.3-0.1 0.2-0.1 0.4-0.1 0.2-0.2 0.3 0 0.2-0.2 0.4-0.4 0.6-1.1 0.9c-0.5 0.2-1 0.2-1.5 0.2-0.5-0.1-0.9-0.4-1.3-0.7q-0.1-0.2-0.2-0.3-0.1-0.2-0.2-0.3-0.1-0.2-0.2-0.4 0-0.2-0.1-0.3c-0.1-0.5 0-1.1 0.2-1.5q0-0.2 0.1-0.4 0.1-0.1 0.3-0.3 0.1-0.1 0.2-0.2 0.2-0.2 0.3-0.3c0.4-0.2 0.9-0.4 1.4-0.4 0.7 0 1.4 0.3 1.8 0.8q0.2 0.1 0.4 0.3 0.1 0.3 0.2 0.5 0.1 0.2 0.1 0.5 0.1 0.2 0.1 0.5z"/><path fill-rule="evenodd" class="b" d="m437 360.6h-172.5c-1.8 0-3.6-0.7-4.9-2q-0.5-0.5-0.9-1.1-0.4-0.6-0.6-1.2-0.3-0.6-0.4-1.3-0.2-0.7-0.2-1.3v-120q0-0.6 0.2-1.3 0.1-0.7 0.4-1.3 0.2-0.6 0.6-1.2 0.4-0.6 0.9-1.1 0.5-0.4 1-0.8 0.6-0.4 1.2-0.7 0.7-0.2 1.3-0.4 0.7-0.1 1.4-0.1h172.5q1.4 0 2.7 0.5 0.3 0.1 0.6 0.3 0.3 0.2 0.6 0.4 0.3 0.2 0.5 0.4 0.3 0.2 0.6 0.4 0.2 0.3 0.4 0.5 0.2 0.3 0.4 0.6 0.2 0.3 0.4 0.6 0.1 0.3 0.3 0.6 0.5 1.3 0.5 2.6v120c0 1.8-0.7 3.6-2 4.9q-0.5 0.5-1.1 0.8-0.6 0.4-1.2 0.7-0.6 0.2-1.3 0.4-0.7 0.1-1.4 0.1zm-172.5-131.3c-1.2 0-2.3 0.5-3.1 1.3-0.8 0.8-1.3 2-1.3 3.1v119.9c0 1.2 0.5 2.3 1.3 3.1 0.8 0.9 1.9 1.3 3.1 1.3h172.5c1.2 0 2.3-0.4 3.1-1.3q0.3-0.3 0.6-0.6 0.2-0.4 0.4-0.8 0.2-0.4 0.2-0.8 0.1-0.4 0.1-0.9v-119.9q0-0.4-0.1-0.8 0-0.4-0.2-0.8-0.2-0.4-0.4-0.8-0.3-0.3-0.6-0.7c-0.8-0.8-1.9-1.2-3.1-1.2z"/><path class="b" d="m442.7 241.6h-183.9v-7.9c0-1.5 0.6-2.9 1.7-4q0.4-0.4 0.8-0.7 0.5-0.3 1-0.5 0.5-0.2 1.1-0.3 0.5-0.1 1.1-0.1h172.5q0.6 0 1.1 0.1 0.6 0.1 1.1 0.3 0.5 0.2 1 0.5 0.5 0.3 0.9 0.7c1 1.1 1.6 2.5 1.6 4 0 0 0 7.9 0 7.9z"/><path class="c" d="m270 234.3q0 0.1 0 0.3 0 0.2-0.1 0.4 0 0.2-0.1 0.3-0.1 0.2-0.2 0.4-0.4 0.6-1.1 0.9c-0.5 0.2-1 0.2-1.5 0.2-0.5-0.1-1-0.4-1.3-0.7q-0.1-0.2-0.3-0.3-0.1-0.2-0.2-0.3 0-0.2-0.1-0.4-0.1-0.2-0.1-0.3c-0.1-0.5-0.1-1.1 0.1-1.5q0.1-0.2 0.2-0.4 0.1-0.1 0.2-0.3 0.1-0.1 0.3-0.2 0.1-0.2 0.3-0.3c0.4-0.2 0.9-0.4 1.4-0.4 0.7 0 1.3 0.3 1.8 0.8 0.5 0.4 0.7 1.1 0.7 1.8z"/><path class="d" d="m277.7 234.3q0 0.3-0.1 0.7-0.1 0.4-0.3 0.7-0.2 0.3-0.5 0.5-0.3 0.3-0.6 0.4c-0.5 0.2-1 0.2-1.5 0.2-0.5-0.1-1-0.4-1.3-0.7q-0.2-0.2-0.3-0.3-0.1-0.2-0.2-0.3-0.1-0.2-0.1-0.4-0.1-0.2-0.1-0.3c-0.1-0.5-0.1-1.1 0.1-1.5q0.1-0.2 0.2-0.4 0.1-0.1 0.2-0.3 0.1-0.1 0.3-0.2 0.1-0.2 0.3-0.3c0.4-0.2 0.9-0.4 1.4-0.4 0.7 0 1.3 0.3 1.8 0.8 0.5 0.4 0.7 1.1 0.7 1.8z"/><path class="e" d="m285.4 234.3q0 0.3-0.1 0.7-0.1 0.4-0.3 0.7-0.2 0.3-0.5 0.5-0.3 0.3-0.7 0.4c-0.4 0.2-0.9 0.2-1.4 0.2-0.5-0.1-1-0.4-1.3-0.7q-0.2-0.2-0.3-0.3-0.1-0.2-0.2-0.3-0.1-0.2-0.1-0.4-0.1-0.2-0.1-0.3c-0.1-0.5-0.1-1.1 0.1-1.5q0.1-0.2 0.2-0.4 0.1-0.1 0.2-0.3 0.1-0.1 0.3-0.2 0.1-0.2 0.3-0.3c0.4-0.2 0.9-0.4 1.4-0.4 0.6 0 1.3 0.3 1.8 0.8 0.4 0.4 0.7 1.1 0.7 1.8z"/><path class="b" d="m79.4 175.4h-7.1v-6.4h7.1z"/><path class="b" d="m81.9 175.1l-2.5-2.1v-1.6l2.5-2.1c0 0 0 5.8 0 5.8zm19.5-3.4q0 0.1 0 0.3 0 0.2-0.1 0.3-0.1 0.2-0.2 0.3-0.1 0.2-0.2 0.3c-0.3 0.3-0.8 0.5-1.2 0.5q-0.4 0-0.7-0.1-0.3-0.1-0.6-0.4-0.1-0.1-0.2-0.3-0.1-0.1-0.2-0.3 0-0.1-0.1-0.3 0-0.2 0-0.3v-3.8q0-0.2 0-0.3 0.1-0.2 0.1-0.4 0.1-0.1 0.2-0.3 0.1-0.1 0.2-0.2 0.3-0.3 0.6-0.4 0.1 0 0.2-0.1 0 0 0.1 0 0.1 0 0.2 0 0.1 0 0.2 0c0.4 0 0.9 0.2 1.2 0.5q0.1 0.1 0.2 0.2 0.1 0.2 0.2 0.3 0.1 0.2 0.1 0.4 0 0.1 0 0.3c0 0 0 3.8 0 3.8zm-1.7 3.7q-0.4 0-0.8 0-0.3-0.1-0.7-0.3-0.3-0.1-0.7-0.3-0.3-0.2-0.5-0.5c-0.7-0.7-1.2-1.7-1.2-2.7h1.2q0 0.3 0.1 0.5 0.1 0.2 0.2 0.5 0.1 0.2 0.2 0.4 0.2 0.2 0.4 0.3 0.3 0.4 0.8 0.6 0.5 0.1 1 0.1 0.5 0 0.9-0.1 0.5-0.2 0.9-0.6c0.4-0.4 0.8-1 0.8-1.7h1.2q0 0.4-0.1 0.8-0.1 0.3-0.2 0.7-0.2 0.3-0.4 0.6-0.2 0.3-0.4 0.6c-0.8 0.7-1.7 1.1-2.7 1.1z"/><path fill-rule="evenodd" class="b" d="m99.7 181.4q-0.7 0-1.4-0.1-0.7-0.1-1.3-0.3-0.7-0.2-1.3-0.5-0.6-0.2-1.2-0.6c-1.5-1-2.7-2.5-3.4-4.1q-0.2-0.7-0.4-1.3-0.2-0.7-0.2-1.4-0.1-0.6-0.1-1.3 0.1-0.7 0.2-1.4 0.1-0.6 0.4-1.3 0.2-0.6 0.5-1.2 0.3-0.6 0.7-1.2 0.4-0.5 0.9-1 0.5-0.5 1-0.9 0.6-0.4 1.2-0.7 0.6-0.3 1.2-0.5 0.7-0.3 1.3-0.4c1.8-0.4 3.7-0.2 5.4 0.5q0.6 0.3 1.2 0.6 0.6 0.4 1.1 0.8 0.5 0.5 1 1 0.4 0.5 0.8 1c1 1.5 1.6 3.3 1.6 5.1 0 2.5-1 4.8-2.7 6.5q-0.7 0.7-1.4 1.2-0.8 0.5-1.6 0.8-0.9 0.4-1.7 0.5-0.9 0.2-1.8 0.2zm-22.7 0c-1.8 0-3.6-0.5-5.1-1.5q-0.6-0.4-1.1-0.8-0.5-0.5-1-1-0.4-0.6-0.7-1.1-0.4-0.6-0.7-1.2-0.2-0.7-0.4-1.3-0.2-0.7-0.2-1.4-0.1-0.6-0.1-1.3 0.1-0.7 0.2-1.4 0.1-0.6 0.4-1.3 0.2-0.6 0.5-1.2 0.3-0.6 0.8-1.2 0.4-0.5 0.8-1 0.5-0.5 1.1-0.9 0.5-0.4 1.1-0.7 0.6-0.3 1.3-0.5 0.6-0.3 1.3-0.4c1.8-0.4 3.6-0.2 5.3 0.5q0.6 0.3 1.2 0.6 0.6 0.4 1.1 0.8 0.6 0.5 1 1 0.5 0.5 0.8 1 0.4 0.6 0.7 1.2 0.3 0.6 0.5 1.3 0.2 0.6 0.3 1.3 0.1 0.7 0.1 1.3 0 0.9-0.2 1.8-0.2 0.9-0.5 1.8-0.4 0.8-0.9 1.5-0.5 0.8-1.1 1.4-0.7 0.7-1.4 1.2-0.8 0.5-1.6 0.8-0.8 0.4-1.7 0.5-0.9 0.2-1.8 0.2zm0-17.3q-0.6 0-1.2 0.1-0.6 0.1-1.2 0.2-0.6 0.2-1.1 0.5-0.6 0.2-1.1 0.5c-1.3 0.9-2.4 2.2-3 3.7-0.6 1.5-0.8 3.1-0.5 4.7q0.1 0.6 0.3 1.2 0.3 0.6 0.5 1.1 0.3 0.5 0.7 1 0.3 0.5 0.8 0.9 0.4 0.4 0.9 0.8 0.5 0.4 1 0.6 0.5 0.3 1.1 0.5 0.6 0.2 1.2 0.4 0.6 0.1 1.2 0.1 0.6 0 1.2 0 0.6-0.1 1.1-0.2 0.6-0.2 1.2-0.4 0.6-0.2 1.1-0.5 0.5-0.4 1-0.7 0.4-0.4 0.8-0.9 0.4-0.4 0.8-0.9c0.9-1.4 1.4-2.9 1.4-4.6q0-0.8-0.2-1.5-0.2-0.8-0.5-1.6-0.3-0.7-0.7-1.4-0.5-0.6-1-1.2-0.6-0.6-1.3-1-0.6-0.5-1.4-0.8-0.7-0.3-1.5-0.5-0.8-0.1-1.6-0.1zm22.7 0q-0.6 0-1.2 0.1-0.6 0.1-1.2 0.2-0.6 0.2-1.1 0.5-0.6 0.2-1.1 0.5c-1.3 0.9-2.4 2.2-3 3.7-0.6 1.5-0.8 3.1-0.5 4.7q0.1 0.6 0.3 1.2 0.2 0.6 0.5 1.1 0.3 0.5 0.7 1 0.3 0.5 0.7 0.9 0.5 0.4 1 0.8 0.4 0.4 1 0.6 0.5 0.3 1.1 0.5 0.5 0.2 1.1 0.4c1.6 0.3 3.3 0.1 4.8-0.5q0.5-0.2 1.1-0.5 0.5-0.4 0.9-0.7 0.5-0.4 0.9-0.9 0.4-0.4 0.8-0.9c0.9-1.4 1.3-2.9 1.3-4.6q0-0.8-0.1-1.5-0.2-0.8-0.5-1.6-0.3-0.7-0.7-1.4-0.5-0.6-1.1-1.2-0.5-0.6-1.2-1-0.7-0.5-1.4-0.8-0.8-0.3-1.5-0.5-0.8-0.1-1.6-0.1zm0.6 14.2h-1.2v-3.4h1.2zm295.6 77.1h7.1v6.4h-7.1z"/><path class="b" d="m405.5 261.5l-2.5-2.1v-1.5l2.5-2.1zm19.5-3.5q0 0.1 0 0.3-0.1 0.2-0.1 0.3-0.1 0.2-0.2 0.3-0.1 0.2-0.2 0.3c-0.4 0.3-0.8 0.5-1.3 0.5-0.4 0-0.9-0.2-1.2-0.5q-0.1-0.1-0.2-0.3-0.1-0.1-0.2-0.3-0.1-0.1-0.1-0.3 0-0.2 0-0.3v-3.8q0-0.2 0-0.3 0-0.2 0.1-0.4 0.1-0.1 0.2-0.3 0.1-0.1 0.2-0.2c0.3-0.3 0.8-0.5 1.2-0.5 0.5 0 0.9 0.2 1.3 0.5q0.1 0.1 0.2 0.2 0.1 0.2 0.2 0.3 0 0.2 0.1 0.4 0 0.1 0 0.3z"/><path class="b" d="m423.2 261.9q-0.2 0-0.3-0.1-0.2 0-0.4 0-0.2 0-0.4-0.1-0.2-0.1-0.3-0.1-0.7-0.3-1.3-0.8-0.1-0.2-0.2-0.3-0.1-0.2-0.2-0.3-0.1-0.2-0.2-0.3-0.1-0.2-0.2-0.4-0.1-0.2-0.1-0.3-0.1-0.2-0.1-0.4 0-0.2-0.1-0.4 0-0.1 0-0.3h1.2q0 0.2 0.1 0.4 0 0.3 0.1 0.5 0.1 0.2 0.3 0.4 0.1 0.2 0.3 0.4 0.4 0.3 0.9 0.5 0.4 0.2 0.9 0.2 0.5 0 1-0.2 0.5-0.2 0.8-0.5c0.5-0.5 0.8-1.1 0.9-1.7h1.1q0 0.3 0 0.7-0.1 0.4-0.3 0.7-0.1 0.4-0.3 0.7-0.2 0.3-0.5 0.5c-0.7 0.8-1.7 1.2-2.7 1.2z"/><path fill-rule="evenodd" class="b" d="m423.2 267.9q-0.7 0-1.4-0.1-0.6-0.1-1.3-0.3-0.6-0.2-1.3-0.5-0.6-0.3-1.1-0.7-0.6-0.3-1.1-0.8-0.5-0.4-1-1-0.4-0.5-0.7-1.1-0.4-0.6-0.7-1.2c-0.7-1.7-0.8-3.5-0.5-5.3 0.4-1.8 1.3-3.4 2.5-4.7q0.5-0.5 1.1-0.9 0.5-0.4 1.1-0.7 0.6-0.4 1.3-0.6 0.6-0.2 1.3-0.3c1.8-0.4 3.6-0.2 5.3 0.5 1.7 0.7 3.1 1.9 4.1 3.4q0.4 0.5 0.7 1.2 0.3 0.6 0.5 1.2 0.2 0.7 0.3 1.4 0.1 0.6 0.1 1.3c0 2.4-1 4.8-2.7 6.5q-0.7 0.6-1.4 1.1-0.8 0.5-1.6 0.9-0.8 0.3-1.7 0.5-0.9 0.2-1.8 0.2zm-22.7 0q-0.7 0-1.3-0.1-0.7-0.1-1.4-0.3-0.6-0.2-1.2-0.5-0.7-0.3-1.2-0.7-0.6-0.3-1.1-0.8-0.5-0.5-0.9-1-0.5-0.5-0.8-1.1-0.4-0.6-0.6-1.2-0.3-0.6-0.4-1.3-0.2-0.6-0.3-1.3 0-0.7 0-1.4 0-0.7 0.2-1.3 0.1-0.7 0.3-1.3 0.3-0.7 0.6-1.3 0.3-0.6 0.7-1.1 0.4-0.5 0.9-1 0.5-0.5 1-0.9 0.6-0.4 1.2-0.7 0.6-0.4 1.2-0.6 0.7-0.2 1.3-0.3 0.7-0.2 1.4-0.2 0.6 0 1.3 0 0.7 0.1 1.4 0.3 0.6 0.1 1.3 0.4 0.6 0.3 1.2 0.6 0.5 0.4 1.1 0.8 0.5 0.4 1 0.9 0.4 0.5 0.8 1.1 0.4 0.6 0.7 1.2 0.2 0.6 0.4 1.2 0.2 0.7 0.3 1.4 0.1 0.6 0.1 1.3 0 0.9-0.1 1.8-0.2 0.9-0.6 1.7-0.3 0.9-0.8 1.6-0.5 0.8-1.2 1.4-0.6 0.6-1.4 1.1-0.7 0.5-1.6 0.9-0.8 0.3-1.7 0.5-0.9 0.2-1.8 0.2zm0-17.4q-0.6 0-1.2 0.1-0.6 0.1-1.2 0.3-0.5 0.2-1.1 0.4-0.5 0.3-1 0.6-0.5 0.3-1 0.8-0.4 0.4-0.8 0.8-0.4 0.5-0.7 1-0.3 0.5-0.6 1.1-0.2 0.5-0.3 1.1-0.2 0.6-0.2 1.2-0.1 0.6-0.1 1.2 0.1 0.6 0.2 1.2c0.3 1.6 1.1 3 2.2 4.2q0.4 0.4 0.9 0.8 0.5 0.3 1 0.6 0.6 0.3 1.1 0.5 0.6 0.2 1.2 0.3c1.6 0.3 3.2 0.2 4.7-0.5q0.6-0.2 1.1-0.5 0.5-0.3 1-0.7 0.5-0.4 0.9-0.8 0.4-0.5 0.7-1 0.4-0.5 0.6-1 0.3-0.5 0.4-1.1 0.2-0.6 0.3-1.2 0.1-0.6 0.1-1.2c0-2.2-0.9-4.2-2.4-5.8q-0.6-0.5-1.2-1-0.7-0.4-1.5-0.7-0.7-0.3-1.5-0.5-0.8-0.2-1.6-0.2zm22.7 0q-0.6 0-1.2 0.1-0.6 0.1-1.2 0.3-0.6 0.2-1.1 0.4-0.6 0.3-1.1 0.6-0.5 0.3-0.9 0.7-0.5 0.4-0.9 0.9-0.3 0.5-0.7 1-0.3 0.5-0.5 1.1-0.2 0.5-0.4 1.1-0.1 0.6-0.2 1.2 0 0.6 0 1.2 0 0.6 0.1 1.2 0.1 0.6 0.3 1.1 0.3 0.6 0.5 1.1 0.3 0.6 0.7 1.1 0.3 0.4 0.8 0.9 0.4 0.4 0.9 0.8 0.5 0.3 1 0.6 0.5 0.3 1.1 0.5 0.6 0.2 1.2 0.3c1.6 0.3 3.2 0.2 4.7-0.4 1.5-0.7 2.8-1.7 3.7-3.1 0.9-1.3 1.4-2.9 1.4-4.5q0-0.8-0.2-1.6-0.2-0.8-0.5-1.5-0.3-0.8-0.7-1.4-0.5-0.7-1-1.3-0.6-0.5-1.3-1-0.6-0.4-1.4-0.7-0.7-0.3-1.5-0.5-0.8-0.2-1.6-0.2zm0.6 14.3h-1.1v-3.5h1.1z"/><path class="f" d="m355.1 236.4l7.5 16.5 0.6 18.5-2 27.7-28 9.3-12-24.8-3.7-7 4.8-32.8 6.4-10.7 8.3-4.7c0 0 18.1 8 18.1 8z"/><path class="g" d="m354 302.3l-11.4 3-7.2-15.9 3.8-3.2 13.5-1.1 9.2 4.9z"/><path class="g" d="m356 289.1l-9.3 4.1-9.2-2.9 0.8-18.7 16.9-6c0 0 0.8 23.5 0.8 23.5z"/><path class="h" d="m321.6 358.1c0 0-4.2-57.9-3.9-58.2l17.7-10.6c0.4 1.5 1.3 3 2.5 4.1q0.4 0.4 0.9 0.7 0.5 0.4 1.1 0.7 0.5 0.2 1.1 0.4 0.6 0.3 1.2 0.4c5 1 14.8-2.4 15.8-6.3q2.4 0.7 4.8 1.6 2.3 0.9 4.5 2.1 2.2 1.1 4.3 2.5 2.1 1.4 4.1 2.9l-7.9 59.7z"/><path fill-rule="evenodd" class="i" d="m343.7 358.1l12.5-71 37.6 17.4 6.9 53.6zm-47.3 0l7.8-53.6 33.1-16.7 2.9 70.3z"/><path class="j" d="m381.2 358.1l-0.2-13.6 9.9-36.2 0.7 0.1-9.9 36.2 0.3 13.5zm-71.3 0h-0.7l0.6-11.1-5.4-35.1 0.7-0.1 5.5 35.1v0.1z"/><path class="f" d="m358.3 349.4q-0.4 0-0.7-0.3-0.4-0.2-0.7-0.5-0.2-0.4-0.3-0.8-0.1-0.4-0.1-0.8v-0.2q0.1-0.5 0.3-0.9 0.3-0.4 0.7-0.6-0.3-0.4-0.5-0.8-0.1-0.5-0.1-0.9v-0.2q0.1-0.5 0.4-0.9 0-0.1 0.1-0.1 0.1-0.1 0.1-0.2 0.1-0.1 0.2-0.2 0.1 0 0.2-0.1-0.3-0.4-0.4-0.8-0.1-0.1-0.1-0.2 0-0.1 0-0.2 0-0.2 0-0.3 0-0.1 0-0.2v-0.2q0-0.1 0-0.2 0-0.1 0.1-0.2 0-0.1 0.1-0.2 0-0.1 0.1-0.2 0.2-0.4 0.6-0.7-0.1-0.1-0.1-0.2-0.1-0.1-0.2-0.2 0-0.1-0.1-0.2 0-0.1-0.1-0.2-0.1-0.4 0-0.9v-0.2q0-0.2 0.1-0.4 0-0.2 0.1-0.4 0.2-0.2 0.3-0.4 0.2-0.2 0.4-0.3-0.3-0.3-0.5-0.8 0-0.1 0-0.2-0.1-0.1-0.1-0.2 0-0.1 0-0.2 0-0.2 0-0.3v-0.2q0.4-0.2 0.6-0.6 0.3-0.4 0.3-0.9 0.1-0.2 0-0.4 0-0.3-0.1-0.5 0-0.2-0.1-0.4-0.1-0.2-0.3-0.4v-0.2q0-0.1 0.1-0.2 0-0.1 0-0.2 0-0.1 0.1-0.2 0-0.1 0.1-0.2 0.1-0.1 0.1-0.2 0.1-0.1 0.2-0.2 0.1-0.1 0.1-0.1 0.1-0.1 0.2-0.2-0.3-0.3-0.4-0.8-0.1-0.1-0.1-0.2 0-0.1 0-0.2 0-0.1 0-0.2 0-0.2 0-0.3v-0.2q0.1 0 0.1-0.1 0.1-0.1 0.2-0.2 0.1-0.1 0.1-0.2 0.1-0.1 0.2-0.1 0.2-0.4 0.2-0.9 0.1-0.4-0.1-0.9 0-0.1 0-0.2-0.1-0.1-0.1-0.2-0.1-0.1-0.2-0.2 0-0.1-0.1-0.2v-0.2q0-0.4 0.3-0.8 0.2-0.4 0.6-0.7-0.1-0.1-0.2-0.2 0-0.1-0.1-0.2 0-0.1-0.1-0.2 0-0.1-0.1-0.2-0.1-0.4-0.1-0.9v-0.2q0-0.1 0.1-0.2 0-0.1 0-0.2 0.1-0.1 0.1-0.2 0.1-0.1 0.1-0.2 0.2-0.4 0.6-0.7-0.1-0.1-0.1-0.2-0.1-0.1-0.2-0.2 0-0.1-0.1-0.2 0-0.1-0.1-0.2 0-0.1 0-0.2 0-0.1-0.1-0.2 0-0.1 0-0.2 0-0.1 0-0.3v-0.2q0-0.1 0.1-0.2 0-0.1 0-0.2 0-0.1 0.1-0.2 0-0.1 0.1-0.2 0.2-0.4 0.6-0.7-0.3-0.3-0.5-0.8 0-0.1 0-0.2-0.1-0.1-0.1-0.2 0-0.1 0-0.2 0-0.2 0-0.3v-0.2q0-0.1 0-0.2 0.1-0.1 0.1-0.2 0-0.1 0.1-0.2 0-0.1 0.1-0.2 0-0.1 0.1-0.2 0.1-0.1 0.1-0.2 0.1-0.1 0.2-0.2 0.1-0.1 0.2-0.1-0.4-0.4-0.5-0.8-0.1-0.1-0.1-0.2 0-0.1 0-0.2 0-0.1 0-0.2 0-0.2 0-0.3v-0.2q0-0.1 0-0.2 0-0.1 0.1-0.2 0-0.1 0-0.2 0.1-0.1 0.1-0.2 0.1-0.1 0.1-0.2 0.1-0.1 0.2-0.2 0.1-0.1 0.1-0.2 0.1-0.1 0.2-0.1-0.3-0.4-0.5-0.8-0.1-0.4-0.1-0.9v-0.2q0-0.1 0-0.2 0.1-0.1 0.1-0.2 0-0.1 0.1-0.2 0-0.2 0-0.3 0.1-0.1 0.2-0.1 0-0.1 0.1-0.2 0.1-0.1 0.1-0.2 0.1-0.1 0.2-0.1-0.1-0.1-0.1-0.2-0.1-0.1-0.2-0.2 0-0.1-0.1-0.2 0-0.1-0.1-0.2 0-0.1 0-0.2-0.1-0.1-0.1-0.2 0-0.2 0-0.3 0-0.1 0-0.2v-0.2q0-0.4 0.2-0.9 0.3-0.4 0.6-0.7-0.1 0-0.1-0.1-0.1-0.1-0.2-0.2 0-0.1-0.1-0.2 0-0.1-0.1-0.2-0.1-0.4-0.1-0.9v-0.2q0-0.1 0-0.2 0-0.1 0.1-0.2 0-0.2 0-0.3 0.1-0.1 0.1-0.2 0.2-0.4 0.6-0.7-0.1-0.1-0.2-0.1 0-0.1-0.1-0.2-0.1-0.1-0.1-0.2-0.1-0.1-0.1-0.2-0.2-0.5-0.2-0.9v-0.2q0.1-0.5 0.3-0.9 0-0.1 0.1-0.2 0-0.1 0.1-0.2 0.1-0.1 0.2-0.1 0-0.1 0.1-0.2-0.3-0.3-0.5-0.7-0.2-0.5-0.2-0.9v-0.2q0.4-0.3 0.6-0.7 0.1-0.5 0.1-0.9 0-0.5-0.1-0.9-0.2-0.4-0.6-0.7v-0.2q0.1-0.5 0.2-0.9 0.2-0.4 0.6-0.7-0.1-0.1-0.2-0.2 0-0.1-0.1-0.2-0.1-0.1-0.1-0.2-0.1 0-0.1-0.2-0.2-0.4-0.2-0.8v-0.4q0.2-0.2 0.3-0.3 0.1-0.2 0.2-0.4 0.1-0.2 0.2-0.5 0-0.2 0-0.4 0-0.2 0-0.4-0.1-0.3-0.2-0.5-0.1-0.2-0.2-0.4-0.1-0.1-0.3-0.3v-0.2q0-0.1 0-0.2 0-0.1 0.1-0.2 0-0.2 0-0.3 0.1-0.1 0.1-0.2 0.2-0.4 0.5-0.7-0.3-0.3-0.5-0.7-0.2-0.4-0.2-0.9v-0.2q0.3-0.3 0.5-0.7 0-0.1 0.1-0.2 0-0.1 0-0.3 0-0.1 0.1-0.2 0-0.1 0-0.2 0-0.1 0-0.2-0.1-0.1-0.1-0.2 0-0.1 0-0.2-0.1-0.2-0.1-0.3-0.2-0.4-0.5-0.7v-0.2q0-0.1 0-0.2 0-0.1 0-0.2 0-0.2 0.1-0.3 0-0.1 0-0.2 0.2-0.4 0.5-0.7 0-0.1-0.1-0.2-0.1 0-0.2-0.1 0-0.1-0.1-0.2-0.1-0.1-0.1-0.2-0.1-0.1-0.1-0.2 0-0.1-0.1-0.2 0-0.1 0-0.3 0-0.1 0-0.2v-0.2q0.3-0.3 0.4-0.7 0.2-0.4 0.1-0.9 0-0.4-0.2-0.8-0.2-0.4-0.5-0.7v-0.3q0-0.1 0-0.2 0-0.1 0-0.2 0-0.1 0-0.2 0.1-0.1 0.1-0.2 0-0.1 0.1-0.2 0-0.1 0.1-0.2 0.1-0.1 0.1-0.2 0.1-0.1 0.2-0.2-0.1-0.1-0.2-0.1-0.1-0.1-0.2-0.2 0-0.1-0.1-0.2-0.1-0.1-0.1-0.2-0.2-0.4-0.3-0.8v-0.2q0-0.1 0-0.2 0-0.2 0-0.3 0-0.1 0.1-0.2 0-0.1 0-0.2 0.2-0.4 0.5-0.8-0.2-0.1-0.4-0.3-0.1-0.1-0.2-0.3-0.2-0.2-0.2-0.4-0.1-0.2-0.1-0.5v-0.2q-0.1-0.1-0.1-0.2 0-0.1 0.1-0.2 0-0.1 0-0.2 0-0.1 0-0.2 0.1-0.2 0.1-0.3 0.1-0.1 0.1-0.2 0.1-0.1 0.1-0.1 0.1-0.1 0.2-0.2-0.4-0.3-0.7-0.7-0.2-0.3-0.3-0.8v-0.2q-0.1-0.4 0.1-0.9 0.1-0.4 0.4-0.8-0.2-0.1-0.4-0.2-0.2-0.2-0.3-0.4-0.1-0.1-0.2-0.3-0.1-0.2-0.2-0.5v-0.2q0-0.4 0.1-0.8 0-0.5 0.3-0.8-0.1-0.1-0.2-0.2-0.1 0-0.2-0.1 0-0.1-0.1-0.1-0.1-0.1-0.2-0.2 0-0.1-0.1-0.2 0-0.1-0.1-0.2 0-0.1-0.1-0.2 0-0.1-0.1-0.2v-0.2q-0.1-0.4 0-0.9 0-0.4 0.3-0.8-0.4-0.2-0.7-0.5-0.3-0.3-0.5-0.7v-0.2q0-0.2-0.1-0.4 0-0.2 0-0.4 0-0.3 0-0.5 0.1-0.2 0.1-0.4-0.1 0-0.2-0.1-0.1 0-0.1-0.1-0.1 0-0.2-0.1-0.1-0.1-0.2-0.1-0.3-0.3-0.5-0.7v-0.2q-0.1-0.2-0.1-0.4 0-0.2 0-0.4 0-0.2 0-0.4 0-0.2 0.1-0.4-0.2-0.1-0.4-0.1-0.2-0.1-0.3-0.2-0.2-0.1-0.4-0.3-0.1-0.1-0.2-0.3v-0.2q-0.1 0-0.1-0.1-0.1-0.1-0.1-0.2-0.1-0.1-0.1-0.2 0-0.1-0.1-0.2-0.1-0.4 0-0.8-0.2 0-0.4 0-0.2-0.1-0.4-0.1-0.1-0.1-0.3-0.2-0.2-0.1-0.3-0.3l-0.2-0.1q0.1-0.4-0.1-0.8-0.2-0.4-0.5-0.7-0.1-0.1-0.2-0.2-0.1 0-0.2-0.1-0.1 0-0.2-0.1-0.1 0-0.2 0-0.4-0.1-0.9-0.1l-0.1-0.1c-0.5-0.3-0.8-0.8-0.9-1.4-0.5 0.1-1.1 0-1.6-0.3h-0.2c-0.4-0.3-0.8-0.7-0.9-1.3-0.5 0.2-1.1 0.2-1.6 0h-0.2q-0.2 0-0.4-0.1-0.1-0.1-0.3-0.3-0.1-0.1-0.2-0.3-0.2-0.1-0.3-0.3c-0.4 0.3-0.9 0.4-1.4 0.4h-0.2q-0.1 0-0.3-0.1-0.2 0-0.4-0.1-0.1-0.1-0.3-0.2-0.1-0.1-0.2-0.2-0.2 0.1-0.3 0.2-0.1 0.2-0.3 0.3-0.1 0-0.3 0.1-0.1 0.1-0.3 0.1h-0.1q-0.3-0.1-0.6-0.1-0.1 0-0.2 0-0.1 0-0.2 0 0 0-0.1 0.1-0.1 0-0.2 0-0.3 0.2-0.4 0.5-0.2 0.3-0.2 0.6l-3.3-2.7 0.2-0.3c0.8 0 1.6-0.2 2.2-0.6 0.7-0.4 1.2-0.9 1.5-1.6h0.3q0.4 0.3 0.9 0.4 0.6 0.1 1.1 0.1 0.6 0 1.1-0.3 0.4-0.2 0.9-0.5h0.2q0.6 0 1 0.3 0.4 0.4 0.7 0.8 0.1 0 0.2-0.1 0.1-0.1 0.3-0.1 0.1 0 0.2-0.1 0.1 0 0.3 0 0.5-0.1 1 0.1h0.2q0.1 0.1 0.2 0.1 0.1 0.1 0.2 0.1 0.1 0.1 0.2 0.2 0.1 0.1 0.2 0.2 0.3 0.4 0.5 0.9 0.2-0.1 0.4-0.2 0.3 0 0.5 0 0.3 0 0.5 0.1 0.3 0.1 0.5 0.2l0.2 0.1q0.4 0.3 0.6 0.7 0.1 0.1 0.2 0.2 0 0.1 0.1 0.2 0 0.1 0 0.3 0.1 0.1 0.1 0.2 0.5-0.1 0.9 0 0.5 0.1 0.9 0.4l0.2 0.1q0 0.3 0.1 0.5 0 0.2 0.1 0.4 0.1 0.2 0.3 0.4 0.1 0.2 0.3 0.4 0.2 0.1 0.4 0.2 0.2 0.1 0.4 0.2 0.3 0.1 0.5 0.1 0.2 0 0.5 0l0.1 0.2q0.4 0.3 0.6 0.8 0 0.1 0.1 0.3 0 0.1 0 0.2 0 0.2 0 0.3 0 0.1 0 0.2 0.5 0.1 1 0.3 0.1 0.1 0.2 0.1 0.1 0.1 0.2 0.2 0.1 0.1 0.2 0.2 0.1 0.1 0.1 0.2l0.2 0.2q0.2 0.4 0.3 0.9 0 0.1 0 0.2 0 0.2 0 0.3 0 0.1 0 0.2-0.1 0.2-0.1 0.3 0.2 0 0.5 0.1 0.2 0.1 0.4 0.3 0.2 0.2 0.3 0.3 0.2 0.2 0.3 0.5v0.2q0.2 0.4 0.2 0.9 0 0.5-0.2 0.9 0.4 0.2 0.8 0.6 0.3 0.3 0.5 0.8v0.2q0 0.1 0.1 0.2 0 0.1 0 0.2 0 0.1 0 0.3 0 0.1 0 0.2-0.1 0.5-0.3 0.9 0.4 0.2 0.7 0.6 0.3 0.3 0.5 0.8v0.2q0.1 0.5 0 0.9 0 0.1-0.1 0.3 0 0.1 0 0.2-0.1 0.1-0.1 0.2-0.1 0.1-0.2 0.2 0.1 0 0.2 0.1 0.1 0.1 0.2 0.2 0.1 0 0.2 0.1 0.1 0.1 0.1 0.2 0.1 0.1 0.2 0.2 0 0.1 0.1 0.2 0 0.1 0.1 0.2 0 0.1 0 0.3v0.1q0 0.2 0.1 0.3 0 0.1 0 0.2 0 0.1-0.1 0.2 0 0.2 0 0.3-0.1 0.4-0.4 0.8 0.4 0.3 0.7 0.7 0.2 0.3 0.3 0.8v0.2q0 0.1 0 0.2 0 0.2 0 0.3 0 0.1 0 0.2 0 0.1 0 0.2-0.1 0.1-0.1 0.3-0.1 0.1-0.1 0.2-0.1 0.1-0.1 0.2-0.1 0.1-0.2 0.2 0.4 0.2 0.7 0.6 0.2 0.4 0.3 0.9v0.2q-0.2 0.2-0.3 0.4-0.1 0.2-0.2 0.4-0.1 0.2-0.1 0.4 0 0.3 0 0.5 0.1 0.5 0.3 0.9 0.1 0.1 0.1 0.2 0.1 0.1 0.2 0.2 0.1 0 0.1 0.1 0.1 0.1 0.2 0.2v0.2q-0.3 0.3-0.5 0.7-0.1 0.5-0.1 1 0.1 0.4 0.3 0.8 0 0.1 0.1 0.2 0.1 0.1 0.2 0.2 0 0.1 0.1 0.2 0.1 0.1 0.2 0.1v0.2q0 0.1 0 0.2 0 0.1 0 0.2 0 0.1-0.1 0.3 0 0.1 0 0.2-0.1 0.1-0.1 0.2-0.1 0.1-0.2 0.2 0 0.1-0.1 0.2-0.1 0.1-0.1 0.1 0.1 0.2 0.3 0.4 0.1 0.1 0.2 0.4 0.2 0.2 0.2 0.4 0.1 0.2 0.1 0.4v0.2q0 0.5-0.2 0.9 0 0.2-0.1 0.3 0 0.1-0.1 0.2 0 0.1-0.1 0.1-0.1 0.1-0.2 0.2 0.4 0.3 0.6 0.7 0 0.1 0.1 0.2 0 0.1 0.1 0.2 0 0.2 0 0.3 0 0.1 0 0.2v0.2q-0.1 0.1-0.1 0.2-0.1 0.1-0.2 0.2 0 0-0.1 0.1-0.1 0.1-0.1 0.2-0.2 0.5-0.2 0.9 0 0.5 0.2 0.9 0 0.1 0.1 0.2 0.1 0.1 0.1 0.2 0.1 0.1 0.2 0.2 0 0.1 0.1 0.2v0.2q-0.1 0.1-0.1 0.1-0.1 0.1-0.2 0.2 0 0.1-0.1 0.2-0.1 0.1-0.1 0.2-0.2 0.4-0.2 0.9 0 0.5 0.2 0.9 0.2 0.4 0.5 0.7v0.2q0 0.5-0.2 0.9-0.2 0.4-0.5 0.8 0.3 0.3 0.5 0.7 0.2 0.4 0.2 0.9v0.2q0 0.5-0.2 0.9-0.2 0.4-0.5 0.7 0.3 0.3 0.5 0.7 0.2 0.5 0.2 0.9v0.2q-0.1 0.5-0.3 0.9-0.2 0.4-0.5 0.7 0.3 0.4 0.5 0.8 0.2 0.4 0.2 0.9v0.2q0 0.1-0.1 0.3 0 0.1 0 0.2 0 0.1-0.1 0.2 0 0.1-0.1 0.2-0.2 0.4-0.5 0.7 0.3 0.3 0.5 0.8 0 0.1 0.1 0.2 0 0.1 0 0.2 0 0.1 0 0.3 0 0.1 0 0.2v0.2q0 0.1 0 0.2 0 0.1 0 0.2-0.1 0.1-0.1 0.2 0 0.2-0.1 0.3-0.2 0.4-0.6 0.7 0.1 0 0.2 0.1 0.1 0.1 0.1 0.2 0.1 0.1 0.1 0.2 0.1 0.1 0.1 0.2 0.1 0.1 0.1 0.2 0 0.2 0.1 0.3 0 0.1 0 0.2 0 0.1 0 0.2v0.2q0 0.1 0 0.3-0.1 0.1-0.1 0.2 0 0.1-0.1 0.2 0 0.1-0.1 0.2 0 0.1-0.1 0.2 0 0.1-0.1 0.2-0.1 0.1-0.2 0.2 0 0-0.1 0.1 0.3 0.3 0.5 0.8 0 0.1 0 0.2 0.1 0.1 0.1 0.2 0 0.1 0 0.2 0 0.2 0 0.3v0.2q0 0.4-0.2 0.9-0.1 0.1-0.2 0.1 0 0.1-0.1 0.2-0.1 0.1-0.2 0.2 0 0.1-0.1 0.2 0.3 0.3 0.5 0.7 0 0.1 0 0.2 0.1 0.1 0.1 0.2 0 0.2 0 0.3 0 0.1 0 0.2v0.2q0 0.1 0 0.2 0 0.2-0.1 0.3 0 0.1 0 0.2-0.1 0.1-0.1 0.2-0.1 0.1-0.2 0.2 0 0.1-0.1 0.2-0.1 0-0.2 0.1 0 0.1-0.1 0.2 0.3 0.3 0.4 0.7 0.2 0.5 0.2 0.9v0.2q-0.1 0.3-0.1 0.5-0.1 0.2-0.2 0.4-0.1 0.2-0.3 0.4-0.1 0.2-0.3 0.3 0.3 0.3 0.5 0.8 0 0.1 0.1 0.2 0 0.1 0 0.2 0 0.1 0 0.3 0 0.1 0 0.2v0.2q-0.1 0.1-0.2 0.1-0.1 0.1-0.1 0.2-0.1 0.1-0.2 0.2 0 0.1-0.1 0.2 0 0.1-0.1 0.2 0 0.1-0.1 0.2 0 0.1 0 0.2 0 0.1 0 0.2-0.1 0.5 0.1 0.9 0.1 0.5 0.4 0.8v0.1q0 0.2 0 0.3 0 0.1-0.1 0.2 0 0.1 0 0.2-0.1 0.1-0.1 0.2-0.1 0.1-0.2 0.2 0 0.1-0.1 0.2-0.1 0.1-0.2 0.2 0 0-0.1 0.1 0.3 0.3 0.4 0.8 0.2 0.4 0.1 0.9v0.2q-0.3 0.3-0.6 0.7 0 0.1-0.1 0.2 0 0.1 0 0.2-0.1 0.1-0.1 0.2 0 0.1 0 0.2-0.1 0.5 0.1 0.9 0.1 0.5 0.4 0.8v0.2q0 0.1 0 0.2 0 0.2-0.1 0.3 0 0.1-0.1 0.2 0 0.1-0.1 0.2 0 0.1-0.1 0.2-0.1 0.1-0.1 0.1-0.1 0.1-0.2 0.2-0.1 0.1-0.2 0.1 0.3 0.4 0.5 0.8 0.1 0.5 0.1 0.9v0.2q0 0.2-0.1 0.3 0 0.1 0 0.2-0.1 0.1-0.1 0.2-0.1 0.1-0.1 0.2-0.1 0.1-0.1 0.2-0.1 0.1-0.2 0.2-0.1 0-0.2 0.1 0 0.1-0.1 0.2 0 0 0.1 0.1 0.1 0.1 0.1 0.2 0.1 0.1 0.1 0.2 0.1 0.1 0.1 0.2 0.2 0.5 0.1 1v0.2q-0.4 0.2-0.6 0.6-0.2 0.4-0.3 0.9 0 0.4 0.1 0.9 0 0.1 0.1 0.2 0 0.1 0.1 0.2 0 0.1 0.1 0.2 0.1 0.1 0.1 0.2v0.2q0 0.4-0.3 0.8 0 0.1-0.1 0.2-0.1 0.1-0.1 0.2-0.1 0.1-0.2 0.2-0.1 0-0.2 0.1 0.1 0.1 0.2 0.2 0 0.1 0.1 0.2 0 0.1 0.1 0.2 0 0.1 0.1 0.2 0.1 0.4 0 0.9v0.2q0 0.5-0.2 0.9-0.3 0.4-0.7 0.6 0.3 0.4 0.5 0.8 0 0.1 0 0.2 0 0.1 0.1 0.2 0 0.2 0 0.3 0 0.1 0 0.2v0.2q-0.4 0.3-0.7 0.7-0.2 0.4-0.3 0.8 0 0.3 0 0.5 0 0.2 0.1 0.4 0.1 0.2 0.2 0.4 0.1 0.3 0.2 0.4v0.2q0 0.5-0.3 0.9 0 0.1-0.1 0.2-0.1 0.1-0.2 0.1 0 0.1-0.1 0.2-0.1 0.1-0.2 0.1 0.1 0.1 0.1 0.2 0.1 0.1 0.1 0.2 0.1 0.1 0.1 0.2 0.1 0.1 0.1 0.2 0.1 0.5 0.1 0.9v0.4c-0.1 0.5-0.4 1-0.8 1.3q-0.1 0.2-0.3 0.3-0.2 0-0.4 0.1-0.1 0.1-0.3 0.1-0.2 0-0.4 0c0 0-0.2 0-0.2 0z"/><path class="f" d="m363.8 356q-0.4 0.1-0.9-0.1-0.1 0-0.2-0.1-0.1 0-0.2-0.1-0.1 0-0.2-0.1-0.1-0.1-0.2-0.1-0.1-0.1-0.2-0.2-0.1-0.1-0.1-0.2-0.1-0.1-0.1-0.2-0.1-0.1-0.2-0.2-0.1-0.4-0.1-0.9v-0.2q0-0.2 0-0.3 0-0.1 0-0.2 0-0.1 0.1-0.2 0-0.1 0-0.2 0.2-0.5 0.6-0.8-0.1 0-0.2-0.1-0.1-0.1-0.1-0.2-0.1-0.1-0.2-0.2 0-0.1-0.1-0.2 0-0.1 0-0.2-0.1-0.1-0.1-0.2 0-0.1-0.1-0.2 0-0.1 0-0.3v-0.2q0-0.4 0.2-0.9 0.1-0.1 0.1-0.2 0.1-0.1 0.2-0.2 0 0 0.1-0.1 0.1-0.1 0.2-0.2-0.4-0.3-0.6-0.7 0-0.1-0.1-0.2 0-0.1 0-0.3-0.1-0.1-0.1-0.2 0-0.1 0-0.2v-0.2q0-0.1 0-0.2 0-0.2 0.1-0.3 0-0.1 0-0.2 0.1-0.1 0.1-0.2 0-0.1 0.1-0.2 0.1-0.1 0.1-0.2 0.1-0.1 0.2-0.2 0.1-0.1 0.1-0.1 0-0.1-0.1-0.2-0.1-0.1-0.2-0.2 0-0.1-0.1-0.2 0-0.1-0.1-0.2-0.2-0.4-0.2-0.8v-0.3q0.3-0.3 0.5-0.7 0.1-0.2 0.2-0.4 0-0.2 0-0.5 0-0.2 0-0.4-0.1-0.2-0.2-0.4-0.2-0.5-0.5-0.8v-0.2q0-0.1 0-0.2 0-0.1 0.1-0.2 0-0.1 0-0.3 0.1-0.1 0.1-0.2 0.2-0.4 0.6-0.7-0.4-0.3-0.6-0.7-0.2-0.4-0.2-0.9v-0.2q0.4-0.3 0.6-0.8 0-0.2 0.1-0.4 0-0.2 0-0.4 0-0.3 0-0.5-0.1-0.2-0.1-0.4-0.2-0.4-0.6-0.8v-0.1q0-0.2 0-0.3 0.1-0.1 0.1-0.2 0-0.1 0.1-0.2 0-0.1 0-0.2 0.2-0.4 0.6-0.8-0.4-0.3-0.6-0.7-0.1-0.4-0.1-0.9v-0.2q0-0.5 0.2-0.9 0.2-0.4 0.5-0.7-0.3-0.3-0.5-0.7-0.1-0.1-0.1-0.2 0-0.2-0.1-0.3 0-0.1 0-0.2 0-0.1 0-0.2v-0.2q0.3-0.3 0.5-0.8 0.2-0.4 0.2-0.8 0-0.5-0.2-0.9-0.2-0.4-0.5-0.7v-0.2q0-0.2 0-0.3 0-0.1 0.1-0.2 0-0.1 0-0.2 0.1-0.1 0.1-0.2 0.2-0.5 0.5-0.8 0 0-0.1-0.1-0.1-0.1-0.2-0.2 0-0.1-0.1-0.2 0-0.1-0.1-0.2-0.2-0.4-0.2-0.9v-0.2q0.4-0.3 0.6-0.7 0.1-0.4 0.1-0.9 0-0.5-0.1-0.9-0.2-0.4-0.6-0.7v-0.2q0-0.5 0.2-0.9 0.1-0.1 0.1-0.2 0.1-0.1 0.2-0.2 0-0.1 0.1-0.2 0.1 0 0.2-0.1-0.4-0.3-0.5-0.8-0.2-0.4-0.2-0.8v-0.3q0-0.4 0.2-0.8 0.2-0.5 0.5-0.8 0 0-0.1-0.1-0.1-0.1-0.2-0.2 0-0.1-0.1-0.2 0-0.1-0.1-0.2-0.2-0.4-0.1-0.9v-0.2q0-0.4 0.2-0.9 0.2-0.4 0.5-0.7-0.1-0.1-0.3-0.3-0.1-0.2-0.2-0.4-0.1-0.2-0.1-0.5-0.1-0.2-0.1-0.4v-0.2q0.1-0.5 0.3-0.9 0-0.1 0.1-0.2 0-0.1 0.1-0.2 0.1-0.1 0.1-0.1 0.1-0.1 0.2-0.2-0.3-0.3-0.5-0.8-0.1-0.1-0.1-0.2 0-0.1 0-0.2-0.1-0.1-0.1-0.2 0-0.1 0-0.2v-0.2q0-0.2 0-0.3 0.1-0.1 0.1-0.2 0-0.1 0.1-0.2 0-0.1 0-0.2 0.2-0.4 0.6-0.7-0.1-0.1-0.2-0.2 0-0.1-0.1-0.2-0.1-0.1-0.1-0.2-0.1-0.1-0.1-0.2 0-0.1-0.1-0.2 0-0.1 0-0.2 0-0.1-0.1-0.2 0-0.2 0-0.3v-0.2q0-0.1 0.1-0.2 0-0.1 0-0.2 0-0.1 0.1-0.3 0-0.1 0.1-0.2 0.2-0.4 0.5-0.7-0.1 0-0.1-0.1-0.1-0.1-0.2-0.2 0-0.1-0.1-0.2 0-0.1-0.1-0.2-0.2-0.4-0.2-0.9v-0.2q0.1-0.1 0.1-0.2 0-0.2 0-0.3 0-0.1 0.1-0.2 0-0.1 0.1-0.2 0-0.1 0.1-0.2 0-0.1 0.1-0.2 0.1-0.1 0.2-0.2 0.1 0 0.1-0.1-0.1-0.2-0.3-0.4-0.1-0.1-0.2-0.4-0.1-0.2-0.1-0.4 0-0.2 0-0.5v-0.2q0.3-0.3 0.5-0.7 0.2-0.4 0.3-0.8 0-0.5-0.2-0.9-0.2-0.5-0.5-0.8v-0.2q0.4-0.3 0.6-0.7 0.2-0.4 0.2-0.9 0-0.4-0.1-0.9-0.2-0.4-0.5-0.7v-0.2q0-0.1 0-0.3 0-0.1 0-0.2 0.1-0.1 0.1-0.2 0.1-0.1 0.1-0.2 0.2-0.4 0.6-0.7-0.3-0.3-0.5-0.8-0.1-0.1-0.1-0.2 0-0.1 0-0.2-0.1-0.1-0.1-0.2 0-0.1 0-0.2v-0.2q0-0.1 0-0.3 0.1-0.1 0.1-0.2 0-0.1 0.1-0.2 0-0.1 0-0.2 0.3-0.4 0.6-0.7-0.2-0.2-0.3-0.4-0.1-0.1-0.2-0.3-0.1-0.3-0.1-0.5-0.1-0.2-0.1-0.4v-0.2q0-0.5 0.2-0.9 0.1-0.1 0.2-0.2 0-0.1 0.1-0.2 0.1-0.1 0.1-0.2 0.1 0 0.2-0.1-0.3-0.3-0.5-0.7-0.1-0.1-0.1-0.2 0-0.2-0.1-0.3 0-0.1 0-0.2 0-0.1 0-0.2v-0.2q0-0.5 0.2-0.9 0.2-0.4 0.5-0.7-0.3-0.3-0.5-0.7-0.2-0.4-0.2-0.9v-0.2q0-0.1 0-0.2 0-0.1 0-0.2 0.1-0.1 0.1-0.3 0-0.1 0.1-0.2 0.2-0.4 0.5-0.7-0.1-0.1-0.2-0.1 0-0.1-0.1-0.2-0.1-0.1-0.1-0.2-0.1-0.1-0.1-0.2-0.2-0.4-0.3-0.9v-0.2q0.1 0 0.2-0.1 0.1-0.1 0.1-0.2 0.1-0.1 0.1-0.2 0.1-0.1 0.1-0.2 0.2-0.4 0.2-0.9 0-0.4-0.2-0.8-0.1-0.1-0.2-0.2 0-0.1-0.1-0.2-0.1-0.1-0.2-0.2 0 0-0.1-0.1v-0.2q0-0.1 0-0.2 0-0.1 0-0.3 0-0.1 0-0.2 0.1-0.1 0.1-0.2 0-0.1 0.1-0.2 0-0.1 0.1-0.2 0.1-0.1 0.1-0.2 0.1-0.1 0.2-0.2-0.1 0-0.2-0.1-0.1-0.1-0.2-0.2 0 0-0.1-0.1-0.1-0.1-0.1-0.2-0.1-0.1-0.1-0.2-0.1-0.1-0.1-0.2 0-0.1-0.1-0.2 0-0.1 0-0.2v-0.2q0-0.5 0.1-0.9 0.1-0.4 0.4-0.8-0.1-0.1-0.2-0.1 0-0.1-0.1-0.2-0.1 0-0.2-0.1 0-0.1-0.1-0.2-0.1-0.1-0.1-0.2-0.1-0.1-0.1-0.2 0-0.1-0.1-0.2 0-0.1 0-0.2v-0.2q-0.1-0.5 0-0.9 0.1-0.1 0.1-0.2 0-0.1 0.1-0.2 0-0.1 0.1-0.2 0-0.1 0.1-0.2-0.1 0-0.2-0.1-0.1-0.1-0.1-0.1-0.1-0.1-0.2-0.2-0.1-0.1-0.1-0.2-0.1-0.1-0.1-0.2-0.1-0.1-0.1-0.2-0.1-0.1-0.1-0.2-0.1-0.1-0.1-0.2v-0.2q0.3-0.3 0.4-0.8 0-0.4-0.1-0.8-0.1-0.5-0.4-0.8-0.2-0.3-0.7-0.5v-0.2c-0.1-0.6-0.1-1.2 0.2-1.7q-0.2-0.1-0.4-0.2-0.1-0.1-0.3-0.3-0.1-0.1-0.3-0.3-0.1-0.2-0.2-0.4v-0.1c-0.2-0.6-0.2-1.2 0-1.7q-0.1 0-0.2-0.1-0.1 0-0.2 0-0.1-0.1-0.1-0.1-0.1-0.1-0.2-0.2-0.4-0.2-0.6-0.6v-0.2c-0.2-0.5-0.3-1-0.2-1.6q-0.4 0-0.7-0.2-0.1-0.1-0.2-0.2-0.1 0-0.2-0.1-0.1-0.1-0.1-0.1-0.1-0.1-0.2-0.2l-0.1-0.1c-0.3-0.5-0.5-1-0.4-1.6q-0.3 0-0.5 0-0.2-0.1-0.4-0.1-0.2-0.1-0.3-0.2-0.2-0.1-0.4-0.3l-0.1-0.1q-0.3-0.3-0.5-0.7-0.2-0.4-0.2-0.8c-0.5 0.1-1.1 0-1.6-0.3l-0.1-0.1q-0.4-0.3-0.6-0.6-0.1-0.1-0.1-0.2-0.1-0.1-0.1-0.2 0-0.1-0.1-0.2 0-0.1 0-0.2c-0.6 0.1-1.2 0.1-1.7-0.2h-0.1q-0.1-0.1-0.1-0.2-0.1-0.1-0.1-0.2-0.1-0.1-0.1-0.2-0.1-0.1-0.1-0.1-0.1-0.1-0.2-0.2-0.1-0.1-0.2-0.2 0 0-0.1-0.1-0.1 0-0.2-0.1-0.4-0.2-0.9-0.2-0.4 0-0.8 0.2h-0.2c-0.5-0.2-0.9-0.6-1.2-1.1-0.4 0.2-1 0.3-1.6 0.2h-0.1q-0.7-0.2-1.2-0.7-0.1 0.1-0.2 0.1-0.1 0.1-0.2 0.2-0.1 0.1-0.3 0.1-0.1 0.1-0.2 0.1v0.3l-4.2 1q0-0.2 0-0.4 0.4-0.6 0.8-1.2 0.3-0.6 0.7-1.2 0.3-0.6 0.7-1.2 0.3-0.6 0.6-1.3l0.3-0.1q0.5 0.3 1 0.5 0.6 0.1 1.2 0.1 0.5 0 1.1-0.1 0.5-0.2 1-0.5h0.2q0.5 0.1 0.9 0.5 0.4 0.3 0.6 0.8 0.1-0.1 0.2-0.2 0.1 0 0.2 0 0.2-0.1 0.3-0.1 0.1 0 0.2 0 0.5 0 1 0.1h0.2q0.1 0.5 0.5 0.8 0.3 0.4 0.7 0.6 0.5 0.2 0.9 0.2 0.2 0 0.3 0 0.1 0 0.2 0 0.1 0 0.2-0.1 0.2 0 0.3 0l0.2 0.1q0.1 0 0.2 0.1 0.1 0.1 0.2 0.2 0.1 0 0.1 0.1 0.1 0.1 0.2 0.2 0.3 0.4 0.4 0.9 0.1 0 0.2-0.1 0.1 0 0.3 0 0.1 0 0.2 0 0.1 0 0.2 0 0.5 0.1 0.9 0.4l0.2 0.1q0.4 0.3 0.7 0.7 0 0.1 0.1 0.3 0 0.1 0.1 0.2 0 0.1 0 0.2 0 0.1 0 0.3 0.5-0.1 1 0 0.5 0.2 0.9 0.5l0.1 0.2q0.4 0.3 0.6 0.8 0.1 0.4 0.1 0.9 0.5 0 1 0.3 0.4 0.2 0.7 0.6l0.2 0.1q0 0.1 0.1 0.2 0.1 0.1 0.1 0.2 0.1 0.2 0.1 0.3 0 0.1 0.1 0.2 0.1 0.5-0.1 1 0.5 0.1 1 0.3 0.1 0.1 0.1 0.2 0.1 0.1 0.2 0.2 0.1 0 0.2 0.1 0.1 0.1 0.1 0.2l0.1 0.2q0.2 0.5 0.2 1 0 0.5-0.2 0.9 0.1 0.1 0.3 0.1 0.1 0.1 0.2 0.1 0.1 0.1 0.2 0.1 0.1 0.1 0.2 0.2 0.3 0.3 0.5 0.8v0.2q-0.2 0.4-0.2 0.9 0 0.5 0.1 0.9 0.1 0.1 0.1 0.2 0.1 0.1 0.1 0.2 0.1 0.2 0.2 0.2 0 0.1 0.1 0.2 0.3 0.4 0.8 0.6v0.2q0.1 0.5 0 0.9 0 0.2 0 0.3 0 0.1-0.1 0.2 0 0.1-0.1 0.2 0 0.1-0.1 0.2 0.4 0.2 0.7 0.6 0.3 0.4 0.4 0.9v0.2q0.1 0.4 0 0.9 0 0.1 0 0.2-0.1 0.2-0.1 0.3-0.1 0.1-0.1 0.2-0.1 0.1-0.2 0.2 0.1 0 0.2 0.1 0.1 0.1 0.2 0.1 0.1 0.1 0.2 0.2 0 0.1 0.1 0.2 0.1 0.1 0.1 0.2 0.1 0.1 0.1 0.2 0.1 0.1 0.1 0.2 0 0.1 0.1 0.2v0.4q0 0.4-0.1 0.9-0.1 0.5-0.4 0.8 0.4 0.3 0.6 0.7 0.1 0.1 0.1 0.2 0.1 0.1 0.1 0.2 0 0.1 0.1 0.2 0 0.2 0 0.3v0.2q-0.1 0.1-0.2 0.1 0 0.1-0.1 0.2-0.1 0.1-0.1 0.2-0.1 0.1-0.1 0.3 0 0.1-0.1 0.2 0 0.1 0 0.2 0 0.1 0 0.2 0 0.2 0 0.3 0 0.2 0.1 0.4 0 0.3 0.2 0.5 0.1 0.2 0.2 0.3 0.2 0.2 0.4 0.4v0.2q0 0.1 0 0.2 0 0.1 0 0.2-0.1 0.2-0.1 0.3 0 0.1-0.1 0.2-0.1 0.4-0.5 0.7 0.4 0.3 0.6 0.8 0.2 0.4 0.3 0.9v0.2q-0.4 0.3-0.6 0.7-0.1 0.2-0.1 0.4-0.1 0.3-0.1 0.5 0 0.2 0.1 0.4 0 0.3 0.1 0.5 0.2 0.4 0.6 0.7v0.2q0 0.2-0.1 0.3 0 0.1 0 0.2 0 0.1-0.1 0.2 0 0.1 0 0.2-0.1 0.1-0.1 0.2-0.1 0.1-0.2 0.2 0 0.1-0.1 0.2-0.1 0.1-0.2 0.2 0.4 0.3 0.6 0.7 0 0.1 0.1 0.2 0 0.1 0 0.3 0 0.1 0 0.2 0.1 0.1 0.1 0.2v0.1q0 0.1-0.1 0.2 0 0.1 0 0.2 0 0.2-0.1 0.3 0 0.1-0.1 0.2-0.2 0.4-0.5 0.7 0.3 0.3 0.5 0.8 0.2 0.4 0.2 0.8v0.2q0 0.2 0 0.3 0 0.1-0.1 0.2 0 0.1 0 0.2-0.1 0.1-0.1 0.2-0.1 0.1-0.1 0.2-0.1 0.1-0.2 0.2-0.1 0.1-0.1 0.2-0.1 0.1-0.2 0.1 0.1 0.1 0.2 0.2 0 0.1 0.1 0.2 0.1 0.1 0.1 0.2 0.1 0.1 0.1 0.2 0.2 0.4 0.2 0.9v0.2q-0.1 0.1-0.2 0.2-0.1 0-0.2 0.1 0 0.1-0.1 0.2 0 0.1-0.1 0.2 0 0.1-0.1 0.2 0 0.1-0.1 0.2 0 0.1 0 0.3 0 0.1 0 0.2 0 0.4 0.1 0.9 0.2 0.4 0.5 0.7v0.2q0 0.5-0.2 0.9-0.2 0.4-0.6 0.7 0.1 0.1 0.2 0.2 0 0.1 0.1 0.1 0.1 0.1 0.1 0.2 0.1 0.1 0.1 0.3 0.2 0.4 0.2 0.8v0.2q-0.1 0.5-0.3 0.9 0 0.1-0.1 0.2 0 0.1-0.1 0.2-0.1 0.1-0.2 0.2 0 0-0.1 0.1 0.3 0.3 0.5 0.8 0 0.1 0.1 0.2 0 0.1 0 0.2 0 0.1 0 0.2 0 0.2 0 0.3v0.2q-0.1 0.1-0.3 0.3-0.1 0.2-0.2 0.4-0.1 0.2-0.1 0.4-0.1 0.3-0.1 0.5 0 0.4 0.2 0.9 0.1 0.1 0.1 0.2 0.1 0.1 0.1 0.2 0.1 0 0.2 0.1 0.1 0.1 0.1 0.2v0.2q0 0.1 0 0.2 0 0.1 0 0.2-0.1 0.1-0.1 0.3 0 0.1-0.1 0.2-0.2 0.4-0.5 0.7 0.1 0 0.1 0.1 0.1 0.1 0.2 0.2 0 0.1 0.1 0.2 0 0.1 0.1 0.2 0.1 0.5 0.1 0.9v0.2q0 0.5-0.2 0.9 0 0.1-0.1 0.2-0.1 0.1-0.1 0.2-0.1 0.1-0.2 0.1-0.1 0.1-0.1 0.2 0.3 0.3 0.5 0.7 0.1 0.5 0.1 0.9v0.2q-0.3 0.3-0.5 0.8-0.2 0.4-0.2 0.8 0 0.5 0.2 0.9 0.2 0.4 0.5 0.7v0.4q0 0.1 0 0.3 0 0.1 0 0.2-0.1 0.1-0.1 0.2 0 0.1-0.1 0.2 0 0.1-0.1 0.2 0 0.1-0.1 0.2-0.1 0.1-0.2 0.2 0 0-0.1 0.1 0.1 0.1 0.1 0.2 0.1 0.1 0.2 0.2 0 0 0.1 0.1 0 0.1 0.1 0.3 0.2 0.4 0.2 0.8v0.3q0 0.1 0 0.2-0.1 0.1-0.1 0.2 0 0.1 0 0.2-0.1 0.1-0.1 0.2-0.2 0.4-0.6 0.7 0.1 0.1 0.2 0.2 0.1 0.1 0.1 0.2 0.1 0.1 0.1 0.2 0.1 0.1 0.1 0.2 0.2 0.4 0.2 0.9v0.2q-0.1 0.1-0.1 0.1-0.1 0.1-0.2 0.2-0.1 0.1-0.1 0.2-0.1 0.1-0.1 0.2-0.2 0.4-0.2 0.9 0 0.4 0.2 0.9 0 0.1 0.1 0.2 0 0.1 0.1 0.1 0.1 0.1 0.2 0.2 0 0.1 0.1 0.2v0.2q-0.2 0.2-0.3 0.3-0.1 0.2-0.2 0.4-0.1 0.2-0.1 0.5-0.1 0.2-0.1 0.4 0 0.2 0.1 0.5 0 0.2 0.1 0.4 0.1 0.2 0.2 0.4 0.1 0.2 0.3 0.3v0.2q0 0.3 0 0.5-0.1 0.2-0.2 0.4-0.1 0.2-0.2 0.4-0.2 0.2-0.3 0.3 0 0.1 0.1 0.2 0.1 0.1 0.2 0.1 0 0.1 0.1 0.2 0 0.1 0.1 0.2 0.2 0.5 0.2 0.9v0.2q0 0.1 0 0.3-0.1 0.1-0.1 0.2 0 0.1 0 0.2-0.1 0.1-0.1 0.2-0.1 0.1-0.1 0.2-0.1 0.1-0.2 0.2 0 0.1-0.1 0.2-0.1 0.1-0.2 0.1 0.1 0.1 0.2 0.2 0.1 0.1 0.1 0.2 0.1 0.1 0.1 0.2 0.1 0.1 0.2 0.2 0 0.1 0 0.2 0.1 0.1 0.1 0.2 0 0.1 0 0.2 0 0.1 0 0.3v0.2q0 0.1 0 0.2 0 0.1 0 0.2 0 0.1-0.1 0.2 0 0.1-0.1 0.2-0.1 0.5-0.5 0.8 0.1 0 0.2 0.1 0.1 0.1 0.1 0.2 0.1 0.1 0.1 0.2 0.1 0.1 0.1 0.2 0.2 0.4 0.2 0.9v0.2q0 0.2 0 0.4-0.1 0.2-0.2 0.5-0.1 0.2-0.2 0.4-0.2 0.1-0.3 0.3 0.3 0.3 0.5 0.7 0.1 0.1 0.1 0.2 0 0.1 0 0.2 0.1 0.2 0.1 0.3 0 0.1 0 0.2v0.2q-0.2 0.2-0.3 0.3-0.1 0.2-0.2 0.4-0.1 0.2-0.2 0.5 0 0.2 0 0.4 0 0.5 0.2 0.9 0 0.1 0.1 0.2 0 0.1 0.1 0.2 0.1 0.1 0.1 0.2 0.1 0 0.2 0.1v0.2q-0.1 0.1-0.2 0.2 0 0.1-0.1 0.2-0.1 0.1-0.1 0.2-0.1 0.1-0.1 0.2-0.2 0.4-0.2 0.8 0 0.5 0.2 0.9 0 0.1 0.1 0.2 0 0.1 0.1 0.2 0.1 0.1 0.1 0.2 0.1 0.1 0.2 0.1v0.3q-0.2 0.1-0.3 0.3-0.1 0.2-0.2 0.4-0.1 0.2-0.2 0.4 0 0.2 0 0.5 0 0.4 0.2 0.8 0 0.1 0.1 0.2 0 0.1 0.1 0.2 0.1 0.1 0.1 0.2 0.1 0.1 0.2 0.2v0.2q-0.1 0.1-0.2 0.1 0 0.1-0.1 0.2-0.1 0.1-0.1 0.2-0.1 0.1-0.1 0.2-0.2 0.4-0.2 0.9 0 0.4 0.2 0.9 0 0.1 0.1 0.2 0 0.1 0.1 0.1 0.1 0.1 0.1 0.2 0.1 0.1 0.2 0.2v0.2q0 0.1 0 0.2 0 0.1-0.1 0.3 0 0.1 0 0.2 0 0.1-0.1 0.2-0.2 0.4-0.5 0.7 0.1 0.1 0.1 0.2 0.1 0.1 0.2 0.1 0.1 0.1 0.1 0.2 0.1 0.1 0.1 0.2 0.2 0.5 0.2 0.9v0.2q0 0.5-0.2 0.9-0.2 0.4-0.5 0.7 0.3 0.3 0.5 0.8 0.1 0.1 0.1 0.2 0.1 0.1 0.1 0.2 0 0.1 0 0.2 0 0.1 0 0.2v0.2q0 0.3 0 0.5 0 0.2-0.1 0.4-0.1 0.2-0.2 0.4-0.1 0.1-0.3 0.3c-0.4 0.4-1 0.6-1.6 0.6z"/><path class="f" d="m368.6 350.6q-0.4-0.1-0.7-0.2-0.4-0.2-0.7-0.5-0.3-0.3-0.4-0.7-0.2-0.4-0.2-0.8v-0.1q0-0.5 0.3-0.9 0.2-0.4 0.5-0.7-0.3-0.3-0.5-0.8-0.1-0.4-0.1-0.8v-0.2q0-0.1 0-0.3 0-0.1 0.1-0.2 0-0.1 0-0.2 0.1-0.1 0.1-0.2 0.2-0.4 0.6-0.7-0.1-0.1-0.2-0.2 0-0.1-0.1-0.2-0.1-0.1-0.1-0.2-0.1-0.1-0.1-0.2 0-0.1-0.1-0.2 0-0.1 0-0.2 0-0.1-0.1-0.2 0-0.1 0-0.2v-0.2q0.4-0.3 0.6-0.8 0.2-0.4 0.2-0.8 0-0.2 0-0.5-0.1-0.2-0.1-0.4-0.1-0.2-0.2-0.4-0.2-0.2-0.3-0.4v-0.2q0-0.4 0.2-0.8 0.1-0.1 0.1-0.2 0.1-0.1 0.2-0.2 0-0.1 0.1-0.2 0.1-0.1 0.2-0.1-0.4-0.4-0.5-0.8-0.2-0.4-0.2-0.9v-0.2q0.3-0.3 0.5-0.7 0.2-0.4 0.2-0.9 0-0.4-0.2-0.8-0.2-0.5-0.5-0.8v-0.2q0-0.1 0-0.2 0-0.1 0.1-0.2 0-0.2 0-0.3 0.1-0.1 0.1-0.2 0.2-0.4 0.6-0.7-0.1-0.1-0.2-0.1-0.1-0.1-0.1-0.2-0.1-0.1-0.2-0.2 0-0.1-0.1-0.2-0.1-0.4-0.1-0.9v-0.2q0-0.2 0-0.5 0.1-0.2 0.2-0.4 0.1-0.2 0.2-0.4 0.2-0.2 0.3-0.3-0.3-0.3-0.5-0.7-0.1-0.5-0.1-0.9v-0.2q0-0.5 0.2-0.9 0-0.1 0.1-0.2 0-0.1 0.1-0.2 0.1-0.1 0.1-0.2 0.1-0.1 0.2-0.1-0.1-0.1-0.1-0.2-0.1-0.1-0.2-0.2 0-0.1-0.1-0.2-0.1-0.1-0.1-0.2-0.2-0.4-0.2-0.8v-0.2q0-0.5 0.2-0.9 0.2-0.4 0.6-0.8-0.2-0.1-0.3-0.3-0.1-0.2-0.2-0.4-0.1-0.2-0.2-0.4 0-0.2 0-0.5v-0.2q0-0.1 0-0.2 0-0.1 0-0.2 0-0.1 0.1-0.2 0-0.1 0.1-0.2 0.2-0.5 0.5-0.8-0.1 0-0.1-0.1-0.1-0.1-0.2-0.2 0-0.1-0.1-0.2-0.1-0.1-0.1-0.2-0.2-0.4-0.2-0.9v-0.2q0-0.1 0-0.2 0-0.1 0-0.3 0.1-0.1 0.1-0.2 0-0.1 0.1-0.2 0-0.1 0.1-0.2 0.1-0.1 0.1-0.2 0.1-0.1 0.2-0.1 0-0.1 0.1-0.2-0.3-0.3-0.5-0.7-0.2-0.5-0.2-0.9v-0.2q0.2-0.2 0.3-0.4 0.1-0.2 0.2-0.4 0.1-0.2 0.2-0.4 0-0.2 0-0.4 0-0.3 0-0.5-0.1-0.2-0.2-0.4-0.1-0.2-0.2-0.4-0.1-0.2-0.3-0.3v-0.2q0.4-0.3 0.5-0.8 0.1-0.2 0.2-0.4 0-0.2 0-0.4 0-0.3 0-0.5-0.1-0.2-0.2-0.4-0.1-0.4-0.5-0.8v-0.2q0-0.4 0.2-0.8 0-0.1 0.1-0.2 0.1-0.1 0.1-0.2 0.1-0.1 0.2-0.2 0-0.1 0.1-0.2-0.3-0.3-0.5-0.7-0.1-0.1-0.1-0.2-0.1-0.1-0.1-0.2 0-0.1 0-0.2 0-0.1 0-0.3v-0.2q-0.1-0.4 0.1-0.9 0.2-0.4 0.6-0.7-0.2-0.1-0.4-0.3-0.1-0.2-0.2-0.4-0.1-0.2-0.2-0.4 0-0.3 0-0.5v-0.2q0-0.4 0.2-0.9 0.1-0.4 0.5-0.7-0.4-0.3-0.6-0.7 0-0.1-0.1-0.2 0-0.1-0.1-0.2 0-0.1 0-0.3 0-0.1 0-0.2v-0.2q0-0.5 0.1-0.9 0.2-0.4 0.5-0.7-0.3-0.3-0.5-0.7-0.1-0.1-0.1-0.2-0.1-0.1-0.1-0.3 0-0.1 0-0.2-0.1-0.1-0.1-0.2v-0.2q0.1-0.1 0.2-0.2 0.1-0.1 0.1-0.2 0.1-0.1 0.1-0.2 0.1-0.1 0.1-0.2 0.2-0.4 0.2-0.8 0-0.3-0.1-0.5-0.1-0.2-0.2-0.4-0.1-0.2-0.2-0.4-0.1-0.2-0.3-0.3v-0.2q0-0.1 0-0.2 0-0.1 0-0.3 0-0.1 0.1-0.2 0-0.1 0-0.2 0.1-0.1 0.1-0.2 0.1-0.1 0.1-0.2 0.1-0.1 0.2-0.2 0-0.1 0.1-0.2-0.1 0-0.1-0.1-0.1-0.1-0.2-0.2-0.1-0.1-0.1-0.2-0.1 0-0.1-0.1-0.1-0.1-0.1-0.3-0.1-0.1-0.1-0.2 0-0.1-0.1-0.2 0-0.1 0-0.2v-0.1q0-0.4 0.1-0.9 0.2-0.4 0.5-0.7-0.3-0.3-0.5-0.7-0.1-0.1-0.1-0.2-0.1-0.1-0.1-0.2 0-0.1-0.1-0.3 0-0.1 0-0.2v-0.2q0-0.1 0-0.2 0-0.1 0-0.2 0-0.1 0.1-0.3 0-0.1 0-0.2 0.2-0.4 0.5-0.7-0.3-0.3-0.6-0.7-0.2-0.4-0.2-0.9v-0.2q0-0.1 0-0.2 0-0.1 0-0.2 0-0.1 0-0.3 0.1-0.1 0.1-0.2 0.2-0.4 0.5-0.7-0.1-0.1-0.2-0.2-0.1-0.1-0.2-0.1 0-0.1-0.1-0.2-0.1-0.1-0.1-0.2-0.3-0.4-0.3-0.9v-0.2q0.1 0 0.1-0.1 0.1-0.1 0.1-0.2 0.1-0.1 0.1-0.2 0.1-0.1 0.1-0.2 0.2-0.5 0.1-0.9 0-0.5-0.3-0.9 0-0.1-0.1-0.2 0-0.1-0.1-0.1-0.1-0.1-0.2-0.2-0.1-0.1-0.1-0.1v-0.2q-0.1-0.5 0-0.9 0.2-0.5 0.5-0.8-0.4-0.3-0.6-0.7-0.3-0.4-0.3-0.8v-0.2q-0.1-0.5 0.1-0.9 0.1-0.4 0.4-0.8-0.1 0-0.2-0.1-0.1-0.1-0.2-0.2 0 0-0.1-0.1-0.1-0.1-0.2-0.2-0.2-0.4-0.3-0.9v-0.2q0-0.1 0-0.2 0-0.1 0-0.2 0-0.1 0-0.2 0.1-0.1 0.1-0.2 0.1-0.5 0.4-0.8-0.4-0.3-0.6-0.7-0.3-0.3-0.4-0.8v-0.2q0-0.1 0-0.2 0-0.1 0-0.2 0-0.1 0-0.3 0-0.1 0.1-0.2 0.1-0.4 0.4-0.8-0.1 0-0.2-0.1-0.1-0.1-0.2-0.2-0.1 0-0.2-0.1 0-0.1-0.1-0.2-0.2-0.4-0.3-0.8v-0.2q-0.1-0.5 0-0.9 0-0.1 0-0.2 0.1-0.1 0.1-0.2 0.1-0.1 0.1-0.2 0.1-0.1 0.1-0.2-0.1-0.1-0.2-0.1 0-0.1-0.1-0.2-0.1 0-0.2-0.1-0.1-0.1-0.1-0.2-0.1-0.1-0.2-0.2 0-0.1-0.1-0.2 0-0.1-0.1-0.2 0-0.1 0-0.2v-0.2q-0.1-0.4 0-0.9 0-0.1 0-0.2 0-0.1 0.1-0.2 0-0.1 0.1-0.2 0-0.1 0.1-0.2-0.2-0.1-0.4-0.2-0.2-0.2-0.3-0.3-0.1-0.2-0.3-0.4-0.1-0.2-0.1-0.4v-0.2q-0.1-0.4-0.1-0.9 0-0.1 0.1-0.2 0-0.1 0-0.2 0.1-0.1 0.1-0.2 0.1-0.1 0.1-0.2-0.2-0.1-0.4-0.2-0.1-0.2-0.3-0.3-0.1-0.2-0.3-0.4-0.1-0.2-0.1-0.4v-0.1q-0.1-0.2-0.2-0.5 0-0.2 0-0.4 0-0.2 0-0.4 0.1-0.2 0.2-0.4-0.1-0.1-0.2-0.1-0.1-0.1-0.2-0.1-0.1-0.1-0.2-0.1-0.1-0.1-0.2-0.2-0.3-0.3-0.5-0.7v-0.2q0.2-0.4 0.2-0.8 0-0.4-0.2-0.8-0.1-0.1-0.2-0.2 0-0.1-0.1-0.2-0.1-0.1-0.1-0.1-0.1-0.1-0.2-0.2-0.1 0-0.2-0.1-0.1 0-0.2-0.1-0.1 0-0.2 0-0.1-0.1-0.2-0.1v-0.1q-0.1-0.2-0.2-0.4 0-0.2-0.1-0.4 0-0.2 0-0.4 0-0.2 0.1-0.4-0.3 0-0.5-0.1-0.2-0.1-0.4-0.1-0.1-0.1-0.3-0.3-0.2-0.1-0.3-0.3l-0.2-0.1c-0.3-0.5-0.5-1-0.4-1.6q-0.5 0-0.9-0.2-0.1 0-0.2-0.1-0.1 0-0.2-0.1-0.1 0-0.1-0.1-0.1-0.1-0.2-0.2l-0.2-0.1c-0.4-0.4-0.6-0.9-0.6-1.5q-0.2 0-0.4 0-0.2 0-0.4-0.1-0.2 0-0.4-0.1-0.2-0.1-0.4-0.2l-0.2-0.2q-0.1-0.1-0.3-0.2-0.1-0.2-0.2-0.4-0.1-0.1-0.2-0.3 0-0.2-0.1-0.4-0.2 0-0.4 0-0.2 0.1-0.4 0-0.2 0-0.4-0.1-0.2 0-0.4-0.1h-0.1c-0.5-0.3-0.9-0.7-1.1-1.2-0.5 0.2-1 0.3-1.5 0.1h-0.2q-0.2 0-0.4-0.1-0.1-0.1-0.3-0.2-0.2-0.1-0.3-0.3-0.1-0.1-0.2-0.3c-0.5 0.4-1 0.5-1.5 0.5h-0.2c-0.5 0-1-0.2-1.4-0.6-0.3 0.5-0.7 0.8-1.3 0.9h-0.1c-0.5 0.1-1.1 0-1.6-0.2q0 0.2-0.1 0.3-0.1 0.2-0.3 0.3-0.1 0.2-0.3 0.3-0.1 0.1-0.3 0.2h-0.2c-0.5 0.2-1 0.3-1.6 0.1-0.1 0.6-0.4 1.1-0.8 1.4l-0.1 0.1q-0.2 0.1-0.4 0.2-0.2 0.1-0.4 0.2-0.2 0-0.4 0-0.2 0.1-0.4 0c0 0.6-0.1 1.1-0.5 1.5q-0.1 0.2-0.3 0.3-0.2 0.1-0.4 0.2-0.1 0.1-0.3 0.2-0.2 0-0.5 0.1c-0.5 0-1.1-0.1-1.5-0.5-0.5-0.3-0.7-0.9-0.8-1.4q0-0.2 0-0.4 0-0.2 0.1-0.4 0-0.2 0.1-0.4 0.1-0.2 0.2-0.4l0.2-0.2q0.4-0.4 0.9-0.6 0.5-0.2 1-0.1 0-0.5 0.2-1 0.2-0.5 0.6-0.8l0.2-0.1q0.4-0.3 0.9-0.4 0.1 0 0.3 0 0.1-0.1 0.2-0.1 0.2 0.1 0.3 0.1 0.1 0 0.2 0 0-0.1 0.1-0.2 0-0.1 0.1-0.3 0-0.1 0.1-0.2 0-0.1 0.1-0.2 0.1-0.1 0.2-0.2 0.1-0.1 0.2-0.2 0.1 0 0.2-0.1 0.1-0.1 0.2-0.1h0.2q0.1-0.1 0.2-0.1 0.1-0.1 0.3-0.1 0.1 0 0.2 0 0.1-0.1 0.3-0.1 0.5 0 1 0.3 0-0.1 0.1-0.3 0-0.1 0.1-0.2 0.1-0.1 0.2-0.2 0.1-0.1 0.2-0.2 0.4-0.3 0.9-0.4h0.2q0.5-0.1 1 0 0.2 0 0.3 0.1 0.1 0 0.2 0.1 0.1 0.1 0.2 0.1 0.1 0.1 0.2 0.2 0.3-0.4 0.8-0.7 0.1 0 0.3-0.1 0.1 0 0.2 0 0.1-0.1 0.3-0.1 0.1 0 0.2 0h0.3q0.5 0 0.9 0.3 0.5 0.3 0.8 0.7 0.1-0.1 0.2-0.2 0.1 0 0.2-0.1 0.1 0 0.3-0.1 0.1 0 0.2-0.1 0.5-0.1 1.1 0.1h0.2q0.5 0.1 0.8 0.5 0.4 0.3 0.6 0.8 0.5-0.2 1-0.2 0.5 0 1 0.2l0.9 0.2q0.1 0.1 0.2 0.1 0.1 0.1 0.2 0.2 0.1 0.1 0.1 0.2 0.1 0 0.2 0.1 0.3 0.5 0.4 0.9 0.4-0.1 0.9 0 0.2 0 0.3 0.1 0.1 0 0.2 0.1 0.1 0 0.2 0.1 0.1 0 0.2 0.1l0.2 0.1q0.2 0.2 0.4 0.4 0.1 0.2 0.2 0.4 0.1 0.2 0.2 0.4 0.1 0.3 0.1 0.5 0.5 0 0.9 0.1 0.1 0.1 0.3 0.1 0.1 0.1 0.2 0.1 0.1 0.1 0.2 0.2 0.1 0 0.2 0.1l0.1 0.2q0.4 0.3 0.5 0.8 0.1 0.1 0.1 0.2 0 0.1 0 0.2 0.1 0.1 0.1 0.3 0 0.1-0.1 0.2 0.2 0 0.3 0 0.1 0 0.2 0.1 0.1 0 0.2 0 0.2 0.1 0.3 0.1 0.4 0.2 0.7 0.6l0.2 0.1q0.3 0.4 0.4 0.9 0.1 0.5 0 1 0.5 0 1 0.3 0.4 0.2 0.6 0.7l0.2 0.1q-0.1 0.2-0.1 0.3 0 0.1 0 0.2 0 0.1 0 0.3 0 0.1 0 0.2 0 0.5 0.2 0.9 0.3 0.5 0.6 0.8 0.4 0.3 0.9 0.4v0.2q0.1 0.3 0.1 0.5 0.1 0.2 0.1 0.5 0 0.2-0.1 0.4 0 0.3-0.1 0.5 0.4 0.2 0.8 0.5 0.1 0.1 0.1 0.2 0.1 0.1 0.2 0.2 0 0.1 0.1 0.2 0 0.1 0.1 0.2v0.2q0 0.1 0 0.2 0.1 0.1 0.1 0.3 0 0.1 0 0.2 0 0.1 0 0.2 0 0.1 0 0.2-0.1 0.2-0.1 0.3 0 0.1-0.1 0.2 0 0.1-0.1 0.2 0.1 0 0.2 0.1 0.1 0.1 0.2 0.1 0.1 0.1 0.2 0.2 0.1 0.1 0.2 0.2 0.3 0.3 0.4 0.8v0.2q0.1 0.4 0.1 0.9-0.1 0.5-0.4 0.9 0.4 0.2 0.7 0.6 0.1 0.1 0.2 0.2 0 0.1 0.1 0.2 0 0.1 0.1 0.2 0 0.1 0 0.2v0.2q0.1 0.1 0.1 0.2 0 0.2 0 0.3 0 0.1 0 0.2 0 0.1-0.1 0.2 0 0.1 0 0.2 0 0.2-0.1 0.3 0 0.1-0.1 0.2 0 0.1-0.1 0.2 0.4 0.2 0.7 0.6 0.3 0.4 0.3 0.8v0.2q-0.2 0.4-0.3 0.9-0.2 0.4-0.1 0.9 0.1 0.1 0.1 0.2 0 0.1 0.1 0.2 0 0.1 0.1 0.2 0 0.1 0.1 0.2 0.3 0.4 0.7 0.6v0.3q0 0.4-0.1 0.9 0 0.1-0.1 0.2 0 0.1-0.1 0.2 0 0.1-0.1 0.2 0 0.1-0.1 0.2 0.4 0.2 0.7 0.6 0.2 0.4 0.3 0.9v0.2q-0.2 0.2-0.3 0.4-0.1 0.2-0.2 0.4 0 0.2 0 0.4 0 0.3 0 0.5 0.1 0.5 0.3 0.9 0.1 0.1 0.1 0.2 0.1 0.1 0.2 0.1 0.1 0.1 0.2 0.2 0.1 0.1 0.1 0.1v0.3q-0.3 0.3-0.4 0.8 0 0.1-0.1 0.2 0 0.1 0 0.2 0 0.1 0 0.3 0 0.1 0 0.2 0 0.1 0.1 0.2 0 0.1 0 0.2 0.1 0.1 0.1 0.2 0.1 0.2 0.1 0.3 0.1 0.1 0.1 0.1 0.1 0.1 0.2 0.2 0.1 0.1 0.2 0.2 0 0.1 0.1 0.1v0.2q0 0.1-0.1 0.2-0.1 0.1-0.1 0.2-0.1 0.1-0.1 0.2-0.1 0.1-0.1 0.2-0.2 0.4-0.1 0.9 0 0.1 0 0.2 0.1 0.1 0.1 0.3 0 0.1 0.1 0.2 0 0.1 0.1 0.2 0 0.1 0.1 0.2 0.1 0.1 0.1 0.1 0.1 0.1 0.2 0.2 0.1 0.1 0.2 0.1v0.3q0 0.4-0.1 0.9-0.2 0.4-0.5 0.7 0.1 0.1 0.2 0.2 0 0.1 0.1 0.1 0.1 0.1 0.2 0.2 0 0.1 0.1 0.2 0 0.1 0.1 0.2 0 0.1 0.1 0.2 0 0.2 0 0.3 0.1 0.1 0.1 0.2v0.2q0 0.5-0.2 0.9-0.1 0.4-0.5 0.8 0.2 0.1 0.4 0.3 0.1 0.2 0.2 0.4 0.1 0.2 0.2 0.4 0.1 0.2 0.1 0.4v0.3q0 0.4-0.1 0.9-0.2 0.4-0.5 0.7 0.1 0.1 0.1 0.2 0.1 0 0.2 0.1 0.1 0.1 0.1 0.2 0.1 0.1 0.2 0.2 0.2 0.4 0.2 0.9v0.2q0 0.1 0 0.2 0 0.1 0 0.2 0 0.2-0.1 0.3 0 0.1 0 0.2-0.2 0.4-0.5 0.8 0.1 0 0.1 0.1 0.1 0.1 0.2 0.2 0.1 0.1 0.1 0.2 0.1 0.1 0.1 0.2 0.1 0.1 0.1 0.2 0.1 0.1 0.1 0.2 0 0.1 0.1 0.2 0 0.1 0 0.2v0.2q0 0.5-0.2 0.9-0.2 0.5-0.5 0.8 0.4 0.3 0.6 0.7 0.2 0.4 0.2 0.9v0.2q0 0.5-0.2 0.9 0 0.1-0.1 0.2 0 0.1-0.1 0.2 0 0.1-0.1 0.2-0.1 0.1-0.2 0.2 0.1 0 0.2 0.1 0.1 0.1 0.2 0.2 0 0.1 0.1 0.2 0.1 0.1 0.1 0.2 0.2 0.4 0.2 0.9v0.2q-0.1 0-0.1 0.1-0.1 0.1-0.2 0.2-0.1 0.1-0.1 0.2-0.1 0.1-0.1 0.2-0.2 0.4-0.2 0.9 0 0.5 0.2 0.9 0 0.1 0.1 0.2 0 0.1 0.1 0.2 0.1 0.1 0.2 0.2 0 0 0.1 0.1v0.2q-0.1 0.1-0.1 0.2-0.1 0.1-0.2 0.2-0.1 0-0.1 0.1-0.1 0.1-0.1 0.3-0.2 0.4-0.2 0.8 0 0.5 0.2 0.9 0 0.1 0.1 0.2 0 0.1 0.1 0.2 0.1 0.1 0.2 0.2 0 0.1 0.1 0.2v0.2q-0.1 0-0.1 0.1-0.1 0.1-0.2 0.2-0.1 0.1-0.1 0.2-0.1 0.1-0.1 0.2-0.2 0.4-0.2 0.9 0 0.4 0.2 0.9 0 0.1 0.1 0.2 0 0.1 0.1 0.2 0.1 0.1 0.2 0.1 0 0.1 0.1 0.2v0.2q0 0.5-0.2 0.9-0.1 0.4-0.5 0.7 0.4 0.3 0.6 0.8 0.2 0.4 0.2 0.8v0.3q0 0.1-0.1 0.2 0 0.1 0 0.2 0 0.1 0 0.2-0.1 0.1-0.1 0.2-0.2 0.4-0.6 0.8 0.1 0 0.2 0.1 0.1 0.1 0.1 0.2 0.1 0.1 0.2 0.2 0 0.1 0.1 0.2 0 0.1 0.1 0.2 0 0.1 0 0.2 0 0.1 0.1 0.3 0 0.1 0 0.2v0.2q0 0.1-0.1 0.2 0 0.1 0 0.2 0 0.2 0 0.3-0.1 0.1-0.1 0.2-0.2 0.4-0.6 0.7 0.1 0.1 0.2 0.2 0.1 0.1 0.1 0.1 0.1 0.1 0.2 0.2 0 0.1 0.1 0.2 0 0.1 0.1 0.3 0 0.1 0 0.2 0 0.1 0.1 0.2 0 0.1 0 0.2v0.1q0 0.1-0.1 0.2 0 0.2 0 0.3 0 0.1-0.1 0.2 0 0.1 0 0.2-0.2 0.4-0.6 0.7 0.4 0.3 0.5 0.8 0.1 0.1 0.1 0.2 0.1 0.1 0.1 0.2 0 0.1 0 0.2 0 0.1 0 0.2v0.3q-0.3 0.3-0.5 0.7-0.2 0.4-0.2 0.9 0 0.1 0 0.2 0.1 0.1 0.1 0.2 0 0.1 0 0.2 0.1 0.2 0.1 0.3 0.2 0.4 0.5 0.7v0.2q-0.3 0.3-0.5 0.7-0.2 0.5-0.2 0.9 0 0.1 0 0.2 0.1 0.2 0.1 0.3 0 0.1 0 0.2 0.1 0.1 0.1 0.2 0.2 0.4 0.5 0.7v0.3q0 0.4-0.2 0.8-0.2 0.4-0.5 0.7 0.3 0.4 0.5 0.8 0.2 0.4 0.2 0.9v0.2q0 0.4-0.3 0.9-0.2 0.4-0.5 0.7 0.3 0.3 0.5 0.7 0.2 0.4 0.2 0.9v0.2q0 0.1-0.1 0.2 0 0.2 0 0.3 0 0.1-0.1 0.2 0 0.1-0.1 0.2-0.2 0.4-0.5 0.7 0.3 0.3 0.5 0.8 0.2 0.4 0.2 0.8v0.2q-0.1 0.5-0.3 0.9 0 0.1-0.1 0.2 0 0.1-0.1 0.2-0.1 0.1-0.2 0.2 0 0.1-0.1 0.1 0.3 0.4 0.5 0.8 0.2 0.4 0.1 0.9v0.2q0 0.2 0 0.4-0.1 0.3-0.2 0.5-0.1 0.2-0.3 0.3-0.1 0.2-0.3 0.4 0.4 0.3 0.5 0.7 0.2 0.5 0.2 0.9v0.2q0 0.5-0.2 0.9-0.3 0.4-0.6 0.7 0.1 0.1 0.1 0.2 0.1 0.1 0.2 0.2 0 0.1 0.1 0.2 0 0.1 0.1 0.2 0.2 0.4 0.1 0.9v0.2q0 0.4-0.2 0.8-0.2 0.5-0.6 0.7 0.1 0.1 0.2 0.2 0 0.1 0.1 0.2 0.1 0.1 0.1 0.2 0.1 0.1 0.1 0.2 0.1 0.1 0.1 0.2 0 0.1 0 0.3 0.1 0.1 0.1 0.2 0 0.1 0 0.2v0.1q-0.1 0.2-0.1 0.4-0.1 0.2-0.2 0.4 0 0.2-0.2 0.4-0.1 0.1-0.2 0.3c-0.5 0.4-1 0.6-1.5 0.6 0 0-0.7-0.2-0.7-0.2z"/><path class="f" d="m330.7 338c-0.5 0-1-0.2-1.4-0.5-0.4-0.4-0.7-0.9-0.8-1.4v-0.2q0-0.2 0-0.3 0-0.1 0.1-0.2 0-0.1 0-0.2 0-0.1 0.1-0.2 0.1-0.5 0.4-0.8-0.3-0.3-0.6-0.7-0.2-0.4-0.2-0.9v-0.2q-0.1-0.4 0.1-0.9 0-0.1 0.1-0.2 0-0.1 0.1-0.2 0-0.1 0.1-0.2 0.1-0.1 0.1-0.1-0.3-0.3-0.5-0.7-0.3-0.4-0.3-0.9v-0.2q0.3-0.3 0.5-0.8 0.1-0.4 0.1-0.9-0.1-0.4-0.3-0.8 0-0.1-0.1-0.2-0.1-0.1-0.1-0.2-0.1-0.1-0.2-0.2-0.1 0-0.2-0.1v-0.2q0-0.1 0-0.3 0.1-0.1 0.1-0.2 0-0.1 0-0.2 0-0.1 0.1-0.2 0.1-0.5 0.5-0.8-0.4-0.3-0.6-0.7-0.3-0.4-0.3-0.8v-0.3q0-0.4 0.1-0.9 0.2-0.4 0.5-0.7-0.1-0.1-0.2-0.2 0-0.1-0.1-0.1-0.1-0.1-0.1-0.2-0.1-0.1-0.2-0.2 0-0.1-0.1-0.2 0-0.1 0-0.2-0.1-0.2-0.1-0.3 0-0.1 0-0.2v-0.2q0.1-0.2 0.3-0.3 0.1-0.2 0.2-0.5 0-0.2 0.1-0.4 0-0.2 0-0.4 0-0.2 0-0.3-0.1-0.1-0.1-0.2 0-0.1-0.1-0.2 0-0.1-0.1-0.2 0-0.1-0.1-0.2 0-0.1-0.1-0.2-0.1-0.1-0.2-0.2 0 0-0.1-0.1v-0.2q-0.1-0.5 0.1-0.9 0.2-0.4 0.5-0.8-0.2-0.1-0.3-0.3-0.2-0.2-0.3-0.4-0.1-0.2-0.2-0.4 0-0.2-0.1-0.4v-0.3q0.2-0.1 0.3-0.3 0.1-0.2 0.2-0.4 0.1-0.2 0.1-0.5 0.1-0.2 0.1-0.4-0.1-0.1-0.1-0.2 0-0.2 0-0.3 0-0.1-0.1-0.2 0-0.1-0.1-0.2 0-0.1-0.1-0.2-0.1-0.1-0.1-0.2-0.1-0.1-0.2-0.1-0.1-0.1-0.2-0.2v-0.2q0-0.1 0-0.2 0.1-0.1 0.1-0.2 0-0.1 0-0.3 0.1-0.1 0.1-0.2 0.2-0.4 0.5-0.7-0.4-0.3-0.6-0.7-0.2-0.4-0.3-0.9v-0.2q0-0.1 0-0.2 0.1-0.1 0.1-0.3 0-0.1 0-0.2 0-0.1 0.1-0.2 0.2-0.4 0.5-0.8-0.4-0.3-0.6-0.7-0.2-0.4-0.2-0.8v-0.3q0.3-0.3 0.5-0.7 0.1-0.4 0.1-0.9 0-0.5-0.2-0.9-0.2-0.4-0.6-0.7v-0.2q0-0.1 0-0.2 0-0.1 0-0.2 0.1-0.1 0.1-0.3 0-0.1 0.1-0.2 0-0.1 0.1-0.2 0-0.1 0.1-0.2 0-0.1 0.1-0.2 0.1-0.1 0.2-0.1-0.4-0.3-0.6-0.7-0.1-0.2-0.1-0.3 0-0.1-0.1-0.2 0-0.1 0-0.2 0-0.1 0-0.2v-0.2q0.3-0.3 0.5-0.8 0.1-0.4 0.1-0.9 0-0.4-0.2-0.8-0.2-0.4-0.6-0.7v-0.3q0-0.4 0.2-0.9 0-0.1 0.1-0.2 0-0.1 0.1-0.2 0.1-0.1 0.1-0.1 0.1-0.1 0.2-0.2-0.4-0.3-0.6-0.7 0-0.1 0-0.2-0.1-0.1-0.1-0.2 0-0.2-0.1-0.3 0-0.1 0-0.2v-0.2q0-0.2 0.1-0.4 0-0.3 0.1-0.5 0.1-0.2 0.2-0.4 0.1-0.2 0.3-0.3-0.1-0.1-0.2-0.2 0-0.1-0.1-0.2-0.1-0.1-0.1-0.2-0.1 0-0.1-0.2-0.3-0.4-0.3-0.8v-0.2q0.4-0.3 0.6-0.8 0.1-0.2 0.1-0.4 0.1-0.2 0.1-0.5 0-0.2-0.1-0.4 0-0.2-0.1-0.4-0.2-0.5-0.6-0.8v-0.2q0-0.1 0-0.2 0.1-0.1 0.1-0.2 0-0.2 0-0.3 0.1-0.1 0.1-0.2 0.2-0.4 0.5-0.7-0.3-0.3-0.5-0.7-0.2-0.5-0.2-0.9v-0.2q0-0.1 0-0.3 0-0.1 0-0.2 0.1-0.1 0.1-0.2 0-0.1 0.1-0.2 0-0.1 0.1-0.2 0-0.1 0.1-0.2 0.1-0.1 0.2-0.2 0-0.1 0.1-0.2-0.3-0.3-0.5-0.7-0.1-0.1-0.1-0.2-0.1-0.1-0.1-0.2 0-0.1 0-0.2 0-0.2 0-0.3v-0.2q0-0.2 0-0.4 0.1-0.3 0.2-0.5 0.1-0.2 0.2-0.4 0.1-0.1 0.3-0.3-0.4-0.3-0.5-0.7-0.2-0.5-0.2-0.9v-0.2q0-0.2 0-0.3 0-0.1 0-0.2 0-0.1 0.1-0.2 0-0.1 0.1-0.2 0.2-0.4 0.5-0.7-0.3-0.4-0.5-0.8-0.1-0.1-0.1-0.2 0-0.1 0-0.2-0.1-0.1-0.1-0.3 0-0.1 0-0.2v-0.2q0-0.1 0-0.2 0-0.1 0.1-0.3 0-0.1 0-0.2 0.1-0.1 0.1-0.2 0.2-0.4 0.6-0.7-0.3-0.3-0.5-0.8-0.1-0.1-0.1-0.2 0-0.1 0-0.2-0.1-0.1-0.1-0.2 0-0.1 0-0.3v-0.2q0.1 0 0.2-0.1 0.1-0.1 0.2-0.2 0-0.1 0.1-0.2 0.1-0.1 0.1-0.2 0.2-0.4 0.2-0.9 0.1-0.4-0.1-0.9 0-0.1-0.1-0.2 0-0.1-0.1-0.2-0.1-0.1-0.1-0.2-0.1 0-0.2-0.1v-0.2q0-0.5 0.3-0.9 0-0.1 0.1-0.2 0.1-0.1 0.1-0.2 0.1-0.1 0.2-0.2 0.1-0.1 0.2-0.1-0.3-0.4-0.5-0.8 0-0.1-0.1-0.2 0-0.1 0-0.3 0-0.1 0-0.2 0-0.1 0-0.2v-0.2q0-0.3 0.1-0.5 0.1-0.2 0.2-0.4 0.1-0.2 0.3-0.4 0.1-0.2 0.3-0.3-0.3-0.4-0.4-0.8 0-0.1-0.1-0.2 0-0.2 0-0.3 0-0.1 0-0.2 0-0.1 0-0.3v-0.2q0.1-0.2 0.2-0.4 0.1-0.3 0.2-0.4 0.1-0.2 0.3-0.4 0.2-0.2 0.4-0.3-0.3-0.4-0.4-0.9 0-0.1 0-0.2 0-0.1 0-0.3 0-0.1 0-0.2 0.1-0.1 0.1-0.3v-0.2q0-0.1 0.1-0.2 0-0.1 0.1-0.2 0.1-0.1 0.1-0.2 0.1-0.1 0.2-0.2 0.1-0.1 0.2-0.2 0.1-0.1 0.2-0.2 0.1 0 0.2-0.1 0.1 0 0.2-0.1-0.2-0.4-0.2-0.9 0-0.5 0.2-0.9v-0.2q0.5-0.1 0.8-0.4 0.4-0.3 0.6-0.8 0.1-0.1 0.1-0.2 0-0.1 0.1-0.2 0-0.1 0-0.2 0-0.2 0-0.3 0-0.4-0.2-0.9l0.1-0.2q0.2-0.4 0.6-0.7 0.4-0.3 0.8-0.4-0.2-0.4-0.2-0.9 0-0.5 0.2-0.9l0.1-0.2q0.3-0.4 0.7-0.7 0.1-0.1 0.2-0.1 0.1-0.1 0.2-0.1 0.1-0.1 0.2-0.1 0.1 0 0.2-0.1 0-0.1-0.1-0.2 0-0.1 0-0.2 0-0.2 0-0.3 0-0.1 0-0.2 0.1-0.5 0.3-0.9v-0.2q0.1-0.1 0.2-0.2 0-0.1 0.1-0.1 0.1-0.1 0.2-0.2 0.1-0.1 0.2-0.1 0.1-0.1 0.2-0.2 0.1 0 0.2 0 0.2-0.1 0.3-0.1 0.1 0 0.2-0.1-0.1-0.4 0-0.9 0.1-0.5 0.4-0.9l0.1-0.2q0.1-0.1 0.2-0.1 0.1-0.1 0.2-0.2 0.1-0.1 0.2-0.1 0.1-0.1 0.2-0.2 0.5-0.2 1-0.2 0-0.1 0-0.2 0-0.2 0-0.3 0.1-0.1 0.1-0.2 0-0.2 0.1-0.3 0-0.1 0.1-0.2 0.1-0.1 0.1-0.2 0.1-0.1 0.2-0.2 0.1-0.1 0.2-0.2l0.2-0.2q0.5-0.3 1.1-0.4 0.5-0.1 1.1 0.2 0.1-0.2 0.1-0.3 0.1-0.2 0.2-0.3 0.1-0.1 0.2-0.2 0.1-0.1 0.3-0.2 0.5-0.4 1.2-0.5h0.4c0.5 0.1 0.9 0.3 1.3 0.6 0.3 0.3 0.6 0.7 0.7 1.2q0.1 0 0.3 0 0.1 0 0.3 0 0.2 0 0.3 0.1 0.2 0 0.3 0.1 0.6 0.3 1 0.8l0.2 0.4-3.9 1.8q-0.2-0.3-0.3-0.7-0.3 0-0.6 0-0.5 0-0.9-0.2-0.2 0.6-0.7 1l-0.1 0.1c-0.4 0.3-0.9 0.5-1.4 0.4q0 0.2-0.1 0.4 0 0.2 0 0.4-0.1 0.2-0.2 0.4-0.1 0.2-0.2 0.4v0.1c-0.4 0.4-0.9 0.7-1.5 0.8q0.1 0.1 0.1 0.2 0 0.1 0 0.2 0 0.1 0 0.2 0 0.2 0 0.3-0.1 0.1-0.1 0.2 0 0.1-0.1 0.2 0 0.1 0 0.2-0.1 0.1-0.1 0.2v0.1q-0.2 0.2-0.3 0.4-0.2 0.1-0.4 0.2-0.1 0.2-0.3 0.3-0.2 0-0.5 0.1 0.1 0.1 0.1 0.2 0 0.1 0 0.2 0 0.1 0 0.2 0 0.2 0 0.3 0 0.4-0.2 0.8v0.2q-0.2 0.4-0.6 0.7-0.1 0-0.2 0.1-0.1 0-0.2 0.1-0.1 0-0.2 0.1-0.1 0-0.2 0 0.1 0.1 0.1 0.2 0 0.1 0.1 0.3 0 0.1 0 0.2 0 0.1 0 0.2 0 0.1 0 0.2 0 0.1 0 0.2-0.1 0.1-0.1 0.3 0 0.1-0.1 0.2v0.1q0 0.1-0.1 0.2 0 0.1-0.1 0.2-0.1 0.1-0.2 0.2 0 0.1-0.1 0.1-0.4 0.3-0.8 0.5 0 0.1 0.1 0.2 0 0.1 0 0.2 0.1 0.1 0.1 0.2 0 0.1 0 0.2 0 0.1 0 0.2 0 0.2-0.1 0.3 0 0.1 0 0.2-0.1 0.1-0.1 0.2v0.2q-0.2 0-0.4 0.2-0.2 0.1-0.3 0.2-0.2 0.1-0.3 0.3-0.1 0.2-0.2 0.4-0.2 0.4-0.2 0.8 0.1 0.4 0.3 0.8v0.2q-0.1 0.1-0.1 0.2 0 0.1-0.1 0.2 0 0.1-0.1 0.2 0 0-0.1 0.1-0.1 0.1-0.1 0.2-0.1 0.1-0.2 0.1-0.1 0.1-0.2 0.2 0 0-0.1 0.1 0.1 0.1 0.2 0.3 0.1 0.2 0.1 0.4 0.1 0.2 0.1 0.5 0 0.2-0.1 0.4v0.2q-0.3 0.2-0.6 0.6-0.2 0.4-0.3 0.8 0 0.2 0 0.5 0 0.2 0.1 0.4 0.1 0.2 0.2 0.4 0.1 0.2 0.2 0.4v0.2q0 0.4-0.2 0.8-0.1 0.1-0.2 0.2 0 0.1-0.1 0.1-0.1 0.1-0.1 0.2-0.1 0.1-0.2 0.1 0.3 0.4 0.5 0.8 0 0.1 0 0.2 0 0.1 0.1 0.2 0 0.2 0 0.3 0 0.1 0 0.2v0.2q0 0.1-0.1 0.2 0 0.1 0 0.2 0 0.1-0.1 0.2 0 0.1-0.1 0.2-0.2 0.4-0.5 0.7 0.3 0.3 0.5 0.8 0 0.1 0 0.2 0.1 0.1 0.1 0.2 0 0.1 0 0.2 0 0.1 0 0.2v0.2q0 0.2 0 0.3 0 0.1-0.1 0.2 0 0.1 0 0.2-0.1 0.1-0.1 0.2-0.2 0.4-0.6 0.7 0.2 0.2 0.3 0.4 0.1 0.1 0.2 0.4 0.1 0.2 0.2 0.4 0 0.2 0 0.4v0.2q-0.3 0.4-0.5 0.8-0.1 0.1-0.1 0.2 0 0.1 0 0.2-0.1 0.1-0.1 0.2 0 0.1 0 0.2 0 0.1 0 0.3 0 0.1 0.1 0.2 0 0.1 0 0.2 0 0.1 0.1 0.2 0 0.1 0.1 0.2 0 0.1 0.1 0.2 0.1 0.1 0.1 0.2 0.1 0.1 0.2 0.1v0.2q-0.3 0.3-0.5 0.8-0.2 0.4-0.2 0.8 0 0.5 0.2 0.9 0.2 0.4 0.5 0.7v0.3q0 0.4-0.2 0.8-0.2 0.4-0.5 0.8 0.3 0.3 0.5 0.7 0.2 0.4 0.2 0.9v0.2q0 0.4-0.2 0.8-0.2 0.5-0.5 0.8 0.1 0 0.2 0.1 0 0.1 0.1 0.2 0.1 0.1 0.1 0.2 0.1 0.1 0.1 0.2 0.2 0.4 0.3 0.9v0.2q0 0.1-0.1 0.2 0 0.1 0 0.2 0 0.1 0 0.2-0.1 0.2-0.1 0.3-0.2 0.4-0.5 0.7 0.3 0.3 0.5 0.7 0.1 0.1 0.1 0.2 0 0.1 0.1 0.2 0 0.1 0 0.3 0 0.1 0 0.2v0.2q0 0.2 0 0.4-0.1 0.3-0.1 0.5-0.1 0.2-0.3 0.4-0.1 0.2-0.3 0.3 0.4 0.3 0.6 0.7 0 0.1 0.1 0.2 0 0.1 0 0.2 0.1 0.2 0.1 0.3 0 0.1 0 0.2v0.2q0 0.1 0 0.2 0 0.1 0 0.3 0 0.1-0.1 0.2 0 0.1 0 0.2-0.2 0.4-0.5 0.7 0 0.1 0.1 0.2 0.1 0.1 0.2 0.2 0 0 0.1 0.1 0.1 0.1 0.1 0.2 0.2 0.5 0.2 0.9v0.2q0 0.5-0.1 0.9-0.1 0.1-0.1 0.2-0.1 0.1-0.1 0.2-0.1 0.1-0.2 0.2-0.1 0.1-0.1 0.2 0.3 0.2 0.5 0.7 0.2 0.4 0.3 0.8v0.2q0 0.1 0 0.3-0.1 0.1-0.1 0.2 0 0.1 0 0.2-0.1 0.1-0.1 0.2-0.2 0.5-0.5 0.8 0.4 0.3 0.6 0.7 0.2 0.4 0.2 0.8v0.3q0 0.4-0.1 0.8-0.1 0.1-0.1 0.2-0.1 0.1-0.1 0.2-0.1 0.1-0.2 0.2 0 0.1-0.1 0.2 0.3 0.3 0.5 0.7 0.1 0.1 0.1 0.2 0.1 0.1 0.1 0.2 0 0.1 0.1 0.2 0 0.1 0 0.3v0.2q-0.1 0-0.2 0.1 0 0.1-0.1 0.2-0.1 0.1-0.1 0.2-0.1 0.1-0.1 0.2-0.2 0.4-0.1 0.9 0 0.5 0.2 0.9 0.2 0.4 0.6 0.7v0.2q0 0.4-0.2 0.9-0.2 0.4-0.5 0.7 0.1 0.1 0.2 0.2 0.1 0.1 0.1 0.1 0.1 0.1 0.2 0.2 0 0.1 0.1 0.2 0 0.1 0.1 0.2 0 0.1 0.1 0.2 0 0.2 0 0.3 0 0.1 0 0.2v0.2q0 0.1 0 0.2 0 0.1 0 0.3 0 0.1 0 0.2-0.1 0.1-0.1 0.2-0.1 0.1-0.1 0.2-0.1 0.1-0.1 0.2-0.1 0.1-0.1 0.2-0.1 0.1-0.2 0.2 0.1 0 0.2 0.1 0.1 0.1 0.1 0.2 0.1 0.1 0.2 0.2 0 0 0.1 0.1 0 0.1 0.1 0.3 0 0.1 0.1 0.2 0 0.1 0 0.2 0 0.1 0 0.2v0.2q-0.1 0.2-0.2 0.4-0.2 0.2-0.2 0.4-0.1 0.2-0.1 0.4-0.1 0.2-0.1 0.5 0.1 0.4 0.3 0.8 0 0.1 0.1 0.2 0.1 0.1 0.1 0.2 0.1 0.1 0.2 0.2 0.1 0.1 0.2 0.1v0.2q-0.1 0.1-0.2 0.2-0.1 0.1-0.1 0.2-0.1 0.1-0.1 0.2-0.1 0.1-0.1 0.2-0.2 0.4-0.1 0.9 0 0.4 0.2 0.8 0.1 0.1 0.1 0.2 0.1 0.1 0.2 0.2 0 0.1 0.1 0.2 0.1 0.1 0.2 0.1v0.3q0 0.4-0.2 0.8-0.1 0.5-0.4 0.8 0.1 0.1 0.3 0.3 0.1 0.2 0.3 0.4 0.1 0.2 0.1 0.4 0.1 0.2 0.1 0.5v0.2q-0.4 0.3-0.6 0.7-0.2 0.4-0.2 0.9-0.1 0.5 0.1 0.9 0.1 0.1 0.1 0.2 0.1 0.1 0.1 0.2 0.1 0.1 0.2 0.2 0.1 0.1 0.1 0.2v0.2q0.1 0.5-0.1 0.9-0.2 0.4-0.5 0.8 0.4 0.2 0.6 0.6 0.1 0.1 0.1 0.2 0.1 0.1 0.1 0.3 0 0.1 0.1 0.2 0 0.1 0 0.2v0.2q0 0.1 0 0.2 0 0.2 0 0.3 0 0.1-0.1 0.2 0 0.1 0 0.2-0.2 0.4-0.5 0.8 0.1 0 0.2 0.1 0 0.1 0.1 0.2 0.1 0.1 0.2 0.2 0 0.1 0.1 0.2 0 0.1 0.1 0.2 0 0.1 0.1 0.2 0 0.1 0 0.2 0 0.1 0 0.2v0.2q0.1 0.1 0.1 0.3-0.1 0.1-0.1 0.2 0 0.1 0 0.2 0 0.1-0.1 0.2-0.1 0.5-0.4 0.8 0 0.1 0.1 0.1 0.1 0.1 0.2 0.2 0.1 0.1 0.1 0.2 0.1 0.1 0.2 0.2 0.2 0.4 0.2 0.8v0.2c0.1 0.6-0.1 1.2-0.5 1.6-0.4 0.4-0.9 0.7-1.4 0.8 0 0-0.2-0.1-0.2-0.1z"/><path class="f" d="m329.5 347.5q-0.4 0-0.8-0.1-0.3-0.1-0.7-0.4-0.3-0.2-0.5-0.6-0.1-0.3-0.2-0.7v-0.2q-0.1-0.4 0-0.9 0.2-0.4 0.4-0.8 0-0.1-0.1-0.1-0.1-0.1-0.2-0.2-0.1-0.1-0.2-0.2 0-0.1-0.1-0.2-0.2-0.4-0.3-0.8v-0.2q-0.1-0.5 0.1-0.9 0.1-0.5 0.4-0.8-0.4-0.3-0.6-0.7-0.1-0.1-0.2-0.2 0-0.1 0-0.2-0.1-0.1-0.1-0.2 0-0.1-0.1-0.2v-0.2q0.3-0.4 0.5-0.8 0-0.1 0-0.2 0-0.2 0.1-0.3 0-0.1 0-0.2 0-0.1-0.1-0.2 0-0.5-0.3-0.9 0-0.1-0.1-0.2-0.1-0.1-0.2-0.1 0-0.1-0.1-0.2-0.1-0.1-0.2-0.1v-0.2q-0.1-0.5 0.1-0.9 0-0.1 0-0.2 0.1-0.2 0.1-0.3 0.1-0.1 0.2-0.1 0-0.1 0.1-0.2-0.1-0.1-0.2-0.2-0.1 0-0.1-0.1-0.1-0.1-0.2-0.2-0.1-0.1-0.1-0.2-0.3-0.4-0.3-0.8v-0.2q0-0.1 0-0.2 0-0.2 0-0.3 0-0.1 0-0.2 0-0.1 0.1-0.2 0.1-0.5 0.4-0.8-0.4-0.3-0.6-0.7-0.3-0.4-0.3-0.8v-0.2q0.3-0.4 0.4-0.8 0.1-0.1 0.1-0.2 0-0.1 0-0.3 0-0.1 0-0.2 0-0.1 0-0.2 0-0.1 0-0.2-0.1-0.1-0.1-0.3 0-0.1-0.1-0.2 0-0.1-0.1-0.2 0-0.1-0.1-0.2-0.1-0.1-0.2-0.1 0-0.1-0.1-0.2-0.1-0.1-0.2-0.1v-0.2q0-0.5 0.1-0.9 0-0.2 0.1-0.3 0-0.1 0.1-0.2 0-0.1 0.1-0.2 0.1 0 0.2-0.1-0.1-0.1-0.2-0.2-0.1 0-0.2-0.1-0.1-0.1-0.1-0.2-0.1-0.1-0.2-0.2-0.2-0.4-0.2-0.9v-0.2q-0.1-0.1-0.1-0.2 0-0.1 0-0.2 0.1-0.1 0.1-0.2 0-0.2 0-0.3 0.2-0.4 0.5-0.8-0.4-0.2-0.6-0.6-0.2-0.4-0.3-0.9v-0.2q0-0.4 0.1-0.9 0.2-0.4 0.5-0.8-0.1 0-0.2-0.1-0.1-0.1-0.2-0.2 0-0.1-0.1-0.2-0.1 0-0.1-0.1-0.3-0.4-0.3-0.9v-0.2q-0.1-0.5 0.1-0.9 0.1-0.5 0.4-0.8 0-0.1-0.1-0.1-0.1-0.1-0.2-0.2-0.1-0.1-0.1-0.2-0.1-0.1-0.2-0.2-0.2-0.4-0.2-0.8v-0.2q-0.1-0.5 0.1-0.9 0-0.1 0.1-0.2 0-0.2 0.1-0.3 0 0 0.1-0.1 0.1-0.1 0.2-0.2-0.1-0.1-0.2-0.2-0.1 0-0.2-0.1-0.1-0.1-0.1-0.2-0.1-0.1-0.1-0.2-0.3-0.4-0.3-0.9v-0.2q0.1-0.1 0.1-0.1 0.1-0.1 0.2-0.2 0-0.1 0.1-0.2 0-0.1 0-0.2 0.2-0.5 0.2-0.9-0.1-0.2-0.1-0.3 0-0.1 0-0.2-0.1-0.1-0.1-0.2 0-0.1-0.1-0.2-0.1-0.1-0.1-0.2-0.1-0.1-0.2-0.2 0-0.1-0.1-0.1-0.1-0.1-0.2-0.2v-0.2q0.1-0.1 0.2-0.2 0-0.1 0.1-0.2 0.1-0.1 0.1-0.2 0.1-0.1 0.1-0.2 0.2-0.4 0.1-0.9 0-0.4-0.2-0.8-0.2-0.5-0.6-0.7v-0.2q0-0.2 0-0.3 0-0.1 0-0.2 0-0.1 0.1-0.2 0-0.1 0-0.2 0.1-0.2 0.1-0.3 0.1-0.1 0.1-0.2 0.1 0 0.2-0.1 0.1-0.1 0.1-0.2-0.3-0.3-0.6-0.7-0.2-0.4-0.2-0.9v-0.2q0-0.1 0-0.2 0-0.1 0-0.2 0-0.2 0.1-0.3 0-0.1 0-0.2 0.2-0.4 0.5-0.7-0.1-0.1-0.1-0.2-0.1-0.1-0.2-0.2-0.1 0-0.1-0.1-0.1-0.1-0.1-0.2-0.1-0.1-0.1-0.2-0.1-0.2-0.1-0.3 0-0.1-0.1-0.2 0-0.1 0-0.2v-0.2q0-0.5 0.2-0.9 0.1-0.5 0.5-0.8-0.1-0.1-0.2-0.1-0.1-0.1-0.1-0.2-0.1-0.1-0.2-0.2 0-0.1-0.1-0.2-0.2-0.4-0.2-0.9v-0.2q0-0.1 0-0.2 0-0.1 0-0.2 0-0.2 0-0.3 0.1-0.1 0.1-0.2 0-0.1 0.1-0.2 0.1-0.1 0.1-0.2 0.1-0.1 0.2-0.2 0-0.1 0.1-0.1-0.1-0.1-0.1-0.2-0.1-0.1-0.2-0.2-0.1 0-0.1-0.1-0.1-0.1-0.1-0.2-0.1-0.1-0.1-0.3-0.1-0.1-0.1-0.2 0-0.1 0-0.2-0.1-0.1-0.1-0.2v-0.2q0-0.1 0-0.3 0-0.1 0.1-0.2 0-0.1 0-0.2 0.1-0.1 0.1-0.2 0.2-0.5 0.5-0.8-0.3-0.3-0.5-0.7-0.1-0.1-0.1-0.2-0.1-0.1-0.1-0.2 0-0.1 0-0.2-0.1-0.2-0.1-0.3v-0.2q0-0.1 0.1-0.2 0-0.1 0-0.2 0-0.1 0.1-0.3 0-0.1 0-0.2 0.2-0.4 0.6-0.7-0.4-0.3-0.6-0.7 0-0.1-0.1-0.2 0-0.2 0-0.3-0.1-0.1-0.1-0.2 0-0.1 0-0.2v-0.2q0-0.2 0-0.3 0-0.1 0.1-0.2 0-0.1 0-0.2 0.1-0.1 0.1-0.2 0.2-0.5 0.6-0.8-0.1 0-0.2-0.1-0.1-0.1-0.2-0.2 0-0.1-0.1-0.2-0.1-0.1-0.1-0.2 0-0.1-0.1-0.2 0-0.1 0-0.2-0.1-0.1-0.1-0.3 0-0.1 0-0.2v-0.2q0-0.5 0.2-0.9 0.2-0.4 0.6-0.7-0.4-0.3-0.6-0.8 0-0.1 0-0.2-0.1-0.1-0.1-0.2 0-0.1 0-0.2 0-0.1 0-0.3v-0.2q0-0.4 0.2-0.8 0.2-0.5 0.6-0.8-0.1 0-0.2-0.1-0.1-0.1-0.1-0.2-0.1-0.1-0.2-0.2 0-0.1-0.1-0.2-0.1-0.5-0.1-0.9v-0.2q0.1-0.1 0.1-0.2 0.1-0.1 0.2-0.1 0.1-0.1 0.1-0.2 0.1-0.1 0.2-0.2 0.2-0.5 0.2-0.9 0-0.1 0-0.3 0-0.1 0-0.2-0.1-0.1-0.1-0.2 0-0.1-0.1-0.2-0.1-0.5-0.5-0.8v-0.2q0.1-0.4 0.3-0.9 0.2-0.4 0.6-0.7-0.1-0.1-0.2-0.1-0.1-0.1-0.1-0.2-0.1-0.1-0.1-0.2-0.1-0.1-0.1-0.2-0.2-0.5-0.1-1v-0.2q0-0.1 0-0.2 0-0.1 0.1-0.2 0-0.1 0-0.2 0.1-0.1 0.1-0.2 0.1-0.1 0.2-0.2 0-0.1 0.1-0.2 0.1-0.1 0.2-0.2 0.1 0 0.2-0.1-0.4-0.4-0.5-0.8 0-0.1-0.1-0.2 0-0.1 0-0.3 0-0.1 0-0.2 0-0.1 0-0.2v-0.3q0.1-0.5 0.3-0.9 0.3-0.4 0.7-0.7-0.4-0.3-0.5-0.8-0.1-0.4-0.1-0.9v-0.2q0.1-0.5 0.4-0.9 0.3-0.4 0.7-0.6-0.1-0.1-0.2-0.2 0-0.1-0.1-0.2 0-0.1-0.1-0.2 0-0.1-0.1-0.2-0.1-0.5 0-1v-0.2q0-0.1 0.1-0.2 0-0.1 0.1-0.2 0-0.1 0.1-0.2 0-0.1 0.1-0.2 0.3-0.4 0.7-0.6-0.2-0.2-0.3-0.5 0-0.2-0.1-0.4 0-0.2 0-0.5 0-0.2 0-0.4v-0.2q0.1-0.1 0.1-0.3 0.1-0.1 0.1-0.2 0.1-0.1 0.1-0.2 0.1-0.1 0.2-0.2 0.3-0.3 0.7-0.5-0.2-0.4-0.3-0.9 0-0.1 0-0.3 0-0.1 0-0.2 0-0.1 0-0.2 0.1-0.1 0.1-0.3v-0.2q0.2-0.4 0.5-0.8 0.3-0.3 0.8-0.5-0.1-0.2-0.2-0.5 0-0.2 0-0.4 0-0.3 0-0.5 0.1-0.2 0.2-0.5v-0.2q0.2-0.4 0.6-0.7 0.1-0.1 0.2-0.2 0.1-0.1 0.2-0.1 0.1-0.1 0.2-0.1 0.1 0 0.3-0.1-0.2-0.4-0.1-1 0-0.1 0-0.2 0-0.1 0.1-0.2 0-0.2 0.1-0.3 0-0.1 0.1-0.2l0.1-0.2q0.2-0.2 0.4-0.4 0.1-0.1 0.4-0.3 0.2-0.1 0.5-0.1 0.2-0.1 0.5-0.1-0.1-0.5 0.1-1 0.1-0.5 0.5-0.9l0.2-0.2q0.3-0.3 0.8-0.4 0.5-0.2 0.9-0.1 0-0.5 0.3-0.9 0-0.1 0.1-0.2 0-0.1 0.1-0.2 0.1-0.1 0.2-0.2 0.1-0.1 0.1-0.2l0.2-0.1q0.1-0.1 0.2-0.1 0.1-0.1 0.2-0.1 0.1-0.1 0.3-0.1 0.1-0.1 0.2-0.1 0.5-0.1 1 0 0-0.5 0.3-0.9 0.2-0.4 0.6-0.7h0.2c0.7 0.2 1.4 0.1 2-0.2q0.2-0.1 0.4-0.2 0.2-0.2 0.3-0.4 0.2-0.1 0.3-0.4 0.2-0.2 0.2-0.4h0.2q0.5-0.2 1.1-0.1 0.5 0 0.9 0.3 0.3-0.5 0.7-0.8 0.5-0.3 1-0.4h0.2q0.2 0 0.3 0 0.1 0 0.3 0.1 0.1 0 0.2 0 0.2 0.1 0.3 0.1 0.5 0.2 0.8 0.7 0.3-0.2 0.5-0.4 0.2-0.1 0.5-0.2 0.3 0 0.6 0 0.2 0 0.5 0h0.3q0.1 0.1 0.2 0.1 0.2 0.1 0.3 0.2 0.1 0.1 0.2 0.1 0.1 0.1 0.2 0.2 0.1 0.1 0.2 0.3 0.1 0.1 0.2 0.2 0 0.1 0.1 0.3 0 0.1 0.1 0.2 0.5-0.1 1.1 0 0.2 0 0.3 0.1 0.2 0 0.3 0.1 0.1 0.1 0.2 0.2 0.2 0.1 0.3 0.2l0.2 0.3-3.3 2.7q0-0.3-0.1-0.6-0.1-0.2-0.2-0.3-0.2-0.1-0.3-0.2-0.1-0.1-0.3-0.1-0.2 0-0.3 0-0.4 0-0.7 0.2h-0.1c-0.4-0.2-0.8-0.4-1.1-0.8q-0.2 0.1-0.3 0.2-0.2 0.1-0.3 0.2-0.2 0.1-0.4 0.1-0.1 0.1-0.3 0.1h-0.2c-0.5 0-1-0.1-1.4-0.4q-0.1 0.2-0.2 0.4-0.2 0.1-0.3 0.3-0.1 0.1-0.3 0.2-0.2 0.1-0.4 0.2h-0.1q-0.2 0-0.4 0.1-0.2 0-0.4 0-0.2 0-0.4 0-0.2-0.1-0.4-0.1-0.1 0.2-0.2 0.4-0.1 0.1-0.2 0.3-0.1 0.2-0.3 0.3-0.1 0.2-0.3 0.3h-0.2q-0.1 0.1-0.3 0.2-0.2 0-0.5 0.1-0.2 0-0.4 0-0.2 0-0.4-0.1 0 0.1 0 0.2-0.1 0.1-0.1 0.2 0 0.1-0.1 0.2 0 0.1-0.1 0.2 0 0.1-0.1 0.2 0 0.1-0.1 0.2-0.1 0.1-0.1 0.2-0.1 0-0.2 0.1h-0.2q-0.3 0.3-0.7 0.4-0.5 0.1-0.9 0 0 0.5-0.2 0.9 0 0.1-0.1 0.2 0 0.1-0.1 0.2-0.1 0-0.1 0.1-0.1 0.1-0.2 0.2l-0.1 0.1c-0.4 0.4-0.9 0.6-1.4 0.6q0 0.2 0 0.4 0 0.2-0.1 0.4 0 0.2-0.1 0.4-0.1 0.1-0.2 0.3v0.2c-0.3 0.4-0.8 0.8-1.3 0.9q0.1 0.2 0.1 0.4 0.1 0.2 0.1 0.4 0 0.2-0.1 0.4 0 0.2-0.1 0.4v0.2q0 0.1-0.1 0.2 0 0.1-0.1 0.1-0.1 0.1-0.1 0.2-0.1 0.1-0.2 0.2-0.3 0.3-0.7 0.4 0.2 0.4 0.2 0.8 0 0.1 0 0.2 0 0.2 0 0.3 0 0.1 0 0.2 0 0.1-0.1 0.2v0.2q-0.1 0.4-0.4 0.7-0.3 0.3-0.7 0.5 0.2 0.4 0.3 0.8 0 0.2 0 0.3 0 0.1 0 0.2 0 0.1 0 0.2 0 0.1 0 0.2v0.2q-0.1 0.1-0.1 0.2 0 0.1-0.1 0.2 0 0.1-0.1 0.2 0 0.1-0.1 0.2-0.3 0.3-0.7 0.6 0.3 0.3 0.4 0.8 0 0.1 0 0.2 0 0.1 0 0.2 0 0.1 0 0.2 0 0.1 0 0.2v0.2q-0.1 0.5-0.3 0.8-0.3 0.4-0.7 0.7 0.1 0 0.1 0.1 0.1 0.1 0.2 0.2 0 0.1 0.1 0.2 0 0.1 0 0.2 0.1 0.5 0.1 0.9v0.2q-0.1 0.5-0.3 0.9-0.1 0.1-0.2 0.1 0 0.1-0.1 0.2-0.1 0.1-0.2 0.2-0.1 0-0.1 0.1 0 0.1 0.1 0.2 0.1 0.1 0.1 0.2 0.1 0.1 0.1 0.2 0 0.1 0.1 0.2 0.1 0.4 0.1 0.8v0.3q-0.1 0.4-0.3 0.8-0.1 0.1-0.1 0.2-0.1 0.1-0.2 0.2-0.1 0-0.1 0.1-0.1 0.1-0.2 0.2 0.3 0.3 0.4 0.7 0.2 0.4 0.2 0.9v0.2q-0.1 0.5-0.3 0.9-0.2 0.4-0.6 0.6 0.1 0.1 0.1 0.2 0.1 0.1 0.2 0.2 0 0.1 0.1 0.2 0 0.1 0.1 0.2 0 0.1 0 0.2 0.1 0.1 0.1 0.2 0 0.1 0 0.2 0 0.1 0 0.3v0.2q0 0.1 0 0.2 0 0.1-0.1 0.2 0 0.1 0 0.2-0.1 0.1-0.1 0.2-0.1 0.1-0.2 0.2 0 0.1-0.1 0.2-0.1 0.1-0.1 0.2-0.1 0-0.2 0.1 0.3 0.3 0.5 0.8 0 0.1 0.1 0.2 0 0.1 0 0.2 0 0.1 0 0.2 0 0.1 0 0.2v0.3q0 0.1 0 0.2 0 0.1 0 0.2-0.1 0.1-0.1 0.2 0 0.1-0.1 0.2-0.2 0.4-0.6 0.7 0.4 0.3 0.6 0.8 0.1 0.4 0.1 0.8v0.2q0 0.2 0 0.3 0 0.1 0 0.2-0.1 0.1-0.1 0.2 0 0.1-0.1 0.2 0 0.1-0.1 0.2-0.1 0.1-0.1 0.2-0.1 0.1-0.2 0.2-0.1 0-0.1 0.1 0.3 0.3 0.5 0.7 0.2 0.5 0.2 0.9v0.3q-0.2 0.2-0.3 0.4-0.2 0.2-0.3 0.4 0 0.2-0.1 0.4 0 0.2 0 0.4 0 0.3 0 0.5 0.1 0.2 0.1 0.4 0.1 0.2 0.3 0.4 0.1 0.2 0.3 0.3v0.2q-0.2 0.2-0.3 0.4-0.2 0.2-0.3 0.4 0 0.2-0.1 0.4 0 0.2 0 0.4 0 0.5 0.1 0.9 0.1 0.1 0.1 0.2 0.1 0.1 0.2 0.2 0 0.1 0.1 0.2 0.1 0.1 0.2 0.1v0.2q0 0.5-0.2 0.9-0.1 0.1-0.1 0.2-0.1 0.1-0.1 0.2-0.1 0.1-0.2 0.2 0 0.1-0.1 0.2 0.1 0 0.1 0.1 0.1 0.1 0.2 0.2 0.1 0.1 0.1 0.2 0.1 0.1 0.1 0.2 0.1 0.1 0.1 0.2 0.1 0.1 0.1 0.2 0 0.1 0 0.2 0 0.1 0 0.2v0.2q0.1 0.5-0.1 0.9-0.2 0.4-0.5 0.8 0.3 0.3 0.5 0.7 0.1 0.1 0.1 0.2 0.1 0.1 0.1 0.2 0 0.1 0 0.2 0.1 0.1 0.1 0.2v0.2q0 0.5-0.2 0.9 0 0.1-0.1 0.2 0 0.1-0.1 0.2-0.1 0.1-0.1 0.2-0.1 0.1-0.2 0.2 0.4 0.3 0.6 0.7 0.2 0.4 0.2 0.8v0.2q0.1 0.5-0.1 0.9-0.1 0.1-0.1 0.2-0.1 0.1-0.1 0.2-0.1 0.1-0.2 0.2 0 0.1-0.1 0.2 0.3 0.3 0.5 0.7 0.1 0.1 0.1 0.2 0.1 0.1 0.1 0.2 0 0.1 0.1 0.2 0 0.1 0 0.3v0.2q0 0.1 0 0.2 0 0.1 0 0.2-0.1 0.1-0.1 0.2 0 0.1 0 0.2-0.2 0.5-0.5 0.8 0.1 0.1 0.1 0.2 0.1 0 0.2 0.1 0.1 0.1 0.1 0.2 0.1 0.1 0.1 0.2 0.1 0.1 0.1 0.2 0.1 0.1 0.1 0.2 0 0.1 0.1 0.2 0 0.1 0 0.3v0.2q-0.3 0.3-0.5 0.7-0.1 0.5-0.1 0.9 0 0.5 0.2 0.9 0.1 0.1 0.2 0.2 0 0.1 0.1 0.1 0.1 0.1 0.1 0.2 0.1 0.1 0.2 0.2v0.2q0 0.1 0 0.2 0 0.1 0 0.2 0 0.1 0 0.2-0.1 0.2-0.1 0.3-0.1 0.1-0.1 0.2-0.1 0.1-0.1 0.2-0.1 0.1-0.1 0.2-0.1 0-0.2 0.1 0.1 0.1 0.2 0.2 0.1 0.1 0.1 0.1 0.1 0.1 0.2 0.2 0 0.1 0.1 0.2 0.1 0.1 0.1 0.2 0 0.1 0.1 0.2 0 0.1 0 0.2 0.1 0.2 0.1 0.3v0.3q0 0.1 0 0.2 0 0.1 0 0.2-0.1 0.1-0.1 0.2 0 0.1 0 0.2-0.2 0.5-0.5 0.8 0.4 0.3 0.6 0.7 0 0.1 0.1 0.2 0 0.1 0.1 0.2 0 0.1 0 0.2 0 0.1 0.1 0.3v0.2q-0.1 0.1-0.2 0.2 0 0-0.1 0.1-0.1 0.1-0.1 0.2-0.1 0.1-0.1 0.2-0.1 0.5-0.1 0.9 0.1 0.5 0.3 0.9 0 0.1 0.1 0.2 0 0.1 0.1 0.1 0.1 0.1 0.2 0.2 0.1 0.1 0.1 0.2v0.2q0.1 0.1 0.1 0.2 0 0.1-0.1 0.2 0 0.1 0 0.2 0 0.1-0.1 0.3-0.1 0.4-0.4 0.7 0.1 0.1 0.1 0.2 0.1 0 0.2 0.1 0.1 0.1 0.2 0.2 0 0.1 0.1 0.2 0.2 0.4 0.3 0.9v0.2q0 0.4-0.1 0.9-0.1 0.1-0.1 0.2-0.1 0.1-0.1 0.2-0.1 0.1-0.2 0.2 0 0.1-0.1 0.1 0.1 0.1 0.2 0.2 0.1 0.1 0.1 0.1 0.1 0.1 0.2 0.2 0.1 0.1 0.1 0.2 0.1 0.1 0.1 0.2 0.1 0.1 0.1 0.2 0 0.1 0.1 0.2 0 0.1 0 0.3v0.2q0.1 0.4-0.1 0.9-0.1 0.4-0.4 0.7 0 0.1 0.1 0.2 0.1 0.1 0.2 0.1 0.1 0.1 0.1 0.2 0.1 0.1 0.2 0.2 0 0.1 0.1 0.2 0 0.1 0.1 0.2 0 0.1 0 0.2 0 0.1 0.1 0.3v0.2q0 0.4-0.1 0.9-0.2 0.4-0.5 0.7 0.1 0.1 0.2 0.2 0.1 0 0.2 0.1 0.1 0.1 0.1 0.2 0.1 0.1 0.2 0.2 0.2 0.4 0.3 0.8v0.3q0 0.4-0.1 0.9-0.1 0.1-0.1 0.2-0.1 0.1-0.1 0.2-0.1 0.1-0.1 0.2-0.1 0-0.2 0.1 0.4 0.3 0.6 0.7 0.1 0.1 0.2 0.2 0 0.1 0 0.2 0.1 0.1 0.1 0.2 0 0.1 0.1 0.2v0.2q-0.3 0.4-0.5 0.8 0 0.1 0 0.3 0 0.1 0 0.2-0.1 0.1-0.1 0.2 0.1 0.1 0.1 0.2 0 0.5 0.3 0.9 0.2 0.4 0.6 0.6v0.2q-0.1 0.1-0.2 0.2 0 0.1-0.1 0.2 0 0.1-0.1 0.2 0 0.1 0 0.2-0.1 0.1-0.1 0.3 0 0.1 0 0.2 0 0.1 0 0.2 0 0.1 0 0.2 0.1 0.5 0.3 0.9 0.2 0.4 0.6 0.6v0.2q-0.1 0.1-0.1 0.2-0.1 0.1-0.1 0.2-0.1 0.1-0.1 0.2-0.1 0.1-0.1 0.2-0.1 0.5-0.1 0.9 0.1 0.1 0.1 0.2 0 0.1 0.1 0.3 0 0.1 0 0.2 0.1 0.1 0.2 0.2 0 0.1 0.1 0.1 0 0.1 0.1 0.2 0.1 0.1 0.2 0.2 0.1 0 0.2 0.1v0.2q0 0.5-0.1 0.9 0 0.1-0.1 0.2 0 0.1-0.1 0.2 0 0.1-0.1 0.2 0 0.1-0.1 0.2 0.4 0.3 0.6 0.6 0.1 0.1 0.1 0.2 0.1 0.1 0.1 0.2 0.1 0.2 0.1 0.3 0 0.1 0.1 0.2v0.2c0 0.5-0.1 1.1-0.4 1.5-0.4 0.5-0.9 0.8-1.4 0.9 0 0-0.5 0-0.5 0z"/><path class="f" d="m318.6 352.7c-0.5 0-1.1-0.3-1.4-0.7q-0.2-0.1-0.3-0.3-0.1-0.2-0.2-0.4-0.1-0.2-0.1-0.4 0-0.2 0-0.4v-0.2q0-0.4 0.2-0.9 0-0.1 0.1-0.2 0.1 0 0.1-0.1 0.1-0.1 0.2-0.2 0.1-0.1 0.2-0.2-0.2-0.1-0.3-0.3-0.2-0.2-0.3-0.4-0.1-0.2-0.1-0.4 0-0.3 0-0.5v-0.2q0-0.1 0-0.2 0-0.1 0.1-0.2 0-0.1 0-0.3 0.1-0.1 0.1-0.2 0.2-0.4 0.6-0.7-0.1-0.1-0.2-0.1 0-0.1-0.1-0.2-0.1-0.1-0.1-0.2-0.1-0.1-0.1-0.2-0.2-0.4-0.2-0.9v-0.2q0-0.5 0.2-0.9 0.2-0.4 0.6-0.7-0.1-0.1-0.2-0.2-0.1-0.1-0.1-0.2-0.1 0-0.1-0.1-0.1-0.1-0.1-0.2-0.2-0.5-0.2-0.9v-0.2q0-0.1 0-0.3 0-0.1 0.1-0.2 0-0.1 0-0.2 0.1-0.1 0.1-0.2 0.2-0.4 0.6-0.7-0.1-0.1-0.2-0.2-0.1-0.1-0.1-0.2-0.1-0.1-0.2-0.2 0-0.1-0.1-0.2-0.1-0.4-0.1-0.9v-0.2q0.1 0 0.1-0.1 0.1-0.1 0.2-0.2 0-0.1 0.1-0.2 0.1-0.1 0.1-0.2 0.2-0.4 0.2-0.9 0-0.1 0-0.2 0-0.1-0.1-0.2 0-0.1 0-0.2-0.1-0.1-0.1-0.2-0.2-0.5-0.5-0.8v-0.2q0-0.1 0-0.2 0-0.1 0-0.2 0.1-0.1 0.1-0.2 0-0.2 0.1-0.3 0-0.1 0.1-0.2 0.1-0.1 0.1-0.1 0.1-0.1 0.2-0.2 0.1-0.1 0.1-0.2 0-0.1-0.1-0.1-0.1-0.1-0.1-0.2-0.1-0.1-0.2-0.2 0-0.1-0.1-0.2-0.1-0.4-0.1-0.9v-0.3q0-0.5 0.2-0.9 0.2-0.4 0.5-0.7 0-0.1-0.1-0.2-0.1-0.1-0.2-0.2 0 0-0.1-0.1 0-0.1-0.1-0.3-0.2-0.4-0.1-0.8v-0.2q0-0.1 0-0.3 0-0.1 0-0.2 0-0.1 0.1-0.2 0-0.1 0.1-0.2 0-0.1 0.1-0.2 0-0.1 0.1-0.2 0.1-0.1 0.2-0.2 0-0.1 0.1-0.1-0.3-0.4-0.5-0.8-0.2-0.4-0.2-0.9v-0.2q0-0.2 0.1-0.4 0-0.2 0.1-0.4 0.1-0.2 0.3-0.4 0.1-0.2 0.3-0.4-0.1 0-0.2-0.1 0-0.1-0.1-0.2-0.1-0.1-0.1-0.2-0.1-0.1-0.1-0.2-0.2-0.4-0.2-0.9v-0.2q0-0.2 0.1-0.4 0-0.3 0.1-0.5 0.1-0.2 0.2-0.4 0.2-0.1 0.4-0.3-0.1-0.1-0.2-0.1-0.1-0.1-0.1-0.2-0.1-0.1-0.2-0.2 0-0.1-0.1-0.2-0.1-0.4-0.1-0.9v-0.2q0-0.1 0-0.2 0-0.1 0-0.3 0-0.1 0.1-0.2 0-0.1 0.1-0.2 0.2-0.4 0.5-0.7-0.3-0.3-0.5-0.7-0.2-0.5-0.2-0.9v-0.2q0-0.1 0-0.3 0-0.1 0.1-0.2 0-0.1 0-0.2 0.1-0.1 0.1-0.2 0.2-0.4 0.5-0.7-0.3-0.3-0.5-0.8-0.2-0.4-0.2-0.9v-0.2q0-0.1 0.1-0.2 0-0.1 0-0.2 0-0.1 0.1-0.2 0-0.1 0-0.2 0.2-0.5 0.6-0.8-0.1 0-0.2-0.1 0-0.1-0.1-0.2-0.1-0.1-0.1-0.2-0.1-0.1-0.1-0.2-0.2-0.4-0.2-0.9v-0.2q0.3-0.3 0.5-0.7 0.2-0.4 0.2-0.9 0-0.4-0.2-0.9-0.2-0.4-0.5-0.7v-0.2q0-0.5 0.2-0.9 0.2-0.4 0.5-0.7-0.3-0.3-0.5-0.7-0.2-0.5-0.2-0.9v-0.1q0-0.5 0.2-0.9 0.2-0.4 0.5-0.7-0.3-0.3-0.5-0.8-0.2-0.4-0.2-0.8v-0.3q0-0.4 0.2-0.8 0.2-0.5 0.5-0.8-0.3-0.3-0.5-0.7-0.2-0.4-0.2-0.9v-0.2q0-0.1 0-0.2 0-0.1 0-0.2 0.1-0.2 0.1-0.3 0-0.1 0.1-0.2 0-0.1 0.1-0.2 0-0.1 0.1-0.2 0.1-0.1 0.1-0.2 0.1 0 0.2-0.1-0.1-0.1-0.2-0.2 0-0.1-0.1-0.2-0.1 0-0.1-0.1-0.1-0.1-0.1-0.2-0.2-0.5-0.2-0.9v-0.2q0-0.5 0.2-0.9 0.1-0.4 0.5-0.7-0.1-0.1-0.2-0.2-0.1-0.1-0.1-0.2-0.1-0.1-0.2-0.2 0-0.1-0.1-0.2-0.2-0.4-0.2-0.8v-0.2q0-0.5 0.2-0.9 0.2-0.5 0.5-0.8 0 0-0.1-0.1-0.1-0.1-0.2-0.2 0-0.1-0.1-0.2 0-0.1-0.1-0.2 0-0.1-0.1-0.2 0-0.1 0-0.2-0.1-0.1-0.1-0.2 0-0.1 0-0.3v-0.2q0-0.4 0.2-0.9 0.2-0.4 0.5-0.7-0.4-0.3-0.6-0.7-0.2-0.4-0.2-0.9v-0.2q0-0.1 0-0.2 0.1-0.1 0.1-0.3 0-0.1 0-0.2 0.1-0.1 0.1-0.2 0.1-0.1 0.1-0.2 0.1-0.1 0.2-0.2 0-0.1 0.1-0.2 0.1 0 0.2-0.1-0.4-0.3-0.6-0.8 0-0.1-0.1-0.2 0-0.1 0-0.2-0.1-0.1-0.1-0.2 0-0.1 0-0.2v-0.2q0-0.5 0.2-0.9 0.1-0.1 0.1-0.2 0.1-0.1 0.2-0.2 0-0.1 0.1-0.2 0.1-0.1 0.2-0.2-0.4-0.3-0.6-0.7-0.1-0.4-0.1-0.9v-0.2q0-0.1 0-0.3 0-0.1 0-0.2 0-0.1 0.1-0.2 0-0.1 0.1-0.2 0.2-0.4 0.5-0.7 0-0.1-0.1-0.2-0.1-0.1-0.2-0.2 0-0.1-0.1-0.2 0-0.1-0.1-0.2-0.1-0.4-0.1-0.9v-0.2q0-0.1 0-0.2 0-0.1 0-0.3 0.1-0.1 0.1-0.2 0.1-0.1 0.1-0.2 0.2-0.4 0.6-0.7-0.1-0.1-0.2-0.2 0 0-0.1-0.1-0.1-0.1-0.1-0.2-0.1-0.1-0.1-0.2-0.2-0.5-0.2-0.9v-0.3q0-0.1 0.1-0.2 0-0.1 0-0.2 0.1-0.1 0.1-0.2 0.1-0.2 0.1-0.3 0.2-0.4 0.6-0.6-0.1-0.1-0.1-0.2-0.1-0.1-0.2-0.2 0-0.1-0.1-0.2 0-0.1-0.1-0.2-0.1-0.5-0.1-0.9v-0.3q0.1-0.4 0.3-0.8 0.3-0.4 0.7-0.7-0.4-0.3-0.5-0.8-0.1-0.5-0.1-0.9v-0.2q0.1-0.5 0.3-0.9 0.3-0.4 0.7-0.6-0.3-0.4-0.4-0.9-0.1-0.4 0-0.9v-0.2q0.1-0.1 0.2-0.1 0.1-0.1 0.2-0.2 0.1-0.1 0.1-0.1 0.1-0.1 0.2-0.2 0.3-0.4 0.4-0.9 0-0.1 0-0.2 0-0.1 0-0.3 0-0.1 0-0.2 0-0.1 0-0.2-0.1-0.5-0.4-0.9v-0.2q0.1-0.4 0.4-0.8 0.3-0.4 0.8-0.6-0.1-0.1-0.1-0.2-0.1-0.1-0.1-0.2-0.1-0.1-0.1-0.2 0-0.2 0-0.3-0.1-0.5 0-0.9v-0.2q0.2-0.1 0.3-0.1 0.1-0.1 0.2-0.2 0.1 0 0.2-0.1 0-0.1 0.1-0.2 0.4-0.3 0.5-0.8 0.2-0.4 0.2-0.9 0-0.5-0.2-0.9v-0.2q0.1 0 0.2-0.1 0.1 0 0.3-0.1 0.1-0.1 0.2-0.1 0.1-0.1 0.2-0.2 0.3-0.3 0.6-0.7 0.2-0.4 0.2-0.9 0-0.2 0-0.3 0-0.1 0-0.2 0-0.1 0-0.3-0.1-0.1-0.1-0.2l0.1-0.2c0.7-0.1 1.3-0.4 1.7-1 0.3-0.5 0.5-1.2 0.4-1.8l0.1-0.2q0.1-0.1 0.2-0.2 0.1 0 0.2-0.1 0.1-0.1 0.2-0.2 0.1 0 0.2-0.1 0.5-0.2 1-0.2 0-0.1 0-0.2 0-0.1 0-0.2 0-0.2 0-0.3 0.1-0.1 0.1-0.2 0.1-0.1 0.1-0.2 0.1-0.1 0.1-0.2 0.1-0.1 0.2-0.2 0.1-0.1 0.2-0.2l0.1-0.2q0.5 0.1 1 0 0.5-0.2 0.9-0.5 0.2-0.1 0.4-0.3 0.1-0.2 0.3-0.4 0.1-0.2 0.2-0.5 0-0.2 0.1-0.5l0.1-0.1q0.5 0.2 1 0.1 0.5-0.1 0.9-0.3 0.4-0.2 0.7-0.6 0.3-0.4 0.5-0.9l0.2-0.1q0.1 0 0.2-0.1 0.1 0 0.2 0 0.1 0 0.3-0.1 0.1 0 0.2 0 0.5 0 0.9 0.2 0.2-0.4 0.5-0.8 0.1-0.1 0.2-0.1 0.1-0.1 0.2-0.2 0.1-0.1 0.2-0.1 0.1-0.1 0.2-0.1h0.2q0.2-0.1 0.5-0.1 0.2-0.1 0.5 0 0.2 0 0.4 0.1 0.3 0 0.5 0.2 0.2-0.5 0.6-0.8 0.4-0.3 0.9-0.4h0.2q0.6-0.1 1.1 0 0.5 0.2 0.9 0.6 0.1-0.1 0.3-0.2 0.1-0.1 0.2-0.2 0.1-0.1 0.3-0.1 0.1-0.1 0.3-0.1 0.5-0.2 1.1 0l0.4 0.1q1.1 2.6 2.6 5 0 0 0 0.1 0 0.1 0 0.1 0 0.1 0 0.1 0 0.1 0 0.1l-4.1-1.1v-0.3q-0.2-0.4-0.5-0.6-0.3-0.2-0.7-0.2-0.3 0-0.6 0.2-0.3 0.2-0.5 0.6h-0.1q-0.4 0.1-0.8 0-0.1 0-0.2 0-0.1-0.1-0.2-0.1-0.1 0-0.2-0.1-0.1 0-0.2-0.1-0.2 0.4-0.5 0.7-0.1 0.1-0.2 0.1 0 0.1-0.1 0.2-0.1 0-0.2 0.1-0.1 0-0.2 0h-0.2q-0.1 0.1-0.2 0.1-0.1 0-0.2 0.1-0.1 0-0.2 0-0.1 0-0.2 0-0.5 0-0.9-0.2-0.1 0.2-0.2 0.4-0.1 0.2-0.2 0.4-0.2 0.1-0.3 0.3-0.2 0.1-0.4 0.2h-0.2q-0.4-0.2-0.8-0.1-0.1 0-0.2 0-0.1 0-0.2 0-0.1 0.1-0.2 0.1-0.1 0.1-0.2 0.1-0.4 0.2-0.6 0.6-0.1 0.1-0.2 0.1 0 0.1-0.1 0.2 0 0.1 0 0.2-0.1 0.1-0.1 0.2l-0.1 0.2q-0.1-0.1-0.2-0.1-0.1 0-0.2 0-0.1 0-0.3 0-0.1 0-0.2 0-0.4 0.1-0.7 0.4-0.1 0-0.2 0.1-0.1 0.1-0.1 0.1-0.1 0.1-0.2 0.2 0 0.1-0.1 0.2-0.2 0.4-0.2 0.8l-0.1 0.1q-0.4 0-0.8 0.1-0.1 0.1-0.2 0.1-0.1 0.1-0.2 0.1-0.1 0.1-0.2 0.1-0.1 0.1-0.1 0.2-0.3 0.3-0.5 0.7-0.1 0.4 0 0.8v0.2c-0.4 0.4-0.9 0.7-1.5 0.7q0.1 0.2 0.1 0.4 0 0.2-0.1 0.5 0 0.2-0.1 0.4-0.1 0.2-0.2 0.3v0.2q-0.1 0-0.2 0.1-0.1 0-0.2 0-0.1 0.1-0.2 0.1-0.1 0.1-0.1 0.1-0.4 0.3-0.6 0.7 0 0.1-0.1 0.2 0 0.1-0.1 0.2 0 0.1 0 0.2 0 0.1 0 0.2 0 0.4 0.2 0.8v0.2q-0.1 0.2-0.3 0.4-0.1 0.1-0.2 0.3-0.2 0.1-0.4 0.2-0.2 0.2-0.4 0.2c0.3 0.6 0.3 1.2 0 1.7v0.2q-0.2 0.1-0.3 0.2-0.2 0.1-0.4 0.3-0.1 0.2-0.2 0.3-0.1 0.2-0.2 0.4 0 0.2 0 0.3 0 0.1-0.1 0.2 0 0.1 0 0.2 0.1 0.1 0.1 0.2 0 0.5 0.3 0.8v0.2q0 0.1-0.1 0.2 0 0.1-0.1 0.2 0 0.1-0.1 0.2 0 0.1-0.1 0.2-0.3 0.4-0.7 0.6 0.1 0.1 0.2 0.2 0 0.1 0.1 0.2 0 0.1 0 0.2 0.1 0.1 0.1 0.2 0.1 0.4 0 0.8v0.2q0 0.3-0.1 0.5-0.1 0.2-0.2 0.3-0.1 0.2-0.3 0.4-0.2 0.1-0.3 0.2 0.2 0.4 0.4 0.8 0.1 0.5 0 0.9v0.2q0 0.1 0 0.2-0.1 0.1-0.1 0.2 0 0.1-0.1 0.2 0 0.1-0.1 0.2-0.2 0.4-0.6 0.7 0.3 0.3 0.4 0.7 0.2 0.5 0.1 0.9v0.3q-0.1 0.2-0.3 0.3-0.1 0.2-0.2 0.4-0.1 0.2-0.2 0.4 0 0.2-0.1 0.5 0 0.4 0.1 0.8 0.2 0.5 0.5 0.8v0.2q-0.4 0.3-0.6 0.7-0.2 0.4-0.2 0.8 0 0.5 0.1 0.9 0.2 0.4 0.5 0.8v0.2q0 0.1 0 0.2 0 0.1-0.1 0.2 0 0.1 0 0.2-0.1 0.1-0.1 0.2-0.2 0.4-0.6 0.7 0.2 0.2 0.3 0.4 0.1 0.1 0.2 0.4 0.1 0.2 0.2 0.4 0 0.2 0 0.4v0.2q0 0.1 0 0.3 0 0.1-0.1 0.2 0 0.1 0 0.2-0.1 0.1-0.1 0.2-0.2 0.4-0.6 0.7 0.1 0.1 0.2 0.2 0.1 0.1 0.1 0.2 0.1 0 0.2 0.1 0 0.1 0.1 0.2 0.1 0.5 0.1 0.9v0.2q0 0.2 0 0.5-0.1 0.2-0.1 0.4-0.1 0.2-0.3 0.4-0.1 0.2-0.3 0.3 0.4 0.3 0.6 0.7 0 0.1 0 0.3 0.1 0.1 0.1 0.2 0 0.1 0.1 0.2 0 0.1 0 0.2v0.2q0 0.2-0.1 0.5 0 0.2-0.1 0.4-0.1 0.2-0.2 0.4-0.2 0.2-0.3 0.3 0.3 0.3 0.5 0.7 0.2 0.5 0.2 0.9v0.2q0 0.5-0.2 0.9 0 0.1-0.1 0.2 0 0.1-0.1 0.2-0.1 0.1-0.2 0.2 0 0.1-0.1 0.2 0.3 0.3 0.5 0.7 0.2 0.4 0.3 0.9v0.2q0 0.1-0.1 0.2 0 0.1 0 0.2 0 0.1-0.1 0.2 0 0.2 0 0.3-0.1 0.1-0.1 0.2-0.1 0.1-0.2 0.2 0 0-0.1 0.1-0.1 0.1-0.2 0.2 0.4 0.3 0.6 0.7 0.2 0.4 0.2 0.9v0.2q0 0.1 0 0.2 0 0.2-0.1 0.3 0 0.1 0 0.2-0.1 0.1-0.1 0.2-0.1 0.1-0.1 0.2-0.1 0.1-0.1 0.2-0.1 0.1-0.2 0.2-0.1 0.1-0.1 0.1 0.3 0.3 0.5 0.8 0.1 0.1 0.1 0.2 0 0.1 0.1 0.2 0 0.1 0 0.2 0 0.1 0 0.2v0.4q-0.1 0-0.2 0.1 0 0.1-0.1 0.2-0.1 0.1-0.1 0.2-0.1 0.1-0.1 0.2-0.1 0.2-0.2 0.4 0 0.3 0 0.5 0 0.2 0 0.5 0.1 0.2 0.2 0.4 0 0.1 0.1 0.2 0 0.1 0.1 0.2 0.1 0.1 0.1 0.2 0.1 0 0.2 0.1v0.2q-0.3 0.3-0.5 0.8-0.2 0.4-0.2 0.8 0 0.5 0.2 0.9 0.2 0.4 0.5 0.7v0.3q0 0.4-0.2 0.8-0.2 0.5-0.5 0.8 0.1 0 0.1 0.1 0.1 0.1 0.2 0.2 0 0.1 0.1 0.2 0.1 0.1 0.1 0.2 0.1 0.1 0.1 0.2 0 0.1 0.1 0.2 0 0.2 0 0.3 0 0.1 0 0.2v0.2q0 0.1 0 0.2 0 0.1 0 0.2-0.1 0.2-0.1 0.3 0 0.1-0.1 0.2 0 0.1-0.1 0.2-0.1 0.1-0.1 0.2-0.1 0.1-0.2 0.2 0 0-0.1 0.1 0.3 0.3 0.5 0.7 0.2 0.5 0.2 0.9v0.2q0 0.5-0.2 0.9-0.2 0.4-0.6 0.7 0.1 0.1 0.2 0.2 0.1 0.1 0.1 0.2 0.1 0.1 0.2 0.2 0 0.1 0.1 0.2 0 0.1 0 0.2 0.1 0.1 0.1 0.2 0 0.1 0 0.2 0.1 0.2 0.1 0.3v0.2q-0.1 0.4-0.2 0.8-0.2 0.5-0.6 0.8 0.3 0.3 0.5 0.7 0.2 0.4 0.2 0.9v0.2q-0.1 0.1-0.1 0.2-0.1 0.1-0.2 0.2-0.1 0-0.1 0.1-0.1 0.1-0.1 0.2-0.2 0.5-0.2 0.9 0 0.3 0.1 0.5 0 0.2 0.1 0.4 0.1 0.2 0.2 0.4 0.1 0.2 0.3 0.3v0.2q-0.2 0.2-0.3 0.4-0.1 0.2-0.2 0.4-0.1 0.2-0.1 0.4-0.1 0.2-0.1 0.5 0 0.2 0.1 0.4 0 0.2 0.1 0.4 0.1 0.2 0.2 0.4 0.1 0.2 0.3 0.4v0.2q0 0.5-0.2 0.9-0.2 0.4-0.6 0.7 0.1 0.1 0.2 0.2 0.1 0 0.1 0.1 0.1 0.1 0.2 0.2 0 0.1 0.1 0.2 0.1 0.5 0.1 0.9 0 0.1 0 0.2 0 0.2 0 0.3 0 0.1-0.1 0.2 0 0.1-0.1 0.2-0.2 0.4-0.5 0.7 0.3 0.3 0.5 0.8 0.2 0.4 0.2 0.8v0.3q0 0.4-0.2 0.8-0.1 0.1-0.2 0.2 0 0.1-0.1 0.2-0.1 0.1-0.1 0.2-0.1 0.1-0.2 0.1 0.3 0.4 0.5 0.8 0.1 0.1 0.1 0.2 0 0.1 0.1 0.2 0 0.1 0 0.3 0 0.1 0 0.2v0.2q0 0.1 0 0.2 0 0.1-0.1 0.2 0 0.2 0 0.3-0.1 0.1-0.1 0.2-0.1 0.1-0.1 0.2-0.1 0.1-0.2 0.2 0 0.1-0.1 0.1-0.1 0.1-0.2 0.2 0.4 0.3 0.5 0.7 0.1 0.1 0.1 0.2 0.1 0.2 0.1 0.3 0 0.1 0 0.2 0 0.1 0 0.2v0.2q-0.3 0.3-0.5 0.7-0.1 0.3-0.1 0.5-0.1 0.2-0.1 0.4 0 0.3 0.1 0.5 0 0.2 0.1 0.4 0 0.1 0.1 0.2 0.1 0.1 0.1 0.2 0.1 0.1 0.2 0.2 0 0.1 0.1 0.1v0.3q0 0.4-0.2 0.8-0.1 0.1-0.1 0.2-0.1 0.1-0.1 0.2-0.1 0.1-0.2 0.2-0.1 0.1-0.2 0.1 0.1 0.1 0.2 0.2 0.1 0.1 0.1 0.2 0.1 0.1 0.2 0.2 0 0.1 0 0.2 0.2 0.4 0.2 0.9v0.2q0 0.1 0 0.2 0 0.1 0 0.2-0.1 0.1-0.1 0.3-0.1 0.1-0.1 0.2-0.2 0.4-0.6 0.7 0.4 0.3 0.5 0.7 0.1 0.1 0.1 0.2 0 0.1 0.1 0.3 0 0.1 0 0.2 0 0.1 0 0.2v0.2q-0.3 0.3-0.5 0.7-0.1 0.1-0.1 0.2-0.1 0.2-0.1 0.3 0 0.1 0 0.2-0.1 0.1-0.1 0.2 0 0.1 0 0.2 0 0.2 0.1 0.3 0 0.1 0 0.2 0 0.1 0.1 0.2 0.1 0.4 0.5 0.8v0.3q-0.1 0-0.2 0.1-0.1 0.1-0.1 0.2-0.1 0.1-0.2 0.2 0 0.1-0.1 0.2-0.2 0.4-0.2 0.8 0 0.5 0.1 0.9 0.2 0.5 0.5 0.8v0.2c0 0.6-0.3 1.1-0.7 1.5q-0.2 0.1-0.3 0.2-0.2 0.1-0.4 0.2-0.2 0.1-0.4 0.1-0.3 0-0.5 0z"/><path class="f" d="m313.1 347c-0.6-0.1-1.1-0.3-1.5-0.7-0.4-0.4-0.6-0.9-0.6-1.4v-0.2q0-0.4 0.2-0.8 0.1-0.5 0.5-0.8-0.1-0.1-0.2-0.2-0.1 0-0.1-0.1-0.1-0.1-0.2-0.2 0-0.1-0.1-0.2-0.2-0.4-0.2-0.9v-0.2q0-0.5 0.2-0.9 0.2-0.4 0.5-0.7-0.3-0.4-0.5-0.8-0.2-0.4-0.2-0.8v-0.3q0-0.4 0.2-0.9 0.2-0.4 0.5-0.7-0.4-0.3-0.6-0.7-0.1-0.4-0.1-0.9v-0.2q-0.1-0.5 0.1-0.9 0.1-0.1 0.1-0.2 0.1-0.1 0.2-0.2 0-0.1 0.1-0.2 0.1 0 0.2-0.1-0.2-0.2-0.3-0.4-0.2-0.1-0.3-0.3-0.1-0.3-0.1-0.5-0.1-0.2-0.1-0.4v-0.2q0-0.2 0-0.3 0.1-0.1 0.1-0.2 0-0.1 0-0.2 0.1-0.1 0.1-0.2 0.1-0.1 0.1-0.2 0.1-0.1 0.2-0.2 0-0.1 0.1-0.2 0.1-0.1 0.2-0.2-0.4-0.3-0.6-0.7-0.2-0.4-0.2-0.9v-0.2q0-0.5 0.2-0.9 0.2-0.4 0.6-0.7-0.1-0.1-0.2-0.2-0.1-0.1-0.1-0.1-0.1-0.1-0.1-0.2-0.1-0.1-0.2-0.2 0-0.1 0-0.3-0.1-0.1-0.1-0.2 0-0.1 0-0.2 0-0.1 0-0.2v-0.3q0-0.4 0.2-0.8 0.2-0.5 0.5-0.8-0.1 0-0.2-0.1 0-0.1-0.1-0.2-0.1-0.1-0.1-0.2-0.1-0.1-0.1-0.2-0.2-0.4-0.2-0.9v-0.2q0-0.4 0.2-0.9 0-0.1 0.1-0.2 0.1-0.1 0.1-0.2 0.1 0 0.2-0.1 0.1-0.1 0.1-0.2-0.3-0.3-0.5-0.7-0.2-0.4-0.2-0.9v-0.2q0.4-0.3 0.6-0.8 0-0.1 0-0.2 0.1-0.1 0.1-0.2 0-0.1 0-0.2 0.1-0.1 0.1-0.2 0-0.5-0.2-0.9-0.2-0.4-0.6-0.8v-0.2q0-0.4 0.3-0.8 0-0.2 0.1-0.2 0-0.1 0.1-0.2 0.1-0.1 0.1-0.2 0.1-0.1 0.2-0.2-0.3-0.3-0.5-0.7-0.1-0.1-0.1-0.2 0-0.1 0-0.2-0.1-0.2-0.1-0.3 0-0.1 0-0.2v-0.2q0-0.5 0.2-0.9 0.1-0.1 0.1-0.2 0.1-0.1 0.2-0.2 0-0.1 0.1-0.1 0.1-0.1 0.2-0.2-0.4-0.3-0.5-0.7-0.2-0.5-0.2-0.9v-0.2q0-0.2 0-0.3 0-0.1 0.1-0.2 0-0.1 0-0.2 0.1-0.1 0.1-0.2 0.2-0.4 0.6-0.7-0.3-0.3-0.5-0.8-0.2-0.4-0.2-0.9v-0.3q0.1 0 0.2-0.1 0.1-0.1 0.1-0.2 0.1-0.1 0.2-0.2 0-0.1 0.1-0.2 0.2-0.4 0.2-0.8 0-0.5-0.2-0.9 0-0.1-0.1-0.2 0-0.1-0.1-0.2 0-0.1-0.1-0.2-0.1-0.1-0.2-0.2v-0.2q0-0.1 0.1-0.2 0-0.1 0-0.2 0-0.1 0.1-0.2 0-0.1 0.1-0.3 0-0.1 0.1-0.1 0.1-0.1 0.1-0.2 0.1-0.1 0.2-0.2 0.1-0.1 0.2-0.2-0.1 0-0.2-0.1-0.1-0.1-0.1-0.2-0.1-0.1-0.1-0.2-0.1-0.1-0.1-0.2-0.2-0.4-0.2-0.9v-0.2q0-0.5 0.3-0.9 0.2-0.4 0.6-0.7-0.4-0.3-0.5-0.8-0.1-0.1-0.1-0.2 0-0.1-0.1-0.2 0-0.1 0-0.2 0-0.1 0-0.2v-0.3q0.4-0.3 0.6-0.7 0.2-0.4 0.2-0.8 0.1-0.3 0-0.5 0-0.2-0.1-0.4-0.1-0.2-0.2-0.4-0.1-0.2-0.3-0.4v-0.2q0.1-0.1 0.2-0.2 0.1 0 0.2-0.1 0-0.1 0.1-0.2 0.1-0.1 0.1-0.2 0.1-0.1 0.1-0.2 0.1-0.1 0.1-0.2 0-0.1 0-0.2 0.1-0.2 0.1-0.3 0-0.4-0.2-0.9 0-0.1 0-0.2-0.1-0.1-0.1-0.2-0.1-0.1-0.2-0.2 0-0.1-0.1-0.1v-0.2q0-0.5 0.2-0.9 0.3-0.4 0.6-0.7-0.1-0.1-0.1-0.2-0.1-0.1-0.2-0.2 0-0.1-0.1-0.2 0-0.1-0.1-0.2-0.1-0.4-0.1-0.9v-0.2q0.1-0.4 0.3-0.8 0.2-0.4 0.6-0.7-0.1-0.1-0.1-0.2-0.1-0.1-0.2-0.2 0-0.1-0.1-0.2 0-0.1-0.1-0.2-0.1-0.4-0.1-0.9v-0.2q0.1-0.1 0.2-0.2 0.1 0 0.1-0.1 0.1-0.1 0.2-0.2 0.1-0.1 0.1-0.2 0.1-0.1 0.1-0.2 0.1-0.1 0.1-0.2 0-0.1 0.1-0.2 0-0.1 0-0.2 0-0.2 0-0.3 0-0.1 0-0.2 0-0.1-0.1-0.2 0-0.1 0-0.2-0.2-0.5-0.5-0.8v-0.2q0.1-0.5 0.3-0.9 0.1-0.1 0.2-0.2 0-0.1 0.1-0.2 0.1 0 0.2-0.1 0-0.1 0.1-0.2 0 0-0.1-0.1-0.1-0.1-0.1-0.2-0.1-0.1-0.1-0.2-0.1-0.1-0.1-0.3 0-0.1-0.1-0.2 0-0.1 0-0.2 0-0.1 0-0.2 0-0.1 0-0.3 0-0.1 0-0.2 0.1-0.1 0.1-0.2 0-0.1 0.1-0.2 0-0.1 0.1-0.2 0.2-0.4 0.6-0.7-0.1-0.2-0.2-0.4-0.2-0.2-0.2-0.4-0.1-0.2-0.1-0.4 0-0.3 0-0.5v-0.2q0.2-0.1 0.4-0.3 0.1-0.2 0.2-0.4 0.2-0.2 0.2-0.4 0.1-0.2 0.1-0.4 0.1-0.5 0-0.9-0.1-0.1-0.1-0.2 0-0.1-0.1-0.2 0-0.1-0.1-0.2-0.1-0.1-0.2-0.2v-0.2q0.1-0.1 0.1-0.3 0-0.1 0.1-0.2 0-0.1 0.1-0.2 0-0.1 0.1-0.2 0.2-0.4 0.6-0.6-0.3-0.4-0.4-0.8 0-0.2 0-0.3-0.1-0.1-0.1-0.2 0-0.1 0-0.2 0-0.1 0.1-0.3v-0.2q0-0.4 0.3-0.8 0-0.1 0.1-0.2 0.1-0.1 0.2-0.2 0.1 0 0.2-0.1 0-0.1 0.1-0.1 0-0.1-0.1-0.2 0-0.1-0.1-0.2-0.1-0.1-0.1-0.2 0-0.2-0.1-0.3-0.1-0.4 0-0.9v-0.2q0-0.1 0.1-0.2 0-0.1 0-0.2 0.1-0.1 0.1-0.2 0.1-0.1 0.2-0.2 0.2-0.4 0.6-0.6-0.2-0.4-0.4-0.9 0-0.1 0-0.2 0-0.1 0-0.2 0-0.2 0-0.3 0-0.1 0-0.2v-0.2q0.1-0.5 0.4-0.8 0.1-0.1 0.2-0.2 0-0.1 0.1-0.2 0.1-0.1 0.2-0.1 0.1-0.1 0.2-0.1-0.1-0.1-0.1-0.2-0.1-0.1-0.1-0.2-0.1-0.2-0.1-0.3 0-0.1-0.1-0.2-0.1-0.4 0-0.9v-0.2q0.2-0.5 0.5-0.8 0.3-0.4 0.7-0.6-0.1-0.1-0.1-0.2-0.1-0.1-0.1-0.2-0.1-0.1-0.1-0.2-0.1-0.1-0.1-0.3-0.1-0.4 0.1-0.9v-0.2q0-0.1 0-0.2 0.1-0.1 0.1-0.2 0.1-0.1 0.2-0.2 0-0.1 0.1-0.2 0.3-0.4 0.7-0.6-0.2-0.4-0.3-0.8 0-0.2 0-0.3 0-0.1 0-0.2 0-0.1 0.1-0.2 0-0.2 0-0.3v-0.2q0-0.1 0.1-0.2 0-0.1 0.1-0.2 0.1-0.1 0.1-0.2 0.1-0.1 0.2-0.2 0.3-0.3 0.7-0.5 0-0.1-0.1-0.2 0-0.1 0-0.2-0.1-0.1-0.1-0.3 0-0.1 0-0.2 0-0.1 0-0.2 0-0.2 0-0.3 0-0.1 0.1-0.2 0-0.1 0-0.2v-0.2q0.2-0.5 0.6-0.8 0.1-0.1 0.1-0.2 0.1 0 0.2-0.1 0.1-0.1 0.3-0.1 0.1-0.1 0.2-0.1-0.2-0.4-0.2-0.9 0-0.5 0.2-0.9v-0.2q0-0.1 0.1-0.2 0.1-0.1 0.1-0.2 0.1-0.1 0.2-0.2 0.1-0.1 0.2-0.2 0.4-0.3 0.9-0.4-0.2-0.4-0.1-0.9 0-0.2 0-0.3 0-0.1 0.1-0.2 0-0.1 0.1-0.2 0-0.2 0.1-0.3l0.1-0.1q0.3-0.5 0.8-0.7 0.1-0.1 0.2-0.1 0.1-0.1 0.2-0.1 0.1 0 0.3-0.1 0.1 0 0.2 0-0.1-0.5 0.1-1 0.1-0.4 0.4-0.8l0.2-0.2q0.3-0.3 0.7-0.5 0.5-0.2 1-0.2-0.1-0.4 0.1-0.9 0-0.1 0.1-0.2 0.1-0.1 0.1-0.2 0.1-0.1 0.2-0.2 0.1-0.1 0.1-0.2l0.2-0.1q0.4-0.3 0.8-0.5 0.5-0.1 1 0 0-0.2 0-0.3 0-0.1 0.1-0.2 0-0.1 0.1-0.3 0-0.1 0.1-0.2 0-0.1 0.1-0.2 0.1-0.1 0.1-0.2 0.1-0.1 0.2-0.2 0.1 0 0.2-0.1l0.2-0.1q0.1-0.1 0.2-0.2 0.1 0 0.2-0.1 0.1 0 0.3-0.1 0.1 0 0.2 0 0.5-0.1 1 0.1 0.1-0.5 0.4-0.9 0.1-0.1 0.1-0.2 0.1-0.1 0.2-0.2 0.1-0.1 0.2-0.1 0.1-0.1 0.2-0.2h0.2q0.2 0 0.3-0.1 0.1 0 0.2 0 0.1-0.1 0.3-0.1 0.1 0 0.2 0 0.5 0 1 0.2 0.2-0.5 0.6-0.8 0.4-0.3 0.9-0.5h0.2q0.1 0 0.2 0 0.2 0 0.3 0 0.1 0 0.3 0 0.1 0 0.2 0 0.5 0.1 0.9 0.5 0.2-0.2 0.4-0.4 0.2-0.2 0.4-0.3 0.2-0.1 0.5-0.2 0.2 0 0.5 0h0.2q0.2 0.1 0.4 0.3 0.2 0.2 0.4 0.3 0.3 0.1 0.5 0.2 0.2 0.1 0.5 0.1c0.7 0.1 1.4-0.1 2-0.4h0.2q0.1 0 0.2 0 0.1 0.1 0.3 0.1 0.1 0.1 0.2 0.2 0.1 0.1 0.2 0.1 0.4 0.4 0.5 0.9 0.5-0.2 1-0.2 0.5 0 1 0.2h0.2q0.2 0.1 0.4 0.3 0.2 0.2 0.3 0.4 0.2 0.2 0.3 0.4 0.1 0.3 0.1 0.5 0.1 0 0.3 0 0.1-0.1 0.2-0.1 0.1 0 0.3 0 0.1 0 0.2 0.1 0.5 0.1 0.9 0.4l0.2 0.1q0.4 0.4 0.6 0.8 0 0.2 0.1 0.3 0 0.1 0 0.2 0.1 0.1 0.1 0.3 0 0.1 0 0.2 0.5 0 1 0.2 0.1 0 0.2 0.1 0.1 0.1 0.2 0.1 0.1 0.1 0.2 0.2 0.1 0.1 0.2 0.2l0.2 0.2q0.1 0.1 0.2 0.2 0 0.1 0.1 0.2 0.1 0.1 0.1 0.2 0.1 0.1 0.2 0.2 0 0.1 0 0.2 0.1 0.2 0.1 0.3 0 0.1 0 0.2 0 0.1 0 0.3 0 0.5-0.2 0.9-0.2 0.4-0.6 0.7-0.4 0.3-0.9 0.4-0.1 0.1-0.3 0.1-0.1 0-0.2 0-0.1 0-0.3 0-0.1 0-0.2-0.1-0.5-0.1-0.9-0.4-0.1-0.1-0.1-0.2-0.1-0.1-0.2-0.2-0.1-0.1-0.1-0.2-0.1-0.1-0.2-0.2v-0.1q-0.1-0.1-0.2-0.3-0.1-0.2-0.1-0.4-0.1-0.2-0.1-0.4 0-0.2 0-0.4-0.2 0.1-0.4 0-0.3 0-0.4 0-0.2-0.1-0.4-0.2-0.2-0.1-0.4-0.2l-0.1-0.2q-0.2-0.1-0.3-0.2-0.1-0.2-0.2-0.4-0.1-0.2-0.2-0.4-0.1-0.1-0.1-0.3c-0.5 0.1-1.1 0-1.5-0.2h-0.2c-0.5-0.3-0.9-0.7-1-1.2q-0.2 0.1-0.4 0.1-0.2 0.1-0.4 0.1-0.2 0-0.4 0-0.2 0-0.4-0.1h-0.1q-0.2 0-0.4-0.1-0.2-0.1-0.3-0.2-0.2-0.1-0.3-0.2-0.2-0.2-0.3-0.3c-0.4 0.3-0.9 0.5-1.4 0.5h-0.2q-0.2 0-0.4 0-0.2-0.1-0.4-0.1-0.1-0.1-0.3-0.2-0.2-0.1-0.3-0.3-0.1 0.2-0.3 0.3-0.1 0.2-0.3 0.3-0.2 0.1-0.3 0.2-0.2 0.1-0.4 0.1h-0.2c-0.5 0.1-1 0.1-1.5-0.2q-0.1 0.1-0.1 0.2 0 0.1-0.1 0.2-0.1 0.1-0.1 0.2-0.1 0-0.1 0.1-0.1 0.1-0.2 0.2-0.1 0-0.2 0.1 0 0-0.1 0.1-0.1 0-0.2 0.1h-0.2q-0.1-0.1-0.2-0.1-0.1 0-0.2 0-0.1 0-0.2 0-0.1-0.1-0.2 0-0.4 0-0.8 0.2-0.1 0.1-0.1 0.1-0.1 0.1-0.2 0.2-0.1 0-0.1 0.1-0.1 0.1-0.2 0.2 0 0.1-0.1 0.2 0 0.1-0.1 0.2 0 0 0 0.2 0 0.1 0 0.2l-0.2 0.1c-0.5 0.3-1 0.4-1.6 0.3 0 0.6-0.3 1.2-0.7 1.6l-0.2 0.1c-0.4 0.4-1 0.6-1.5 0.5q0 0.1 0 0.2 0 0.2-0.1 0.3 0 0.1 0 0.2 0 0.1-0.1 0.2-0.1 0.4-0.4 0.7l-0.1 0.2q-0.2 0.1-0.3 0.2-0.2 0.2-0.4 0.3-0.2 0.1-0.4 0.1-0.2 0.1-0.4 0.1c0.1 0.5 0 1.1-0.3 1.5v0.2q-0.2 0.2-0.3 0.3-0.2 0.2-0.3 0.3-0.2 0.1-0.4 0.2-0.2 0.1-0.4 0.1c0.2 0.6 0.2 1.1 0 1.7v0.1q-0.2 0.4-0.5 0.7-0.3 0.3-0.8 0.4 0.1 0.2 0.2 0.5 0 0.2 0 0.4 0 0.2 0 0.4-0.1 0.2-0.2 0.4v0.2q-0.4 0.2-0.7 0.5-0.3 0.3-0.5 0.8-0.1 0.4-0.1 0.8 0.1 0.5 0.3 0.9v0.2q-0.2 0-0.4 0.2-0.2 0.1-0.3 0.3-0.2 0.1-0.3 0.3-0.1 0.2-0.1 0.4-0.1 0.2-0.1 0.5 0 0.2 0 0.4 0 0.2 0.1 0.4 0.1 0.3 0.2 0.4v0.2q0 0.1-0.1 0.2 0 0.2-0.1 0.3 0 0.1-0.1 0.1 0 0.1-0.1 0.2-0.3 0.4-0.7 0.6 0.1 0.1 0.1 0.2 0.1 0.1 0.1 0.2 0.1 0.1 0.1 0.2 0 0.1 0 0.2 0.1 0.1 0.1 0.2 0 0.1 0 0.2 0 0.2 0 0.3-0.1 0.1-0.1 0.2v0.2q-0.4 0.2-0.7 0.6 0 0.1-0.1 0.2-0.1 0-0.1 0.1-0.1 0.2-0.1 0.3 0 0.1 0 0.2-0.1 0.1-0.1 0.2 0 0.1 0 0.2 0 0.1 0 0.2 0 0.2 0.1 0.3 0.1 0.4 0.3 0.8v0.2q-0.1 0.4-0.3 0.8-0.1 0.1-0.2 0.2 0 0.1-0.1 0.1-0.1 0.1-0.2 0.2-0.1 0-0.2 0.1 0.3 0.4 0.4 0.8 0.1 0.4 0 0.9v0.2q0 0.1 0 0.2-0.1 0.1-0.1 0.2-0.1 0.1-0.1 0.2-0.1 0.1-0.1 0.2-0.3 0.4-0.7 0.6 0.2 0.2 0.3 0.4 0.1 0.2 0.1 0.4 0.1 0.3 0.1 0.5 0 0.2 0 0.4v0.2q0 0.1-0.1 0.2 0 0.2 0 0.3-0.1 0.1-0.1 0.2-0.1 0.1-0.1 0.2-0.1 0.1-0.2 0.2 0 0-0.1 0.1-0.1 0.1-0.2 0.2-0.1 0-0.2 0.1 0.1 0.1 0.1 0.2 0.1 0.1 0.2 0.2 0 0.1 0.1 0.2 0 0.1 0 0.2 0.1 0.1 0.1 0.2 0 0.1 0 0.2 0 0.1 0 0.3 0 0.1 0 0.2v0.2q0 0.2-0.1 0.4-0.1 0.2-0.2 0.4-0.1 0.2-0.3 0.4-0.2 0.2-0.4 0.3 0.3 0.3 0.5 0.8 0 0.1 0 0.2 0.1 0.1 0.1 0.2 0 0.1 0 0.2 0 0.1 0 0.2v0.2q-0.1 0.3-0.2 0.5 0 0.2-0.1 0.4-0.2 0.2-0.3 0.4-0.2 0.1-0.4 0.3 0.1 0 0.2 0.1 0 0.1 0.1 0.2 0 0.1 0.1 0.2 0 0.1 0.1 0.2 0.1 0.5 0.1 0.9v0.2q-0.1 0.5-0.3 0.9-0.3 0.4-0.6 0.6 0.3 0.4 0.4 0.8 0.1 0.5 0.1 0.9v0.2q-0.1 0.5-0.3 0.9-0.1 0.1-0.1 0.2-0.1 0.1-0.2 0.1-0.1 0.1-0.1 0.2-0.1 0.1-0.2 0.1 0.1 0.1 0.1 0.2 0.1 0.1 0.2 0.2 0 0.1 0.1 0.2 0 0.1 0.1 0.2 0.1 0.4 0.1 0.9v0.2q-0.4 0.3-0.6 0.7-0.2 0.4-0.3 0.8 0 0.5 0.1 0.9 0.2 0.4 0.5 0.8v0.2q-0.1 0.4-0.3 0.9 0 0.1-0.1 0.1-0.1 0.1-0.2 0.2 0 0.1-0.1 0.2-0.1 0.1-0.2 0.1 0.3 0.4 0.5 0.8 0.2 0.4 0.1 0.9v0.2q0 0.1 0 0.2 0 0.1-0.1 0.2 0 0.1 0 0.3-0.1 0.1-0.1 0.2-0.1 0.1-0.1 0.2-0.1 0-0.2 0.1-0.1 0.1-0.1 0.2-0.1 0.1-0.2 0.1 0.1 0.1 0.1 0.2 0.1 0.1 0.2 0.2 0 0.1 0.1 0.2 0 0.1 0.1 0.2 0 0.1 0 0.2 0.1 0.1 0.1 0.2 0 0.2 0 0.3 0 0.1 0 0.2v0.2q0 0.1 0 0.2-0.1 0.1-0.1 0.2 0 0.1-0.1 0.3 0 0.1-0.1 0.2 0 0.1-0.1 0.2-0.1 0-0.1 0.1-0.1 0.1-0.2 0.2-0.1 0.1-0.2 0.2 0.1 0 0.2 0.1 0.1 0.1 0.1 0.2 0.1 0.1 0.1 0.2 0.1 0.1 0.1 0.2 0.2 0.4 0.2 0.9v0.2q0 0.1-0.1 0.2 0 0.1 0 0.2 0 0.2-0.1 0.3 0 0.1-0.1 0.2-0.2 0.4-0.6 0.7 0.4 0.3 0.5 0.7 0.1 0.1 0.1 0.2 0 0.1 0.1 0.3 0 0.1 0 0.2 0 0.1 0 0.2v0.2q0 0.1 0 0.2-0.1 0.2-0.1 0.3 0 0.1-0.1 0.2 0 0.1-0.1 0.2 0 0.1-0.1 0.2 0 0.1-0.1 0.2-0.1 0-0.2 0.1 0 0.1-0.1 0.2 0.3 0.3 0.5 0.7 0 0.1 0.1 0.2 0 0.2 0 0.3 0 0.1 0 0.2 0 0.1 0 0.2v0.2q0 0.1 0 0.2 0 0.2 0 0.3-0.1 0.1-0.1 0.2 0 0.1-0.1 0.2-0.2 0.4-0.6 0.7 0.1 0.1 0.2 0.2 0.1 0.1 0.1 0.1 0.1 0.1 0.1 0.2 0.1 0.1 0.1 0.2 0.1 0.2 0.1 0.3 0 0.1 0.1 0.2 0 0.1 0 0.2 0 0.1 0 0.2v0.2q0 0.5-0.2 0.9-0.1 0.1-0.1 0.2-0.1 0.1-0.2 0.2 0 0.1-0.1 0.2-0.1 0.1-0.2 0.1 0.3 0.3 0.5 0.8 0.1 0.1 0.1 0.2 0 0.1 0 0.2 0.1 0.1 0.1 0.2 0 0.1 0 0.2v0.2q-0.2 0.2-0.3 0.4-0.2 0.2-0.2 0.4-0.1 0.2-0.2 0.4 0 0.2 0 0.4 0 0.3 0 0.5 0.1 0.2 0.2 0.4 0 0.2 0.2 0.4 0.1 0.2 0.3 0.3v0.3q0 0.1-0.1 0.2 0 0.1 0 0.2 0 0.1-0.1 0.2 0 0.1-0.1 0.2-0.2 0.5-0.5 0.7 0.1 0.1 0.2 0.2 0 0.1 0.1 0.2 0.1 0.1 0.1 0.2 0.1 0.1 0.1 0.2 0.2 0.4 0.2 0.9v0.2q0 0.4-0.2 0.9-0.1 0.1-0.1 0.2-0.1 0.1-0.2 0.1 0 0.1-0.1 0.2-0.1 0.1-0.2 0.2 0.1 0 0.2 0.1 0 0.1 0.1 0.2 0.1 0.1 0.1 0.2 0.1 0.1 0.1 0.2 0.1 0.1 0.1 0.2 0 0.1 0.1 0.2 0 0.2 0 0.3 0 0.1 0 0.2v0.2q0 0.5-0.2 0.9-0.2 0.4-0.6 0.7 0.4 0.3 0.6 0.7 0.2 0.4 0.1 0.9v0.2q0 0.5-0.2 0.9-0.2 0.4-0.5 0.7 0.3 0.3 0.5 0.7 0.1 0.2 0.1 0.3 0.1 0.1 0.1 0.2 0 0.1 0 0.2 0 0.1 0 0.2v0.2q0 0.5-0.2 0.9-0.2 0.4-0.5 0.7 0.3 0.4 0.5 0.8 0.1 0.1 0.1 0.2 0 0.1 0.1 0.2 0 0.1 0 0.2 0 0.1 0 0.3v0.2q0 0.1 0 0.2 0 0.1 0 0.2-0.1 0.1-0.1 0.2 0 0.1-0.1 0.2-0.2 0.4-0.5 0.8 0.1 0 0.1 0.1 0.1 0.1 0.2 0.2 0.1 0.1 0.1 0.2 0.1 0.1 0.1 0.2 0.2 0.4 0.2 0.9v0.2q-0.3 0.3-0.5 0.7-0.1 0.2-0.1 0.4-0.1 0.3-0.1 0.5 0 0.2 0.1 0.4 0 0.2 0.1 0.5 0.2 0.4 0.5 0.7v0.2q0 0.5-0.2 0.9 0 0.1-0.1 0.2 0 0.1-0.1 0.2-0.1 0.1-0.1 0.1-0.1 0.1-0.2 0.2 0.3 0.3 0.5 0.7 0.2 0.4 0.2 0.9v0.2q0.1 0.5-0.1 0.9-0.1 0.1-0.1 0.2-0.1 0.1-0.2 0.2 0 0.1-0.1 0.2-0.1 0-0.2 0.1 0.1 0.1 0.2 0.2 0.1 0.1 0.2 0.2 0 0 0.1 0.1 0 0.1 0.1 0.2 0.2 0.5 0.2 0.9v0.2q0 0.1 0 0.3 0 0.1 0 0.2-0.1 0.1-0.1 0.2 0 0.1-0.1 0.2 0 0.1-0.1 0.2 0 0.1-0.1 0.2-0.1 0.1-0.2 0.2 0 0.1-0.1 0.1 0.1 0.1 0.2 0.2 0 0.1 0.1 0.2 0.1 0.1 0.1 0.2 0.1 0.1 0.2 0.2 0.2 0.4 0.2 0.8v0.2q0 0.2-0.1 0.4 0 0.2-0.1 0.4-0.1 0.2-0.2 0.4-0.1 0.2-0.3 0.3c-0.4 0.4-1 0.7-1.5 0.7 0 0-0.2 0-0.2 0z"/><path class="k" d="m338 276c0 0 15.9-8.3 12.5-1.2-3.8 8-12.8 11.4-12.8 11.4z"/><path class="f" d="m364.2 253.2c-1.5 10.2-11.2 18.3-21.5 16.9-10.4-1.5-17.4-12.1-15.9-22.3 0.8-4.8 3.5-9.2 7.5-12.1q1.5-1.1 3.1-1.9 1.7-0.7 3.5-1.2 1.8-0.4 3.6-0.5 1.8-0.1 3.6 0.2 1.9 0.2 3.6 0.8 1.7 0.6 3.3 1.6 1.6 0.9 3 2.1 1.3 1.2 2.5 2.7 1.1 1.4 1.9 3.1 0.8 1.6 1.3 3.4 0.5 1.7 0.6 3.6 0.1 1.8-0.1 3.6z"/><path class="g" d="m355.5 259q-0.1 1.7-0.4 3.4-0.2 1.6-0.4 3.3-0.3 1.7-0.6 3.4c-0.8 5.8-13.7 13.1-20.3 12.1-5.8-0.8-9.4-12.9-8.5-19l1.5-10.8c1.1-8.1 5.9-12.8 14-11.6 8 1.2 15 6.8 15 15.8q-0.1 1.7-0.3 3.4z"/><path fill-rule="evenodd" class="f" d="m341.1 253.2l7.3 0.5q0.2 0.1 0.4 0.2 0.2 0 0.4 0.2 0.2 0.1 0.4 0.2 0.2 0.2 0.3 0.3c0.5 0.5 0.7 1 0.8 1.6q-1.1 0.1-2.3 0.1-1.1 0-2.3-0.1-1.1-0.1-2.2-0.3-1.2-0.1-2.3-0.4c-1.1-0.4-0.5-2.3-0.5-2.3zm-7.6 1.2q-3.6-0.3-7.1-1.3c-0.5-0.1-0.2-2.3 0.5-2.3q0 0 0.1-0.1 0.1 0 0.2 0 0.1 0 0.1 0 0.1 0.1 0.2 0.1l7.1 1.5c0 0 0.1 1.8-1.1 2.1z"/><path fill-rule="evenodd" class="l" d="m336.6 267.3c0.6 0 1.1 1 1.1 1l-2.2-0.2c0.3-0.5 0.5-0.9 1.1-0.8zm-4.3-0.2l1.9 0.7c0 0-0.1-1-0.6-1.2-0.6-0.2-1.3 0.5-1.3 0.5zm2.1-3.8q0.2-1 0.4-2.1 0.2-1.1 0.3-2.1 0.1-1.1 0.2-2.2 0-1 0.1-2.1h-1q0 1-0.1 2.1 0 1-0.1 2.1-0.2 1-0.3 2.1-0.2 1-0.4 2.1z"/><path class="f" d="m345.8 260.5q0 0.2-0.1 0.4 0 0.2-0.1 0.4-0.1 0.2-0.2 0.3-0.2 0.2-0.3 0.3-0.2 0.2-0.3 0.3-0.2 0.1-0.4 0.2-0.2 0-0.4 0.1-0.2 0-0.4 0-0.1 0-0.2 0-0.1 0-0.2-0.1-0.1 0-0.3 0-0.1-0.1-0.1-0.1-0.1-0.1-0.2-0.1-0.1-0.1-0.2-0.1-0.1-0.1-0.2-0.2-0.1-0.1-0.1-0.1-0.1-0.1-0.2-0.2 0-0.1-0.1-0.2 0-0.1-0.1-0.2 0-0.1 0-0.2-0.1-0.1-0.1-0.2 0-0.1 0-0.2 0-0.1-0.1-0.2 0-0.1 0.1-0.2 0-0.3 0-0.5 0.1-0.2 0.2-0.4 0.1-0.2 0.2-0.3 0.2-0.2 0.3-0.3 0.1-0.1 0.2-0.2 0.1 0 0.2-0.1 0.1 0 0.2-0.1 0.1 0 0.2-0.1 0.1 0 0.2 0 0.1 0 0.2-0.1 0.1 0 0.2 0 0.1 0 0.2 0c0.6 0.1 1.1 0.4 1.4 0.8q0.1 0.2 0.2 0.4 0.1 0.2 0.2 0.4 0.1 0.2 0.1 0.4 0 0.2 0 0.4zm-14.1-2q-0.1 0.5-0.5 0.9-0.1 0.1-0.2 0.2-0.2 0.1-0.3 0.1-0.1 0.1-0.2 0.2-0.2 0-0.3 0-0.6 0.1-1.1-0.1-0.5-0.2-0.9-0.6-0.2-0.4-0.3-0.8-0.1-0.4 0-0.8 0.1-0.4 0.3-0.8 0.3-0.3 0.7-0.5 0.5-0.3 1.1-0.2 0.4 0.1 0.7 0.3 0.4 0.2 0.6 0.5 0.2 0.4 0.3 0.8 0.2 0.4 0.1 0.8z"/><path class="g" d="m357 257.7c0.8-0.7 2.5-1.1 4 1.4 1.5 2.5-0.9 10.7-5.4 10.1-4.5-0.7-0.7-9.6 1.4-11.5z"/><path class="l" d="m356.4 265.9l0.6-4.1c0.1-0.5 0.5-1 0.9-1.3 0.4-0.4 1-0.6 1.6-0.6z"/><path class="h" d="m356.3 270.4q-0.1 0-0.1 0 0 0 0 0-0.1 0-0.1 0 0 0 0 0-0.1-0.1-0.1-0.1 0 0 0 0 0 0-0.1 0 0-0.1 0-0.1-0.1-0.1-0.1-0.2 0 0 0 0 0-0.1 0-0.1 0 0 0 0 0-0.1 0-0.1l0.3-2q0-0.2 0.2-0.4 0.2-0.1 0.4-0.1 0.1 0 0.2 0.1 0.1 0 0.2 0.1 0 0.1 0.1 0.2 0 0 0 0.1 0 0 0 0 0 0 0 0.1 0 0 0 0l-0.3 2.1q-0.1 0.2-0.2 0.3-0.2 0.2-0.4 0.1z"/><path class="l" d="m334.4 274.8q-0.4 0-0.7-0.2-0.4-0.1-0.7-0.2-0.3-0.1-0.7-0.3-0.3-0.2-0.6-0.4 0-0.1-0.1-0.1 0 0 0-0.1 0 0 0 0-0.1-0.1-0.1-0.1 0-0.2 0.1-0.4 0.1 0 0.1 0 0 0 0.1-0.1 0 0 0 0 0.1 0 0.1 0 0.2 0 0.4 0.1 0.5 0.3 1 0.6 0.6 0.2 1.2 0.3 0.6 0.1 1.2 0.1 0.6 0 1.2-0.2 0.2 0 0.3 0.1 0.2 0.1 0.3 0.3 0 0.1-0.1 0.3 0 0 0 0.1-0.1 0-0.1 0 0 0.1-0.1 0.1 0 0 0 0-0.4 0.1-0.7 0.2-0.4 0-0.7 0-0.4 0-0.7 0-0.4 0-0.7-0.1zm3.4-2.2q-0.1 0-0.2 0-0.1 0-0.3-0.1-0.1 0-0.2 0-0.1-0.1-0.2-0.1-0.1 0-0.2-0.1-0.1 0-0.2 0-0.1-0.1-0.2-0.1-0.1 0-0.3 0-0.3-0.1-0.6-0.1-0.3 0-0.6-0.1-0.3 0-0.6-0.1-0.3-0.1-0.6-0.1-0.1 0-0.3 0-0.1 0-0.2 0-0.1 0-0.2 0-0.1 0-0.2 0-0.1 0-0.2 0-0.1 0-0.2 0-0.1 0-0.2 0-0.1 0-0.3 0-0.3-0.1-0.6-0.2-0.2-0.1-0.5-0.2-0.3-0.1-0.6-0.3-0.2-0.1-0.5-0.3 0-0.2 0-0.3 0-0.2 0.1-0.3 0.1-0.1 0.3-0.1 0.1-0.1 0.3 0 0.1 0.2 0.4 0.3 0.2 0.1 0.4 0.2 0.2 0.1 0.4 0.2 0.2 0 0.5 0.1h0.6q0.2 0 0.3 0 0.1 0 0.3 0 0.1 0 0.2 0 0.2 0 0.3 0 1.2 0.2 2.3 0.4 0.6 0 1.1 0.2 0.1 0.1 0.2 0.1 0.1 0 0.2 0 0.1 0.1 0.2 0.1 0.1 0 0.2 0 0.2 0 0.4 0 0.3 0 0.5 0 0.3 0 0.5 0 0.3-0.1 0.5-0.1l1.1-0.2q0.1 0 0.3 0.1 0 0.1 0 0.1 0.1 0 0.1 0.1 0 0 0 0 0.1 0.1 0.1 0.1 0 0.1 0 0.1 0 0.1-0.1 0.1 0 0 0 0.1 0 0 0 0.1-0.2 0.1-0.3 0.1l-1 0.2q-0.3 0-0.6 0.1-0.2 0-0.5 0-0.3 0-0.6 0-0.2 0-0.5 0z"/><path class="m" d="m141.5 194.3l0.6-17.5 16.9 6.1 0.6 14.7q0 0.1 0 0.3 0.1 0.1 0.1 0.3 0 0.1 0.1 0.3 0 0.1 0.1 0.2 0.3 0.6 0.8 1l1.2 1 1.2 7-8.4 8.9-11.4-3-7.9-12.3 2.6-1.4q0.4-0.2 0.8-0.4 0.3-0.3 0.6-0.6 0.4-0.3 0.6-0.6 0.3-0.3 0.5-0.7 0.3-0.4 0.5-0.8 0.1-0.4 0.3-0.8 0.1-0.4 0.2-0.8 0-0.5 0-0.9z"/><path class="n" d="m94.5 269.4c0 0 6-39.5 9.1-47.7 1.4-4.5 4.6-8.4 8.8-10.6l25-11c20.6 14.6 24.5 0.5 24.5 0.5 0 0 16.5 8.9 24.1 15.6q1.3 1.1 2.4 2.3 1.1 1.3 2 2.7 0.9 1.4 1.6 3 0.6 1.5 1 3.2c1.4 7.9 5.2 30.3 6.6 41.9z"/><path class="o" d="m159.6 197.5c0 0-9.1-3.4-12.8-11.4-3.5-7.1 12.5 1.2 12.5 1.2z"/><path class="f" d="m142.8 147.4q1.4-1.2 3-2 1.6-0.9 3.3-1.5 1.8-0.5 3.6-0.7 1.8-0.2 3.6-0.1c4.9 0.4 9.5 2.6 12.7 6.3 3.3 3.7 5 8.5 4.8 13.3-0.8 10.3-10 19.1-20.4 18.3-10.4-0.8-18.1-10.9-17.4-21.2 0.6-4.8 3-9.3 6.8-12.4z"/><path class="m" d="m143.6 164c2.1-8.8 10-12.7 18.2-12.1 8.1 0.6 11.7 6.2 11.1 14.4l-0.9 10.9c-0.5 6.1-6.6 17.1-12.5 16.7-6.8-0.5-17.6-10.4-17.2-16.3q0.1-1.7 0.2-3.4 0.1-1.7 0.3-3.4 0.2-1.7 0.4-3.4 0.2-1.7 0.4-3.4z"/><path fill-rule="evenodd" class="f" d="m157.5 167q-1.1 0-2.3-0.1-1.1-0.1-2.2-0.2-1.2-0.2-2.3-0.4-1.1-0.2-2.2-0.5c0.2-0.6 0.6-1.1 1.1-1.5q0.2-0.1 0.4-0.2 0.2-0.1 0.4-0.2 0.2 0 0.5 0 0.2-0.1 0.4-0.1l7.2 1.1c0 0 0.2 1.8-1 2.1zm7.6-1.6h7.2l0.6 0.1c0.7 0.2 0.5 2.4 0 2.4q-0.9 0.1-1.8 0.1-0.9 0-1.8 0-0.9-0.1-1.8-0.2-0.9 0-1.7-0.2c-1.1-0.3-0.7-2.2-0.7-2.2z"/><path fill-rule="evenodd" class="p" d="m160.8 180.7l-2.2-0.3c0 0 0.7-0.8 1.2-0.8 0.6 0.1 0.7 0.5 1 1.1zm2.1-1.1c-0.5 0-0.8 1.1-0.8 1.1l2-0.3c0 0-0.6-0.9-1.2-0.8zm0.9-3.4q0.1-4.2 0.9-8.4l-0.9-0.1q-0.2 1-0.4 2.1-0.2 1.1-0.3 2.1-0.1 1.1-0.2 2.2 0 1.1-0.1 2.1z"/><path class="f" d="m168.9 171.5c1.1 0.2 1.9-0.8 1.7 0.5 0 0.6-0.3 1.1-0.7 1.5-0.4 0.4-0.9 0.6-1.5 0.6-1.1-0.2-1.7-1.3-1.7-2.6-0.1-0.6 1.1-0.1 2.2 0z"/><path fill-rule="evenodd" class="f" d="m165.3 171.5q0.7-0.3 1.5-0.4 0.8-0.1 1.5-0.2 0.8-0.1 1.6 0 0.8 0 1.5 0.1v0.7q-0.7-0.1-1.4-0.1-0.8-0.1-1.5 0-0.8 0.1-1.5 0.2-0.7 0.1-1.5 0.4zm-11.1-1c-1.1-0.1-1.7-1.1-1.7 0.2q-0.1 0.4 0 0.8 0.1 0.2 0.2 0.4 0.1 0.2 0.2 0.4 0.2 0.1 0.3 0.3 0.2 0.1 0.4 0.2 0.4 0.2 0.8 0.3c1.2 0.1 2-0.9 2.2-2.2 0.1-0.6-1.3-0.4-2.4-0.4z"/><path class="f" d="m151.9 170.3h-1.4v-0.7h1.4q0.7 0 1.5 0.1 0.8 0.1 1.5 0.3 0.8 0.1 1.5 0.4 0.8 0.3 1.5 0.6l-0.3 0.7c-1.8-0.9-3.7-1.4-5.7-1.4z"/><path class="m" d="m140.9 177.3c-4.6-0.3-5.2-8.9-3.1-11 2-2.1 3.6-1.4 4.2-0.5 1.7 2.3 3.4 11.8-1.1 11.5z"/><path class="p" d="m139.1 167.5c0.6 0.1 1.1 0.4 1.4 0.8q0.2 0.2 0.3 0.4 0.1 0.1 0.2 0.3 0 0.2 0.1 0.4 0 0.2 0 0.5c0 1.9-0.3 4.1-0.3 4.1z"/><path class="f" d="m154.6 155.4c-6.6 12.7-11.9 16.7-11.9 16.7-1.1-3.7-3.4-6.9-6.6-9.1-3.4-2-1.3-7.9 0.4-12 1.3-3.8 4.1-7 7.7-8.8 3.7-1.9 7.9-2.2 11.8-1.1 7.6-1.8 17.8 3.4 20.4 13.3 2.3 8.7-4 17.5-4 17.5 0 0-3.5-16-8.4-17.9-0.7-0.2-1.4-0.2-2.1-0.1-0.7 0.2-1.3 0.5-1.8 1-0.4-2.2-3.8-2.9-5.5 0.5z"/><path class="q" d="m120 269.4c0-0.2 0.6-21.9 0-26.7-0.7-4.8-8.6-19.4-8.6-19.6l0.6-0.3c0 0 2 3.7 4.1 8q0.7 1.4 1.4 2.8 0.6 1.5 1.2 3 0.6 1.4 1.1 2.9 0.4 1.6 0.8 3.1c0.7 4.8 0 25.9 0 26.8zm65-26.2q0.8-7.6 2.6-15l0.7 0.1q-1.9 7.4-2.7 14.9v24.7h-0.6c0 0 0-24.7 0-24.7z"/><path class="p" d="m157.8 186.8q-0.2-0.1-0.2-0.2-0.1-0.1-0.1-0.1 0-0.1 0-0.1 0-0.1 0.1-0.1 0 0 0-0.1 0.1-0.1 0.3-0.2 0.2-0.1 0.3 0 1.1 0.6 2.4 0.6 1.2 0 2.3-0.4 0.2-0.1 0.4 0 0.2 0 0.3 0.2 0 0.2 0 0.4-0.1 0.1-0.3 0.2-0.3 0.2-0.7 0.3-0.3 0.1-0.7 0.1-0.3 0.1-0.7 0.1-0.4 0.1-0.8 0c-0.9 0-1.8-0.2-2.6-0.7zm-0.7-2.4q-0.3-0.1-0.6-0.2-0.3-0.1-0.5-0.2-0.3-0.1-0.6-0.2l-0.9-0.3q-0.1-0.1-0.1-0.1 0 0-0.1 0 0-0.1 0-0.1-0.1 0-0.1-0.1 0 0 0-0.1 0-0.1 0-0.2 0-0.1 0.1-0.2 0 0 0.1-0.1 0.1 0 0.2 0 0.1 0 0.2 0 0.1 0 0.2 0.1 0.1 0 0.3 0.1 0.1 0 0.2 0.1 0.1 0 0.3 0.1 0.9 0.4 1.8 0.5 0.1 0 0.2 0 0.1 0 0.2 0 0.1 0 0.2 0 0.1 0 0.2 0 0.6 0 1.1 0 1.2 0.2 2.4 0.2 0.1 0 0.2 0 0.2 0 0.3 0 0.1 0.1 0.3 0.1 0.1 0 0.2 0l0.7 0.1q0.9 0.1 1.8-0.4 0.2 0 0.4 0 0.1 0.1 0.2 0.2 0.1 0.1 0.1 0.2 0 0 0 0 0 0 0 0.1 0 0 0 0 0 0 0 0.1 0 0-0.1 0.1 0 0.1-0.1 0.1-0.3 0.2-0.5 0.3-0.3 0.1-0.6 0.1-0.3 0.1-0.5 0.1-0.3 0.1-0.6 0.1-0.1 0-0.2-0.1-0.1 0-0.2 0-0.1 0-0.2 0-0.1 0-0.3-0.1-0.4-0.1-0.8-0.1c-0.5 0-1.9-0.1-2.5-0.1q-0.5-0.1-0.9 0-0.5 0-0.9 0-0.3-0.1-0.6-0.1z"/></svg>