<svg xmlns="http://www.w3.org/2000/svg" xmlns:xlink="http://www.w3.org/1999/xlink" width="157" height="135" fill="none" xmlns:v="https://vecta.io/nano"><path opacity=".1" d="M78.148 135c37.402 0 67.722-30.221 67.722-67.5S115.55 0 78.148 0 10.426 30.221 10.426 67.5 40.746 135 78.148 135z" fill="#05a9e1"/><g fill="#514e5b"><path d="M72.623 76.444H2.816a2.83 2.83 0 0 1-1.992-.828A2.81 2.81 0 0 1 0 73.628v-48.52a2.81 2.81 0 0 1 .824-1.988 2.83 2.83 0 0 1 1.992-.828h69.807a2.83 2.83 0 0 1 1.081.214c.343.141.654.349.916.61s.471.572.612.913.215.708.215 1.077v48.52c0 .37-.073.736-.215 1.077s-.35.652-.612.913-.574.469-.916.61a2.83 2.83 0 0 1-1.081.214zM2.816 23.323c-.473 0-.926.187-1.26.52s-.522.785-.522 1.256v48.52c0 .471.188.923.522 1.256s.788.52 1.26.52h69.807c.473 0 .926-.187 1.26-.52s.522-.785.522-1.256V25.108c0-.471-.188-.923-.522-1.256s-.787-.52-1.26-.52l-69.807-.009z"/><path d="M74.931 28.279H.517v-3.171c-.001-.302.057-.601.172-.88a2.29 2.29 0 0 1 .498-.746 2.3 2.3 0 0 1 .747-.499c.28-.116.579-.175.882-.175h69.807a2.31 2.31 0 0 1 1.632.674c.433.431.676 1.017.676 1.627v3.171z"/></g><g fill="#f8fafd"><use xlink:href="#B"/><path opacity=".6" d="M8.171 25.313a1.03 1.03 0 0 1-.174.572c-.114.169-.275.301-.464.379s-.397.098-.597.059-.385-.138-.529-.282a1.03 1.03 0 0 1-.283-.527c-.04-.2-.02-.407.059-.595a1.03 1.03 0 0 1 .381-.462c.17-.113.37-.174.574-.174.274 0 .537.109.731.302a1.03 1.03 0 0 1 .303.729z"/><use xlink:href="#B" x="6.22" opacity=".3"/></g><g fill="#514e5b"><path d="M154.175 112.334H84.368c-.748-.002-1.464-.3-1.992-.828a2.81 2.81 0 0 1-.824-1.987v-48.52a2.81 2.81 0 0 1 .824-1.988 2.83 2.83 0 0 1 1.992-.828h69.807c.371 0 .738.073 1.081.214a2.83 2.83 0 0 1 .917.61 2.82 2.82 0 0 1 .612.913c.142.342.215.708.215 1.077v48.52c0 .746-.298 1.463-.827 1.991a2.83 2.83 0 0 1-1.998.824zm-69.807-53.12c-.473 0-.926.187-1.26.52s-.522.785-.522 1.256v48.52c0 .471.188.923.522 1.256s.787.52 1.26.52h69.807c.473 0 .926-.187 1.26-.52a1.77 1.77 0 0 0 .522-1.256V60.999a1.77 1.77 0 0 0-.522-1.256c-.334-.333-.787-.52-1.26-.52l-69.807-.009z"/><path d="M156.483 64.169H82.069v-3.171c0-.609.242-1.192.673-1.623a2.31 2.31 0 0 1 1.626-.677h69.807a2.31 2.31 0 0 1 1.632.674c.433.431.676 1.016.676 1.627v3.171z"/></g><g fill="#f8fafd"><path d="M86.613 61.203a1.03 1.03 0 0 1-.174.572c-.114.169-.275.301-.464.38s-.397.098-.597.059-.385-.138-.529-.282a1.03 1.03 0 0 1-.283-.528c-.04-.2-.019-.407.059-.595a1.03 1.03 0 0 1 .381-.462c.17-.113.37-.174.574-.174.273.002.535.112.728.304s.303.453.305.726z"/><path opacity=".6" d="M89.723 61.203a1.03 1.03 0 0 1-.638.952c-.189.078-.397.098-.597.059s-.385-.138-.529-.282a1.03 1.03 0 0 1-.283-.528c-.04-.2-.019-.407.059-.595a1.03 1.03 0 0 1 .381-.462c.17-.113.37-.174.574-.174.273.002.535.112.728.304s.303.453.305.726z"/><path opacity=".3" d="M92.833 61.203a1.03 1.03 0 0 1-.638.952c-.189.078-.397.098-.597.059s-.385-.138-.529-.282a1.03 1.03 0 0 1-.283-.528c-.04-.2-.02-.407.059-.595a1.03 1.03 0 0 1 .381-.462c.17-.113.37-.174.574-.174.273.002.535.112.728.304s.303.453.305.726z"/></g><g fill="#514e5b"><path d="M9.463 34.807H6.594v2.576h2.869v-2.576z"/><path d="M10.497 37.258l-1.034-.844v-.631l1.034-.853v2.327zm7.886-1.385a.71.71 0 0 1-.209.502c-.134.133-.315.208-.504.208-.094.001-.188-.016-.276-.051s-.167-.087-.234-.153a.71.71 0 0 1-.212-.506v-1.51a.71.71 0 0 1 .212-.506c.067-.066.147-.118.234-.153a.72.72 0 0 1 .276-.052c.189 0 .37.075.504.208a.71.71 0 0 1 .209.502v1.51zM17.67 37.4a1.55 1.55 0 0 1-1.093-.45c-.29-.288-.455-.679-.457-1.087h.472a1.07 1.07 0 0 0 .347.696 1.08 1.08 0 0 0 1.454 0c.199-.181.322-.429.347-.696h.472a1.54 1.54 0 0 1-.454 1.084c-.289.288-.679.45-1.088.453z"/><path d="M17.911 37.169h-.472v1.403h.472v-1.403zm-9.419 2.656c-.739.002-1.462-.215-2.078-.623a3.72 3.72 0 0 1-1.379-1.67 3.71 3.71 0 0 1-.215-2.152 3.72 3.72 0 0 1 1.022-1.908 3.74 3.74 0 0 1 1.914-1.019c.725-.143 1.477-.069 2.159.214a3.73 3.73 0 0 1 1.675 1.374 3.71 3.71 0 0 1 .625 2.071 3.72 3.72 0 0 1-1.093 2.623 3.74 3.74 0 0 1-2.631 1.09zm0-7.016a3.32 3.32 0 0 0-1.844.553c-.546.362-.973.877-1.225 1.481s-.319 1.268-.192 1.91a3.3 3.3 0 0 0 .905 1.694 3.32 3.32 0 0 0 1.697.907 3.33 3.33 0 0 0 1.917-.187 3.31 3.31 0 0 0 1.489-1.217c.365-.543.559-1.183.559-1.837a3.31 3.31 0 0 0-.97-2.331 3.33 3.33 0 0 0-2.336-.973zm9.178 7.016a3.74 3.74 0 0 1-2.078-.623c-.615-.408-1.095-.989-1.379-1.67a3.71 3.71 0 0 1-.215-2.152 3.72 3.72 0 0 1 1.022-1.908 3.74 3.74 0 0 1 1.914-1.019c.725-.143 1.477-.069 2.159.214a3.73 3.73 0 0 1 1.675 1.374c.41.613.627 1.334.626 2.071-.002.984-.396 1.927-1.094 2.623a3.74 3.74 0 0 1-2.631 1.09zm0-7.016a3.32 3.32 0 0 0-1.844.553c-.546.362-.973.877-1.225 1.481s-.319 1.268-.192 1.91a3.3 3.3 0 0 0 .905 1.694 3.32 3.32 0 0 0 1.697.907c.643.128 1.31.063 1.916-.187a3.31 3.31 0 0 0 1.489-1.217c.365-.543.559-1.183.559-1.837a3.31 3.31 0 0 0-.97-2.331 3.33 3.33 0 0 0-2.336-.973zm122.729 36.974h-2.869v2.576h2.869v-2.576z"/><path d="M141.424 72.234l-1.025-.844v-.63l1.025-.853v2.327zm7.886-1.421a.71.71 0 0 1-.209.502c-.134.133-.315.208-.504.208s-.37-.075-.504-.208a.71.71 0 0 1-.209-.502v-1.51a.71.71 0 0 1 .209-.502c.134-.133.315-.208.504-.208s.37.075.504.208a.71.71 0 0 1 .209.502v1.51z"/><path d="M148.597 72.376a1.55 1.55 0 0 1-.59-.117c-.187-.077-.357-.191-.5-.333a1.53 1.53 0 0 1-.334-.499 1.52 1.52 0 0 1-.117-.588h.463a1.07 1.07 0 0 0 .347.696 1.08 1.08 0 0 0 1.454 0c.198-.181.322-.429.346-.696h.473a1.55 1.55 0 0 1-.454 1.084c-.289.288-.68.45-1.088.453z"/><path d="M148.838 72.145h-.473v1.403h.473v-1.403zm-9.437 2.665a3.74 3.74 0 0 1-2.075-.628 3.72 3.72 0 0 1-1.375-1.672 3.71 3.71 0 0 1-.211-2.151 3.72 3.72 0 0 1 1.024-1.905 3.73 3.73 0 0 1 1.914-1.016 3.75 3.75 0 0 1 2.158.215 3.73 3.73 0 0 1 1.674 1.375 3.71 3.71 0 0 1 .625 2.07 3.72 3.72 0 0 1-1.097 2.626 3.74 3.74 0 0 1-2.637 1.087zm0-7.017a3.32 3.32 0 0 0-1.841.557 3.3 3.3 0 0 0-1.221 1.483 3.29 3.29 0 0 0-.189 1.909c.128.641.444 1.23.907 1.692a3.32 3.32 0 0 0 1.697.904c.643.127 1.31.062 1.916-.188a3.31 3.31 0 0 0 1.487-1.217 3.29 3.29 0 0 0 .559-1.835c-.002-.876-.352-1.715-.974-2.334a3.33 3.33 0 0 0-2.341-.97zm9.178 7.017a3.74 3.74 0 0 1-2.077-.624 3.71 3.71 0 0 1-1.379-1.67c-.283-.681-.359-1.429-.215-2.152s.5-1.387 1.022-1.908a3.74 3.74 0 0 1 1.914-1.019c.725-.143 1.477-.069 2.159.214s1.266.761 1.675 1.374a3.71 3.71 0 0 1 .626 2.071c-.002.984-.396 1.927-1.094 2.623a3.74 3.74 0 0 1-2.631 1.09zm0-7.017a3.32 3.32 0 0 0-1.844.553 3.31 3.31 0 0 0-1.225 1.481 3.29 3.29 0 0 0-.192 1.91 3.3 3.3 0 0 0 .905 1.694 3.32 3.32 0 0 0 1.697.907c.644.128 1.311.063 1.917-.186s1.124-.673 1.489-1.217.559-1.183.559-1.837a3.31 3.31 0 0 0-.97-2.331 3.33 3.33 0 0 0-2.336-.973z"/></g><path d="M113.693 58.841l-3.341 1.91-2.593 4.308-1.934 13.287 1.488 2.824 4.839 10.019 11.325-3.73.82-11.244-.24-7.452-3.048-6.679-7.316-3.242z" fill="#151c28"/><g fill="#57463a"><path d="M123.771 83.78l-3.733-1.998-5.427.444-1.568 1.306 2.914 6.439 4.633-1.235 3.181-4.956z"/><path d="M121.375 83.389l-3.734 1.661-3.734-1.163.303-7.558 6.844-2.46.321 9.521z"/></g><path d="M126.169 111.304l3.181-24.14a20.6 20.6 0 0 0-7.129-3.695c-.419 1.581-4.393 2.957-6.425 2.549a3.66 3.66 0 0 1-1.729-.896c-.485-.449-.839-1.02-1.024-1.653l-7.129 4.29c-.16.133 1.578 23.545 1.578 23.545h18.677z" fill="#fff"/><path d="M139.481 111.304l-2.78-21.689-15.229-7.016-5.061 28.705h23.07zm-42.192 0l3.127-21.689 13.393-6.75 1.167 28.439H97.289z" fill="#05a9e1"/><path d="M131.604 111.304l-.107-5.498 4.028-14.654.285.071-4.01 14.619.107 5.462h-.303zm-28.826 0h-.303l.258-4.485-2.219-14.184.294-.044 2.228 14.21-.009.018-.249 4.485z" fill="#087b96"/><g fill="#151c28"><path d="M122.39 107.813a.89.89 0 0 0 .585-.208c.163-.136.272-.327.306-.538v-.142c.018-.122.01-.247-.024-.367a.88.88 0 0 0-.172-.325.89.89 0 0 0 .256-.262c.065-.104.109-.221.127-.342v-.089a.88.88 0 0 1-.2-.686c.015-.121.057-.239.12-.344s.149-.196.25-.267v-.089a.88.88 0 0 0-.035-.364c-.037-.118-.098-.227-.179-.32.104-.068.192-.158.256-.264s.105-.225.118-.348v-.08c.014-.123.002-.247-.035-.365a.87.87 0 0 0-.179-.319.9.9 0 0 0 .254-.271c.064-.107.106-.227.121-.351v-.08a.88.88 0 0 1-.177-.319c-.036-.117-.047-.24-.033-.362s.054-.24.116-.346.146-.197.245-.27v-.088c.013-.124 0-.248-.039-.366a.88.88 0 0 0-.184-.319.89.89 0 0 0 .247-.268.9.9 0 0 0 .119-.344v-.089c.012-.123-.001-.248-.039-.365s-.101-.226-.184-.318a.89.89 0 0 0 .247-.268.88.88 0 0 0 .118-.345v-.089c-.081-.091-.143-.198-.181-.315s-.052-.239-.04-.361a.87.87 0 0 1 .108-.347c.059-.107.14-.2.238-.275v-.089c.014-.123 0-.247-.04-.363s-.105-.223-.192-.312a.89.89 0 0 0 .246-.278.9.9 0 0 0 .111-.353v-.053c-.084-.09-.149-.197-.189-.314s-.056-.24-.046-.363a.88.88 0 0 1 .104-.35.89.89 0 0 1 .238-.279v-.08a.9.9 0 0 0-.047-.367c-.042-.118-.108-.226-.194-.316a.89.89 0 0 0 .348-.631v-.08c.009-.123-.008-.247-.049-.363s-.107-.222-.192-.312a.89.89 0 0 0 .236-.28.9.9 0 0 0 .103-.351v-.089a.83.83 0 0 0-.055-.362c-.044-.115-.114-.219-.204-.304a.9.9 0 0 0 .238-.284c.058-.11.092-.231.101-.356v-.08a.89.89 0 0 0-.057-.365c-.045-.116-.113-.222-.202-.31a.89.89 0 0 0 .233-.285.88.88 0 0 0 .097-.355v-.08a.88.88 0 0 0-.061-.366.9.9 0 0 0-.206-.309c.096-.078.176-.175.232-.285a.88.88 0 0 0 .097-.354v-.08a.88.88 0 0 0-.061-.366c-.046-.116-.116-.222-.206-.309.095-.079.173-.176.228-.286a.89.89 0 0 0 .093-.353v-.107c.002-.123-.022-.244-.069-.358s-.118-.215-.207-.3c.094-.081.171-.18.224-.291s.084-.233.088-.357v-.089c0-.123-.024-.245-.074-.358s-.121-.215-.212-.299c.093-.081.168-.181.22-.292s.081-.233.083-.356v-.089c.001-.123-.024-.245-.073-.359s-.121-.215-.212-.299c.093-.083.166-.184.217-.298s.077-.236.077-.36v-.08c-.092-.083-.165-.185-.215-.298s-.076-.236-.076-.359.025-.246.076-.359a.88.88 0 0 1 .215-.298v-.089a.88.88 0 0 1-.215-.298c-.051-.113-.076-.236-.076-.359s.025-.246.076-.359a.88.88 0 0 1 .215-.298v-.089a.87.87 0 0 0-.093-.353c-.055-.11-.132-.208-.227-.286a.91.91 0 0 0 .206-.309c.046-.116.066-.241.061-.366v-.08a.89.89 0 0 0-.339-.648.88.88 0 0 0 .201-.31.89.89 0 0 0 .058-.365v-.062a.89.89 0 0 1-.245-.281c-.06-.11-.097-.231-.107-.356s.006-.251.049-.369.109-.226.196-.317v-.08a.88.88 0 0 1-.253-.275c-.064-.109-.104-.229-.118-.355a.9.9 0 0 1 .228-.694v-.08c-.016-.125-.058-.245-.124-.352s-.155-.199-.259-.27a.87.87 0 0 0 .173-.33.88.88 0 0 0 .023-.372v-.08c-.02-.125-.067-.245-.138-.351s-.164-.195-.272-.262c.077-.1.132-.215.161-.337a.87.87 0 0 0 .008-.373v-.08a.88.88 0 0 0-.153-.345.89.89 0 0 0-.283-.25.89.89 0 0 0 .144-.345c.023-.124.02-.252-.011-.374v-.089c-.034-.124-.095-.239-.178-.337s-.186-.177-.303-.232c.068-.109.11-.232.126-.359a.88.88 0 0 0-.037-.378v-.08c-.044-.123-.115-.234-.207-.326s-.204-.163-.327-.207c.055-.118.084-.247.084-.377s-.029-.259-.084-.378v-.089a.9.9 0 0 0-.597-.48.89.89 0 0 0 .038-.393c-.017-.132-.063-.259-.136-.371l-.054-.08a.89.89 0 0 0-.302-.272c-.121-.066-.255-.104-.393-.11a.88.88 0 0 0-.047-.41c-.048-.131-.127-.249-.229-.345l-.062-.062a.97.97 0 0 1-.714-.223.96.96 0 0 1-.338-.665l-.071-.053c-.104-.079-.224-.134-.352-.162s-.26-.027-.388.002a.89.89 0 0 0-.133-.366c-.071-.111-.165-.204-.277-.274l-.08-.044a.89.89 0 0 0-.766-.062c-.037-.131-.103-.253-.194-.354a.9.9 0 0 0-.332-.232h-.08c-.131-.049-.273-.067-.412-.051a.89.89 0 0 0-.39.14c-.067-.127-.163-.236-.281-.318s-.254-.134-.396-.152h-.107a1.34 1.34 0 0 1-1.613.133h-.107c-.132.276-.343.507-.606.665s-.567.235-.873.223l-.116.124 1.354 1.093c0-.088.024-.175.068-.251s.109-.139.186-.183a.5.5 0 0 1 .253-.064c.088.001.175.026.251.072h.053a.89.89 0 0 0 .464-.311.83.83 0 0 0 .516.24h.063c.206.022.415-.028.588-.142a.89.89 0 0 0 .463.408h.072c.209.082.441.082.65 0 .059.218.199.405.392.524h.062c.201.122.441.16.669.107.028.231.147.441.329.586l.063.044c.116-.021.236-.016.351.015a.81.81 0 0 1 .311.163c.09.076.162.172.211.279s.073.225.071.343l.054.053a.89.89 0 0 0 .579.231c-.019.106-.015.215.009.321a.81.81 0 0 0 .134.292v.062a.89.89 0 0 0 .543.364.89.89 0 0 0 0 .657v.071c.047.106.116.201.202.279a.84.84 0 0 0 .297.174.89.89 0 0 0 0 .684v.071c.04.111.101.213.181.3s.175.157.283.207c-.065.1-.107.213-.124.331s-.008.238.026.352v.08a.87.87 0 0 0 .159.314.88.88 0 0 0 .268.228c-.069.099-.117.21-.141.327s-.025.239-.001.356v.08a.89.89 0 0 0 .41.568c-.077.093-.133.201-.164.318s-.036.238-.015.357v.08c.02.12.064.235.13.337s.152.19.254.258a.88.88 0 0 0-.173.316.89.89 0 0 0-.032.359v.08a.88.88 0 0 0 .365.604c-.081.09-.142.196-.18.31a.88.88 0 0 0-.043.356v.08c.012.122.049.24.109.347a.89.89 0 0 0 .239.275.88.88 0 0 0-.188.304.87.87 0 0 0-.053.353v.089c.091.078.165.173.219.281s.083.224.09.344-.011.239-.052.351-.104.216-.186.303v.08a.89.89 0 0 0 .093.353.9.9 0 0 0 .228.286c-.089.082-.159.183-.205.295a.84.84 0 0 0-.062.353v.089c.088.083.157.183.205.293a.88.88 0 0 1 .072.35.88.88 0 0 1-.072.35c-.048.111-.117.211-.205.294v.08c.003.123.031.244.083.356s.127.211.22.292c-.091.082-.165.182-.215.294a.87.87 0 0 0-.079.355v.08a.88.88 0 0 1 .282.648.88.88 0 0 1-.282.648v.151c-.001.121.023.241.071.353a.88.88 0 0 0 .205.296c-.093.081-.168.181-.22.292s-.08.233-.083.356v.08c.089.083.16.184.209.295s.073.232.073.353-.025.242-.073.353-.12.212-.209.295v.08c-.002.123.022.244.069.357s.118.215.207.3a.9.9 0 0 0-.228.286c-.055.11-.086.23-.093.353v.08c-.004.123.018.246.064.361a.88.88 0 0 0 .204.305c-.097.078-.176.175-.233.285a.88.88 0 0 0-.097.354v.08c-.005.123.015.245.059.36a.9.9 0 0 0 .2.306c-.096.077-.175.172-.231.281s-.091.228-.099.35v.08a.88.88 0 0 0 .055.359.89.89 0 0 0 .194.307.9.9 0 0 0-.231.281.89.89 0 0 0-.098.35v.08c-.008.124.01.248.053.364s.11.222.196.311a.89.89 0 0 0-.239.275.87.87 0 0 0-.108.347v.089a.89.89 0 0 0 .05.358c.042.115.106.219.19.308a.89.89 0 0 0-.239.275.87.87 0 0 0-.108.347v.089a.89.89 0 0 0 .05.358c.042.115.106.219.19.308-.1.072-.183.165-.243.272a.83.83 0 0 0-.104.35v.089a.87.87 0 0 0 .045.362.88.88 0 0 0 .186.313c-.098.072-.18.164-.242.269a.89.89 0 0 0-.114.343v.089c-.012.122.002.245.041.361a.88.88 0 0 0 .182.314c-.099.072-.181.164-.242.27s-.101.222-.115.343v.089a.89.89 0 0 1 .177.314c.036.116.049.238.036.358s-.05.237-.109.343a.89.89 0 0 1-.237.272v.08a.87.87 0 0 0 .039.365c.038.118.101.226.183.319a.89.89 0 0 0-.247.268.88.88 0 0 0-.118.344v.08a.89.89 0 0 1 .209.682c-.014.121-.053.239-.115.345s-.146.198-.245.27v.08a.88.88 0 0 0 .034.364c.037.118.098.227.179.32a.84.84 0 0 0-.365.604v.088c-.014.123-.002.247.035.365a.89.89 0 0 0 .179.319c-.101.07-.186.159-.25.263a.87.87 0 0 0-.124.341v.08a.9.9 0 0 0 .034.365c.037.117.098.226.18.319a.89.89 0 0 0-.256.262c-.066.104-.109.22-.128.342v.08c-.016.123-.006.249.029.368s.095.23.176.325c-.104.064-.193.151-.259.254s-.109.219-.124.341v.089a.89.89 0 0 0 .74.985h.053z"/><path d="M124.564 110.478c.237 0 .464-.094.631-.26a.89.89 0 0 0 .261-.628v-.08a.88.88 0 0 0-.084-.356c-.052-.112-.127-.211-.219-.292.091-.083.164-.182.215-.294s.077-.232.079-.355v-.089c-.003-.123-.031-.244-.083-.356a.9.9 0 0 0-.22-.292c.091-.082.164-.182.215-.294a.9.9 0 0 0 .079-.354v-.089a.9.9 0 0 1-.209-.295c-.048-.112-.073-.232-.073-.354s.025-.241.073-.353a.9.9 0 0 1 .209-.295v-.089a.89.89 0 0 1-.209-.295c-.048-.111-.073-.232-.073-.353a.89.89 0 0 1 .282-.648v-.089a.9.9 0 0 1-.209-.295c-.048-.112-.073-.232-.073-.354s.025-.241.073-.353a.9.9 0 0 1 .209-.295v-.089a.89.89 0 0 1-.209-.295c-.048-.111-.073-.232-.073-.353a.89.89 0 0 1 .282-.648v-.089a.9.9 0 0 0-.079-.355c-.051-.112-.124-.212-.215-.294a.88.88 0 0 0 .303-.657v-.071c.001-.123-.024-.245-.073-.359a.91.91 0 0 0-.212-.299c.09-.081.162-.18.213-.29a.9.9 0 0 0 .081-.35v-.089a.89.89 0 0 0-.078-.36.88.88 0 0 0-.216-.298.82.82 0 0 0 .225-.29.81.81 0 0 0 .077-.359v-.08c.001-.123-.024-.245-.073-.359a.88.88 0 0 0-.212-.299.82.82 0 0 0 .303-.639v-.089a.88.88 0 0 1-.282-.648.88.88 0 0 1 .282-.648v-.089a.88.88 0 0 1-.208-.295c-.049-.112-.074-.232-.074-.353s.025-.242.074-.353a.88.88 0 0 1 .208-.295v-.089c.002-.123-.021-.244-.069-.357a.88.88 0 0 0-.207-.3c.092-.08.166-.178.218-.288a.89.89 0 0 0 .085-.351v-.089c.001-.123-.024-.245-.073-.359a.88.88 0 0 0-.212-.299.9.9 0 0 0 .223-.287.88.88 0 0 0 .089-.352v-.16c-.089-.083-.16-.183-.209-.295s-.073-.232-.073-.353.025-.242.073-.353.12-.212.209-.295v-.089c.002-.123-.022-.244-.069-.357s-.118-.215-.207-.3a.9.9 0 0 0 .223-.287c.053-.11.083-.23.088-.352v-.08c.005-.124-.017-.246-.063-.361a.88.88 0 0 0-.204-.305c.094-.08.169-.177.223-.287a.88.88 0 0 0 .089-.352v-.08a.89.89 0 0 1-.212-.296c-.049-.112-.075-.234-.075-.356a.89.89 0 0 1 .287-.653v-.08a.82.82 0 0 0-.057-.364c-.047-.115-.118-.219-.21-.303a.9.9 0 0 0 .228-.286c.055-.11.086-.23.093-.353v-.08c.004-.124-.018-.247-.064-.361a.88.88 0 0 0-.204-.305c.094-.078.171-.174.226-.282s.088-.227.095-.349v-.089c-.085-.087-.152-.191-.195-.305s-.062-.235-.056-.357a.87.87 0 0 1 .09-.35.89.89 0 0 1 .223-.285v-.089c.005-.123-.017-.246-.063-.361a.88.88 0 0 0-.204-.305.9.9 0 0 0 .23-.29.89.89 0 0 0 .091-.358v-.08c.002-.125-.022-.249-.072-.363s-.122-.218-.213-.303c.095-.081.172-.182.226-.295a.89.89 0 0 0 .086-.362v-.027a.88.88 0 0 0-.076-.364c-.051-.115-.125-.218-.219-.302a.87.87 0 0 0 .217-.298.89.89 0 0 0 .078-.36v-.089c-.092-.083-.166-.185-.216-.298a.89.89 0 0 1 0-.719c.05-.113.124-.215.216-.298v-.089c-.006-.125-.039-.248-.096-.359s-.136-.21-.234-.289c.088-.088.156-.194.201-.31a.89.89 0 0 0 .057-.365v-.089a.89.89 0 0 1-.361-.64.89.89 0 0 1 .047-.373.9.9 0 0 1 .198-.32v-.08a.88.88 0 0 0-.118-.355c-.065-.109-.152-.203-.256-.275.081-.096.14-.209.174-.33s.041-.248.022-.372v-.133a.88.88 0 0 0-.144-.347.89.89 0 0 0-.275-.257.89.89 0 0 0 .164-.341c.029-.124.031-.253.006-.378v-.089c-.029-.125-.085-.241-.163-.343s-.178-.184-.292-.244a.88.88 0 0 0 .133-.353c.018-.126.01-.254-.026-.376v-.089c-.118-.053-.224-.13-.312-.225a.95.95 0 0 1-.199-.329c-.043-.122-.061-.251-.053-.38s.042-.255.101-.371v-.08c-.049-.122-.127-.23-.226-.317a.84.84 0 0 0-.344-.181c.057-.119.086-.25.086-.382s-.029-.263-.086-.382l-.045-.08a.89.89 0 0 0-.268-.284c-.11-.074-.234-.122-.365-.142.032-.13.034-.265.007-.396a.89.89 0 0 0-.167-.359l-.054-.071c-.083-.103-.189-.186-.31-.243s-.252-.086-.385-.086c.013-.132-.005-.265-.051-.39s-.12-.237-.216-.33l-.071-.062c-.099-.09-.217-.157-.345-.195s-.263-.048-.395-.027a.89.89 0 0 0-.107-.374c-.064-.115-.152-.215-.258-.292l-.08-.053c-.109-.073-.232-.121-.362-.141a.89.89 0 0 0-.387.026c-.025-.129-.079-.252-.158-.358a.89.89 0 0 0-.296-.255l-.081-.044a.96.96 0 0 1-.375.061c-.128-.005-.254-.035-.37-.089s-.221-.13-.307-.225-.152-.205-.195-.326h-.08c-.123-.05-.256-.072-.388-.064a.9.9 0 0 0-.379.109c-.053-.123-.134-.233-.235-.32s-.223-.151-.353-.186h-.098a1.58 1.58 0 0 1-1.728 0l-.143.044a12.49 12.49 0 0 1-1.123 1.981c-.006.056-.006.113 0 .169l1.693-.4v-.124a.89.89 0 0 0 .383-.231c.12.144.282.246.464.293h.071c.218.052.447.02.642-.089.09.212.259.381.472.471h.071c.107-.051.224-.078.343-.078s.236.025.343.075a.81.81 0 0 1 .278.214.8.8 0 0 1 .159.312h.062c.209.109.452.132.678.062a.82.82 0 0 0 .12.317c.061.096.141.179.236.243l.062.044c.191.129.424.18.651.142.003.113.029.223.077.326s.115.194.199.269l.054.053a.89.89 0 0 0 .614.24c-.021.222.043.444.179.622l.053.062a.83.83 0 0 0 .252.222c.098.056.206.093.318.106-.059.221-.03.457.081.657v.062c.053.101.128.19.218.261a.82.82 0 0 0 .307.148c-.089.216-.089.459 0 .675v.071a.89.89 0 0 0 .482.471c-.113.207-.139.45-.072.675v.08c.107.051.202.124.277.215s.13.198.16.312.034.234.012.35-.068.226-.137.322v.08a.88.88 0 0 0 .144.32.89.89 0 0 0 .257.239.83.83 0 0 0-.156.315c-.03.115-.034.235-.013.351v.08a.82.82 0 0 0 .123.334.83.83 0 0 0 .251.252c-.077.091-.135.198-.171.312s-.047.235-.034.354v.08a.88.88 0 0 0 .112.337.89.89 0 0 0 .236.267.88.88 0 0 0-.19.308.89.89 0 0 0-.051.358v.08a.83.83 0 0 1 .235.273c.057.107.09.226.096.347s-.015.242-.062.355a.82.82 0 0 1-.207.295v.089c.007.121.037.239.091.347a.9.9 0 0 0 .221.283c-.089.083-.161.183-.21.295a.9.9 0 0 0-.075.354v.08c.003.121.03.24.081.35s.123.208.213.29c-.091.082-.164.182-.215.293s-.077.232-.079.355v.08a.9.9 0 0 0 .075.354c.049.112.121.212.21.295a.9.9 0 0 0-.223.287c-.053.11-.084.23-.089.352v.08a.88.88 0 0 0 .277.657c-.095.079-.173.176-.228.286a.89.89 0 0 0-.093.353v.08a.89.89 0 0 0 .065.356c.046.113.115.216.202.301-.096.078-.176.175-.232.285a.88.88 0 0 0-.097.355v.08c.086.087.154.192.198.306s.064.237.058.36-.037.243-.092.353-.132.207-.227.286v.089c.087.087.155.191.2.305s.066.237.061.359-.036.243-.09.353-.13.208-.224.288v.08a.82.82 0 0 0 .267.666.9.9 0 0 0-.23.29.89.89 0 0 0-.091.358v.08c-.003.124.02.248.068.362a.88.88 0 0 0 .208.304c-.095.079-.172.176-.227.286a.87.87 0 0 0-.093.353v.089a.89.89 0 0 0 .065.356.88.88 0 0 0 .202.301c-.095.08-.171.18-.225.291a.9.9 0 0 0-.087.357v.08a.9.9 0 0 0 .067.362c.048.115.119.218.209.304a.9.9 0 0 0-.223.287c-.053.11-.084.23-.089.352v.089a.88.88 0 0 0 .277.657c-.095.081-.171.18-.225.291s-.083.233-.087.357v.08c-.002.123.021.244.069.357a.88.88 0 0 0 .207.3c-.093.081-.168.181-.22.292s-.08.233-.083.356v.089c-.001.123.024.245.073.358s.121.215.212.299a.82.82 0 0 0-.225.29c-.053.112-.079.235-.078.359v.08c.091.083.163.184.212.296s.075.234.075.356-.025.244-.075.356-.121.213-.212.296v.08c-.001.123.024.245.073.359a.91.91 0 0 0 .212.299c-.093.082-.169.183-.221.296a.9.9 0 0 0-.082.361v.08c.091.083.163.184.212.296s.075.234.075.356-.025.244-.075.356-.121.213-.212.296v.08a.9.9 0 0 0 .074.359c.049.113.121.215.212.299-.093.081-.168.181-.22.292s-.081.233-.083.356v.089c0 .124.026.246.077.359s.124.215.217.298c-.093.081-.168.181-.22.292a.88.88 0 0 0-.083.356v.08c.09.083.162.184.212.297a.89.89 0 0 1 0 .712c-.05.113-.122.214-.212.297v.089c-.003.123.021.245.072.357s.127.212.222.291c-.094.082-.17.183-.222.296a.89.89 0 0 0-.081.361v.08c.09.083.162.184.212.297a.89.89 0 0 1 0 .712c-.05.113-.122.214-.212.297v.089c.001.122.028.243.079.354a.88.88 0 0 0 .215.294.89.89 0 0 0-.217.298.87.87 0 0 0-.077.359v.08a.88.88 0 0 0 .081.361c.052.113.128.214.222.296a.88.88 0 0 0-.215.294c-.051.111-.078.232-.079.355v.089a.87.87 0 0 0 .083.355.88.88 0 0 0 .22.293c-.093.083-.166.184-.217.297a.88.88 0 0 0-.077.36v.098c-.001.127.025.253.077.369a.89.89 0 0 0 .223.303.9.9 0 0 0 .33.185c.122.037.25.047.376.031z"/><path d="M126.757 108.346c.224.001.441-.083.606-.234a.89.89 0 0 0 .285-.583v-.053a.89.89 0 0 0-.057-.365.9.9 0 0 0-.202-.31c.1-.075.182-.171.239-.282s.088-.233.091-.357v-.08c.004-.124-.017-.247-.063-.362a.91.91 0 0 0-.204-.305c.096-.077.176-.174.232-.285s.09-.23.097-.354v-.089c.005-.123-.017-.246-.063-.361s-.115-.219-.204-.305a.89.89 0 0 0 .321-.639v-.089c.008-.123-.011-.246-.058-.36s-.118-.215-.209-.297a.89.89 0 0 0 .229-.291c.055-.111.086-.233.091-.358v-.08c.005-.123-.017-.246-.063-.361s-.115-.219-.204-.305c.093-.079.169-.177.223-.287a.88.88 0 0 0 .089-.352v-.089c.002-.123-.022-.245-.069-.358s-.118-.215-.207-.299c.096-.08.174-.178.229-.29s.087-.234.091-.358v-.08c.003-.125-.022-.249-.071-.363s-.122-.218-.214-.303c.097-.077.175-.174.229-.285s.082-.232.083-.355v-.089c-.09-.083-.162-.184-.212-.296a.89.89 0 0 1-.075-.356c0-.123.026-.244.075-.356s.122-.213.212-.296v-.089c-.09-.083-.162-.184-.212-.296a.89.89 0 0 1-.075-.356c0-.123.026-.244.075-.356s.122-.213.212-.296v-.089a.87.87 0 0 0-.079-.355c-.051-.112-.124-.212-.215-.294.094-.082.17-.183.222-.296a.88.88 0 0 0 .081-.361v-.036a.89.89 0 0 0-.077-.36.9.9 0 0 0-.217-.298c.091-.082.164-.182.215-.294a.87.87 0 0 0 .079-.355v-.089a.89.89 0 0 0-.077-.36.9.9 0 0 0-.217-.298c.091-.082.164-.182.215-.293a.87.87 0 0 0 .079-.355v-.089c-.003-.123-.031-.244-.083-.356s-.127-.211-.22-.292c.091-.084.163-.186.212-.299s.074-.235.073-.359v-.08a.88.88 0 0 1-.215-.298c-.051-.113-.076-.236-.076-.359s.025-.246.076-.359a.88.88 0 0 1 .215-.298v-.08a.88.88 0 0 1-.215-.298c-.051-.113-.076-.236-.076-.359s.025-.246.076-.359a.88.88 0 0 1 .215-.298v-.08a.88.88 0 0 1-.215-.298c-.051-.113-.076-.236-.076-.359s.025-.246.076-.359a.88.88 0 0 1 .215-.298v-.08c-.001-.125-.031-.248-.086-.361a.84.84 0 0 0-.235-.288.87.87 0 0 0 .209-.304c.048-.115.071-.238.068-.362v-.098c-.005-.124-.036-.247-.092-.358s-.133-.211-.229-.29c.088-.086.158-.19.204-.305s.068-.238.063-.361v-.08a.88.88 0 0 0-.097-.355.9.9 0 0 0-.232-.285c.088-.088.156-.194.201-.31a.89.89 0 0 0 .057-.365v-.08c-.008-.124-.043-.245-.101-.356a.88.88 0 0 0-.238-.284c.09-.085.16-.189.205-.304s.063-.239.054-.362v-.089a.89.89 0 0 0-.348-.631c.087-.089.154-.195.197-.311s.061-.24.053-.364v-.089a.9.9 0 0 0-.111-.353.89.89 0 0 0-.246-.278c.085-.09.15-.196.192-.312s.058-.24.049-.363v-.089a.88.88 0 0 1-.244-.274.9.9 0 0 1-.112-.349c-.013-.123.001-.247.039-.364a.89.89 0 0 1 .183-.318v-.08a.89.89 0 0 1-.254-.271.88.88 0 0 1-.121-.351.89.89 0 0 1 .033-.369c.037-.119.099-.23.182-.324v-.098a.89.89 0 0 1-.261-.266c-.067-.106-.111-.225-.129-.349a.88.88 0 0 1 .203-.699v-.08c-.017-.124-.061-.243-.131-.348s-.162-.192-.27-.256a.88.88 0 0 0 .168-.331c.033-.121.039-.247.019-.371v-.089c-.107-.064-.199-.15-.271-.253a.9.9 0 0 1-.144-.34c-.023-.122-.021-.248.008-.369s.082-.235.157-.334v-.089c-.022-.123-.072-.24-.146-.342s-.171-.185-.281-.245a.9.9 0 0 0 .147-.34.89.89 0 0 0-.005-.37v-.089a.89.89 0 0 0-.166-.333c-.078-.098-.177-.178-.288-.236.07-.106.117-.226.137-.352s.013-.254-.021-.377v-.08c-.036-.122-.097-.235-.18-.332a.89.89 0 0 0-.302-.228.9.9 0 0 0 .115-.357.9.9 0 0 0-.043-.372v-.08a.89.89 0 0 0-.204-.324c-.091-.092-.201-.163-.322-.209a.89.89 0 0 0 0-.746v-.08c-.126-.038-.243-.101-.344-.186s-.185-.187-.246-.304-.097-.244-.107-.375a.98.98 0 0 1 .046-.387l-.053-.071c-.069-.116-.165-.214-.279-.285s-.246-.113-.38-.123c.027-.13.024-.265-.009-.394s-.093-.249-.179-.352l-.062-.062c-.083-.096-.185-.174-.3-.228a.9.9 0 0 0-.368-.083.89.89 0 0 0-.052-.379c-.044-.121-.115-.231-.207-.322l-.062-.062a.89.89 0 0 0-.334-.2c-.125-.041-.257-.055-.388-.039a.89.89 0 0 0-.347-.684l-.072-.053a.89.89 0 0 0-.362-.157c-.131-.025-.266-.02-.395.015-.022-.132-.073-.257-.151-.366a.89.89 0 0 0-.295-.265l-.365-.071c-.123-.061-.259-.093-.396-.093s-.274.032-.397.093c-.048-.129-.125-.245-.226-.339s-.221-.163-.353-.203h-.089c-.136-.036-.279-.04-.417-.011a.89.89 0 0 0-.376.179c-.077-.116-.179-.213-.3-.282s-.256-.11-.395-.117h-.098a.89.89 0 0 0-.41.094c-.127.063-.237.156-.321.27a.9.9 0 0 0-.362-.199c-.135-.037-.276-.042-.413-.014h-.098c-.135.034-.261.099-.366.19a.89.89 0 0 0-.24.334c-.125-.062-.262-.095-.401-.095a.89.89 0 0 0-.401.095h-.081a.89.89 0 0 0-.31.26.9.9 0 0 0-.162.37.89.89 0 0 0-.404-.019c-.134.025-.261.08-.371.161l-.071.053c-.108.084-.194.193-.253.316s-.088.258-.086.395c-.138-.014-.278.004-.408.053s-.247.128-.34.231l-.081.098a.89.89 0 0 0-.177.635c.025.227.136.435.311.582.181.139.408.204.635.181a.89.89 0 0 0 .586-.305c.147-.163.223-.376.214-.595a.89.89 0 0 0 .623-.178l.063-.044c.175-.136.292-.333.329-.551.214.063.442.044.642-.053h.071a.89.89 0 0 0 .428-.453c.191.101.413.13.624.08h.062c.21-.04.396-.161.517-.337.157.142.359.224.57.231h.072c.213.007.421-.062.588-.195a.89.89 0 0 0 .499.364h.071c.21.06.436.041.633-.053.075.206.224.377.419.48h.062a.89.89 0 0 0 .65.071.89.89 0 0 0 .33.559l.063.053a.89.89 0 0 0 .65.169c.003.23.096.45.258.613l.063.053a.89.89 0 0 0 .29.192c.109.044.225.067.342.066-.023.233.048.466.197.648l.053.062a.89.89 0 0 0 .597.302.82.82 0 0 0 .107.639v.062a.76.76 0 0 1 .316.133.75.75 0 0 1 .225.258c.055.102.085.215.088.331s-.02.23-.068.335v.08c.05.107.121.203.208.282a.89.89 0 0 0 .3.18.84.84 0 0 0 0 .684v.071a.9.9 0 0 0 .464.515.88.88 0 0 0-.114.333c-.016.118-.007.237.024.351v.08a.84.84 0 0 0 .446.533.88.88 0 0 0-.134.334c-.022.119-.018.241.009.359v.08a.91.91 0 0 0 .156.324.89.89 0 0 0 .272.236.84.84 0 0 0-.151.325c-.026.118-.027.24-.001.358v.08c.024.118.072.231.141.33a.9.9 0 0 0 .26.248c-.073.096-.126.207-.155.325a.89.89 0 0 0-.014.359v.08c.018.12.063.235.13.337s.158.186.262.249c-.076.095-.133.205-.165.323a.88.88 0 0 0-.022.361v.08c.015.121.057.238.124.341a.82.82 0 0 0 .259.254c-.079.094-.139.203-.174.32s-.046.242-.031.363v.08c.017.12.057.236.12.34s.147.194.246.264c-.08.092-.141.199-.178.315s-.049.239-.036.36v.08a.89.89 0 0 1 .237.272c.059.106.097.223.109.343s0 .243-.036.358a.89.89 0 0 1-.177.314v.08c.013.123.052.241.113.348a.88.88 0 0 0 .244.273c-.084.089-.148.194-.19.308a.89.89 0 0 0-.051.358v.089c.011.121.047.239.105.346s.138.201.234.276c-.084.089-.148.194-.19.308a.89.89 0 0 0-.051.358v.08a.89.89 0 0 0 .099.35c.057.109.135.204.231.281-.085.088-.152.192-.195.307s-.061.237-.054.359v.027a.89.89 0 0 0 .098.35.9.9 0 0 0 .231.281.88.88 0 0 0-.199.306.87.87 0 0 0-.059.36v.08a.89.89 0 0 1 .314.635c.005.122-.014.243-.057.357a.89.89 0 0 1-.195.305v.08a.89.89 0 0 0 .093.353c.055.11.133.207.228.286-.087.085-.156.188-.202.301s-.068.234-.065.356v.089a.87.87 0 0 0 .093.353c.055.11.132.207.227.286-.089.085-.159.187-.207.3s-.071.235-.069.357v.08a.9.9 0 0 0 .312.648c-.092.081-.166.181-.215.293s-.073.233-.07.356v.089a.88.88 0 0 0 .089.352c.054.11.129.208.223.287a.88.88 0 0 0-.212.299c-.049.113-.074.235-.073.358v.08c.09.083.162.184.212.296a.89.89 0 0 1 0 .713c-.05.112-.122.213-.212.296v.08a.88.88 0 0 1 .282.648.88.88 0 0 1-.282.648v.08c-.001.123.024.245.073.359s.121.215.212.299a.88.88 0 0 0-.215.294.87.87 0 0 0-.079.355v.089c0 .124.026.246.077.36a.9.9 0 0 0 .217.298c-.096.079-.173.178-.226.29a.82.82 0 0 0-.077.359v.08a.88.88 0 0 0 .285.648c-.093.081-.168.181-.22.293s-.08.233-.083.356v.089c-.001.121.023.241.071.353a.88.88 0 0 0 .205.296.9.9 0 0 0-.22.292c-.052.112-.08.233-.083.356v.08c-.002.123.022.244.069.357s.118.215.208.3a.87.87 0 0 0-.312.648v.08c-.002.123.021.244.069.357a.88.88 0 0 0 .207.3c-.093.079-.169.177-.223.288a.88.88 0 0 0-.089.352v.089c.089.083.16.183.208.295s.074.231.074.353-.025.242-.074.353-.119.212-.208.295v.08c-.003.124.02.248.067.363s.119.218.209.303a.91.91 0 0 0-.228.287c-.055.11-.086.23-.093.353v.08a.89.89 0 0 1 .256.66c-.005.121-.035.241-.088.35s-.128.207-.221.287v.08a.89.89 0 0 0 .059.36.91.91 0 0 0 .199.306c-.095.078-.172.176-.227.286a.87.87 0 0 0-.093.353v.071c-.006.123.014.246.059.36s.112.219.199.306c-.096.077-.174.173-.231.281s-.09.228-.099.35v.053a.89.89 0 0 0 .82.888l.25.071z"/><path d="M111.172 103.195c-.221.001-.434-.079-.598-.225s-.269-.347-.293-.565v-.089a.86.86 0 0 1 .049-.363c.041-.116.106-.223.191-.312-.1-.074-.184-.169-.245-.278s-.1-.229-.111-.353v-.08c-.009-.123.007-.246.049-.362a.88.88 0 0 1 .191-.313c-.098-.075-.181-.17-.24-.278s-.097-.229-.107-.352v-.08c.084-.09.149-.196.19-.312s.058-.239.049-.362-.044-.242-.102-.351a.89.89 0 0 0-.235-.28v-.089a.88.88 0 0 1 .055-.359c.043-.115.109-.219.194-.307-.099-.075-.181-.17-.24-.279s-.097-.229-.107-.352v-.089c-.008-.124.01-.247.053-.364s.11-.222.196-.311a.9.9 0 0 1-.236-.28.88.88 0 0 1-.102-.351v-.08a.89.89 0 0 0 .243-.672.87.87 0 0 0-.1-.351.89.89 0 0 0-.232-.282v-.08c-.008-.124.01-.248.053-.364s.11-.222.196-.311a.9.9 0 0 1-.339-.631v-.089a.89.89 0 0 0 .248-.67.9.9 0 0 0-.097-.352.88.88 0 0 0-.231-.283v-.08a.9.9 0 0 1 .059-.36c.045-.115.113-.219.2-.306-.099-.077-.18-.174-.238-.284s-.093-.231-.101-.356v-.08a.89.89 0 0 1 .057-.365c.045-.116.113-.222.201-.31-.095-.077-.174-.172-.23-.281s-.091-.227-.099-.35v-.089c.086-.087.154-.192.198-.306s.064-.237.058-.36-.037-.243-.092-.353-.132-.207-.227-.286v-.08a.89.89 0 0 1 .058-.365.88.88 0 0 1 .201-.31c-.095-.079-.173-.176-.228-.286a.89.89 0 0 1-.093-.353v-.08c.087-.087.155-.191.2-.305s.066-.237.061-.359-.036-.243-.09-.353-.13-.208-.224-.288v-.089c-.005-.124.017-.247.063-.361a.88.88 0 0 1 .204-.305c-.094-.08-.169-.177-.223-.287a.88.88 0 0 1-.089-.352v-.08a.9.9 0 0 1 .276-.666.88.88 0 0 1-.224-.291c-.054-.112-.084-.233-.088-.357v-.08c.092-.083.166-.185.216-.298a.89.89 0 0 0 0-.719c-.05-.113-.124-.215-.216-.298v-.08a.89.89 0 0 1 .072-.363c.049-.115.122-.218.214-.303-.093-.081-.168-.181-.22-.292s-.081-.233-.084-.356v-.08a.89.89 0 0 1 .078-.36.87.87 0 0 1 .217-.298c-.094-.082-.17-.183-.222-.297a.88.88 0 0 1-.081-.361v-.089a.87.87 0 0 1 .294-.648c-.093-.083-.166-.184-.217-.298s-.077-.236-.077-.36v-.089a.82.82 0 0 1 .078-.358c.052-.112.129-.211.225-.29-.092-.085-.165-.188-.214-.303a.89.89 0 0 1-.072-.363v-.08a.88.88 0 0 1 .09-.363c.055-.113.134-.214.231-.294-.09-.086-.161-.189-.209-.304a.9.9 0 0 1-.067-.362v-.08a.9.9 0 0 0 .236-.287c.057-.111.09-.233.097-.358s-.013-.25-.058-.367a.89.89 0 0 0-.204-.311v-.089c.011-.126.048-.248.109-.358a.89.89 0 0 1 .248-.281c-.086-.091-.152-.199-.194-.316a.9.9 0 0 1-.047-.368v-.089a.89.89 0 0 1 .383-.631c-.083-.097-.145-.21-.18-.333a.89.89 0 0 1-.025-.377v-.089a.9.9 0 0 1 .437-.613c-.076-.109-.127-.233-.148-.363a.88.88 0 0 1 .023-.392v-.089a.88.88 0 0 1 .206-.347.89.89 0 0 1 .338-.221c-.055-.117-.083-.244-.083-.373s.028-.256.083-.373v-.071c.121-.036.233-.097.328-.18s.173-.184.226-.298a.88.88 0 0 0 .082-.364c.001-.126-.024-.251-.075-.366l.045-.071c.055-.112.134-.211.231-.291s.209-.138.33-.171c-.053-.116-.08-.241-.08-.369s.027-.253.08-.369l.045-.071c.062-.111.148-.207.251-.282a.89.89 0 0 1 .346-.153.88.88 0 0 1-.037-.378c.016-.127.058-.25.126-.359v-.071a.89.89 0 0 1 .276-.271.9.9 0 0 1 .365-.129c-.029-.127-.03-.259-.002-.386s.083-.247.163-.351l.053-.071a.9.9 0 0 1 .318-.247c.124-.057.259-.085.395-.082a.88.88 0 0 1 .07-.412.89.89 0 0 1 .251-.334l.08-.062c.126-.095.275-.155.431-.173s.315.004.46.067a.89.89 0 0 1 .317-.412c.145-.103.317-.16.494-.165h.152c.193.016.375.093.52.221s.243.3.281.489a.9.9 0 0 1 .508.071c.158.073.291.19.384.337l.08.142-1.577.746c-.052-.091-.088-.19-.107-.293-.08.009-.161.009-.241 0-.123.001-.245-.026-.356-.08-.057.154-.156.289-.286.391l-.044.044c-.166.133-.375.203-.588.195a.89.89 0 0 1-.187.613v.053c-.146.182-.357.3-.588.329a.91.91 0 0 1 .01.349.89.89 0 0 1-.126.326v.062a.89.89 0 0 1-.571.391.88.88 0 0 1 .04.353c-.011.119-.045.235-.102.34v.071c-.055.107-.134.2-.229.274a.83.83 0 0 1-.323.152.9.9 0 0 1 .072.351.9.9 0 0 1-.072.351v.071a.89.89 0 0 1-.221.281c-.092.078-.199.136-.314.172a.88.88 0 0 1 .072.351.88.88 0 0 1-.072.351v.08a.76.76 0 0 0-.497.44c-.044.106-.063.221-.056.335s.041.226.098.326v.071a.81.81 0 0 1-.151.3.82.82 0 0 1-.258.215.89.89 0 0 1 .151.657v.071c-.103.064-.19.15-.255.252s-.107.217-.122.336a.81.81 0 0 0 .217.664v.08c-.014.119-.053.233-.112.337a.89.89 0 0 1-.236.267c.084.089.148.194.19.308a.89.89 0 0 1 .051.358v.08a.89.89 0 0 1-.101.345c-.056.107-.134.201-.229.277.086.086.153.189.198.302a.88.88 0 0 1 .06.355v.08a.87.87 0 0 1-.093.353c-.055.11-.132.208-.227.286a.83.83 0 0 1 .276.648v.089c-.088.083-.158.183-.205.294a.88.88 0 0 0-.072.35.88.88 0 0 0 .072.35.87.87 0 0 0 .205.294v.08c-.089.083-.16.183-.209.295s-.073.232-.073.353.025.242.073.353.12.212.209.295v.089c.003.122-.021.244-.07.356s-.123.212-.215.293c.091.082.164.182.215.294s.077.232.079.355v.08c-.002.123-.029.243-.079.355s-.124.212-.215.294a.88.88 0 0 1 .224.291c.054.112.084.233.088.357v.089a.9.9 0 0 1-.075.354c-.049.112-.121.212-.211.295.095.081.171.18.225.291a.87.87 0 0 1 .087.357v.08a.88.88 0 0 1-.276.657c.094.079.169.177.223.287a.88.88 0 0 1 .089.352v.089a.89.89 0 0 1-.065.356c-.046.113-.115.215-.202.301a.9.9 0 0 1 .223.287c.053.11.084.23.089.352v.08c.004.123-.018.247-.064.361a.88.88 0 0 1-.204.305c.094.078.171.174.226.282s.088.227.095.349v.089a.89.89 0 0 1-.063.361c-.046.115-.116.219-.204.305.099.073.181.168.238.277s.088.23.091.353v.089c.008.122-.011.244-.056.357a.82.82 0 0 1-.202.3c.097.078.176.175.233.285a.91.91 0 0 1 .097.354v.08a.9.9 0 0 0-.197.308c-.043.115-.062.238-.055.361s.039.243.094.352.134.207.229.285v.08c.005.123-.015.245-.059.36s-.112.219-.199.306a.9.9 0 0 1 .231.281.89.89 0 0 1 .098.35v.089a.87.87 0 0 1-.059.36.88.88 0 0 1-.199.306.9.9 0 0 1 .236.28.88.88 0 0 1 .102.351v.08a.89.89 0 0 0-.243.672c.009.123.042.242.1.351a.88.88 0 0 0 .233.282v.08a.88.88 0 0 0-.189.309c-.041.115-.058.237-.05.359s.042.24.098.349a.9.9 0 0 0 .23.281v.089c.006.122-.012.244-.055.359s-.11.219-.195.307a.89.89 0 0 1 .348.631v.089c-.101.078-.184.177-.243.29s-.094.237-.1.364.014.254.06.373a.89.89 0 0 0 .211.314v.08c.008.124-.01.248-.053.364s-.11.222-.196.311c.1.072.183.165.243.272a.83.83 0 0 1 .104.35v.089a.89.89 0 0 1-.05.358c-.042.115-.106.22-.19.308a.94.94 0 0 1 .237.281.92.92 0 0 1 .11.35v.08a.88.88 0 0 1-.049.363c-.041.116-.106.222-.191.312a.9.9 0 0 1 .244.273c.061.107.099.226.112.349v.088c.015.23-.06.457-.21.633s-.362.286-.592.309l-.044-.018z"/><path d="M110.664 107.041a.89.89 0 0 1-.892-.737v-.08c-.018-.122-.011-.247.021-.366s.089-.231.167-.327a.88.88 0 0 1-.257-.266c-.066-.105-.109-.224-.127-.347v-.08c-.016-.123-.006-.249.029-.368s.095-.23.176-.325c-.104-.067-.192-.156-.26-.26a.9.9 0 0 1-.132-.344v-.079c.081-.095.14-.206.175-.325a.88.88 0 0 0 .027-.368c-.017-.123-.059-.241-.125-.346a.88.88 0 0 0-.255-.267v-.08c-.015-.122-.005-.246.031-.363a.88.88 0 0 1 .174-.321.88.88 0 0 1-.252-.267c-.064-.105-.106-.223-.122-.346v-.071a.88.88 0 0 1 .035-.364c.036-.118.097-.227.179-.32-.104-.068-.192-.158-.257-.264s-.105-.225-.118-.348v-.08c.082-.093.143-.202.18-.32a.87.87 0 0 0 .034-.366.88.88 0 0 0-.117-.348.89.89 0 0 0-.248-.271v-.08c-.013-.123 0-.248.039-.365a.88.88 0 0 1 .184-.318.89.89 0 0 1-.249-.272c-.063-.107-.103-.226-.117-.349v-.08a.83.83 0 0 1 .033-.367c.039-.118.104-.227.19-.317-.101-.073-.186-.165-.249-.272s-.102-.226-.116-.349v-.08c-.012-.124.003-.249.043-.366s.104-.226.188-.317a.89.89 0 0 1-.248-.272c-.063-.107-.103-.226-.117-.35v-.08c-.011-.124.003-.249.043-.367s.104-.226.189-.317a.88.88 0 0 1-.244-.273c-.061-.107-.1-.226-.113-.348v-.08c-.01-.124.006-.25.048-.367a.88.88 0 0 1 .193-.316.89.89 0 0 1-.244-.273c-.061-.107-.1-.226-.112-.348v-.089a.88.88 0 0 0 .188-.314c.041-.116.056-.24.046-.363a.88.88 0 0 0-.104-.35.9.9 0 0 0-.237-.279v-.08a.9.9 0 0 0 .196-.312c.042-.117.06-.241.052-.365s-.043-.245-.101-.354-.139-.206-.237-.283v-.08a.89.89 0 0 1 .058-.365.88.88 0 0 1 .201-.31c-.101-.073-.184-.167-.242-.276s-.092-.23-.097-.354v-.089a.9.9 0 0 1 .059-.36c.045-.115.113-.219.2-.306a.89.89 0 0 1-.233-.285.88.88 0 0 1-.097-.355v-.089c-.008-.124.011-.248.057-.364s.118-.219.21-.303a.9.9 0 0 1-.234-.289c-.057-.112-.089-.234-.095-.359v-.08a.81.81 0 0 1 .056-.364.82.82 0 0 1 .211-.302.9.9 0 0 1-.23-.29.89.89 0 0 1-.091-.358v-.08a.9.9 0 0 1 .067-.362c.048-.115.119-.218.209-.304-.094-.08-.171-.18-.224-.291a.87.87 0 0 1-.087-.357v-.08a.88.88 0 0 1 .075-.364c.051-.115.125-.218.219-.302-.095-.08-.171-.18-.225-.291a.87.87 0 0 1-.087-.357v-.089a.88.88 0 0 1 .081-.361c.052-.113.128-.214.222-.296a.84.84 0 0 1-.222-.295.82.82 0 0 1-.072-.362v-.089c.002-.123.031-.244.083-.356s.127-.211.22-.292c-.092-.085-.165-.188-.214-.303a.89.89 0 0 1-.072-.363v-.08c.005-.124.036-.246.092-.358s.133-.211.229-.29a.9.9 0 0 1-.211-.308c-.047-.116-.069-.242-.065-.367v-.08a.9.9 0 0 0 .234-.289c.056-.112.088-.234.094-.359a.88.88 0 0 0-.06-.366c-.046-.117-.116-.222-.206-.309v-.08c.009-.124.043-.245.101-.356s.14-.207.238-.284a.88.88 0 0 1-.193-.316c-.042-.118-.058-.243-.048-.368v-.08a.9.9 0 0 1 .111-.353.89.89 0 0 1 .246-.277c-.084-.093-.148-.203-.186-.323a.89.89 0 0 1-.037-.37v-.124c.016-.125.059-.245.125-.352s.154-.199.258-.27c-.082-.096-.143-.208-.178-.329s-.044-.248-.027-.373v-.08c.021-.126.068-.245.139-.351s.163-.195.271-.262a.9.9 0 0 1-.166-.336c-.031-.123-.035-.25-.012-.374v-.089a.83.83 0 0 1 .147-.342c.074-.102.17-.185.281-.244a.88.88 0 0 1-.134-.728v-.08a.89.89 0 0 1 .174-.335c.082-.098.183-.178.298-.233-.067-.109-.11-.232-.125-.359a.88.88 0 0 1 .036-.378v-.089c.043-.123.112-.236.203-.329s.201-.166.323-.213a.89.89 0 0 1 0-.746v-.089c.057-.119.141-.224.244-.307a.89.89 0 0 1 .353-.173c-.045-.127-.06-.263-.045-.397a.89.89 0 0 1 .134-.376l.054-.08a.89.89 0 0 1 .703-.382c-.019-.139-.005-.281.042-.414s.124-.253.226-.35l.062-.062c.096-.086.209-.151.332-.189s.253-.05.381-.033c.004-.128.035-.254.092-.369a.89.89 0 0 1 .238-.297l.071-.053a.89.89 0 0 1 .351-.167c.128-.029.261-.03.389-.002.015-.129.059-.254.129-.364s.162-.204.272-.275h.08c.259.077.537.051.778-.071a1.05 1.05 0 0 0 .514-.586h.08c.131-.049.272-.067.412-.051s.273.063.39.14c.066-.127.163-.236.281-.318s.254-.134.396-.152h.098a.89.89 0 0 1 .429.067c.136.057.255.147.347.261a.89.89 0 0 1 .837-.213h.107a.89.89 0 0 1 .385.245.88.88 0 0 1 .212.403c.154-.048.318-.054.475-.016a.89.89 0 0 1 .416.23l.116.124-1.346 1.101c.002-.089-.021-.176-.065-.253a.49.49 0 0 0-.442-.243c-.089.003-.175.03-.25.079h-.053c-.184-.052-.347-.16-.464-.311a.83.83 0 0 1-.517.24h-.062c-.21.025-.421-.026-.597-.142a.84.84 0 0 1-.454.417h-.072a.89.89 0 0 1-.641 0 .89.89 0 0 1-.392.524h-.072a.83.83 0 0 1-.659.107.88.88 0 0 1-.106.33.87.87 0 0 1-.224.265h-.062c-.093.071-.199.124-.312.154s-.231.038-.348.023c-.001.118-.026.235-.074.343a.88.88 0 0 1-.202.287l-.053.053c-.159.144-.365.226-.579.231a.89.89 0 0 1-.134.613v.062c-.125.187-.316.321-.535.373a.88.88 0 0 1 0 .657v.071a.82.82 0 0 1-.196.279c-.085.078-.185.138-.294.174.054.105.087.219.096.337a.89.89 0 0 1-.042.347v.071c-.038.112-.098.215-.176.303s-.173.16-.279.212c.062.1.103.211.121.327a.87.87 0 0 1-.014.348v.08a.88.88 0 0 1-.153.318c-.072.095-.163.174-.266.233.07.097.119.206.145.322a.89.89 0 0 1 .007.353v.08c-.024.118-.072.231-.141.33s-.157.183-.26.248a.89.89 0 0 1 .163.318c.032.116.04.237.024.357v.08c-.019.119-.061.234-.126.336a.89.89 0 0 1-.248.259.89.89 0 0 1 .17.312c.036.114.047.235.035.354v.089c-.016.12-.055.235-.116.338a.89.89 0 0 1-.241.266c.082.089.145.195.185.309s.056.236.047.357v.08c-.012.122-.049.24-.109.347s-.141.201-.239.275a.88.88 0 0 1 .193.303.89.89 0 0 1 .057.354v.089a.89.89 0 0 1-.101.345.87.87 0 0 1-.229.277c.086.086.153.189.198.302a.9.9 0 0 1 .061.355v.089a.9.9 0 0 1-.095.349c-.055.108-.132.204-.226.282.089.085.159.187.207.3s.071.235.069.357v.08a.88.88 0 0 1-.089.352.9.9 0 0 1-.223.287c.092.081.166.18.215.293s.073.234.07.356v.124a.88.88 0 0 0-.282.648.88.88 0 0 0 .282.648v.08a.88.88 0 0 0-.282.648c0 .122.025.242.074.353a.88.88 0 0 0 .208.295v.08c.002.123-.021.244-.069.357a.88.88 0 0 1-.207.3.9.9 0 0 1 .223.287.88.88 0 0 1 .089.352v.08c.002.123-.022.244-.069.357s-.118.215-.207.3c.095.079.172.176.227.286a.87.87 0 0 1 .093.353v.08c.005.123-.017.246-.063.361a.88.88 0 0 1-.204.305c.099.074.18.169.237.278s.088.23.093.352v.08c.011.123-.007.248-.052.363a.79.79 0 0 1-.207.303c.097.078.176.175.233.285a.88.88 0 0 1 .097.354v.08a.88.88 0 0 1-.055.359c-.043.115-.109.219-.194.307a.9.9 0 0 1 .231.281.89.89 0 0 1 .098.35v.08c-.083.089-.148.194-.189.309s-.058.237-.049.359.042.24.098.348a.88.88 0 0 0 .229.281v.08a.86.86 0 0 1-.049.363.88.88 0 0 1-.191.312.89.89 0 0 1 .239.275.87.87 0 0 1 .108.347v.115a.89.89 0 0 1-.044.362c-.04.116-.104.223-.187.313.097.074.179.168.239.275a.9.9 0 0 1 .108.347v.089a.9.9 0 0 0-.18.312c-.038.115-.052.237-.041.357s.047.238.104.344a.9.9 0 0 0 .233.275v.08a.83.83 0 0 1-.04.363c-.04.117-.105.223-.192.312a.89.89 0 0 1 .249.272c.063.107.103.226.117.349v.08c.011.124-.003.249-.043.366a.88.88 0 0 1-.189.317.89.89 0 0 1 .247.268.88.88 0 0 1 .118.345v.08c.013.123 0 .248-.038.365s-.101.226-.184.319a.89.89 0 0 1 .247.268.88.88 0 0 1 .118.344v.08c.016.121.005.245-.032.361s-.099.224-.182.314a.88.88 0 0 1 .252.267c.065.105.106.223.122.346v.089c.013.121.001.243-.036.36a.88.88 0 0 1-.178.315c.102.071.188.162.252.267a.88.88 0 0 1 .123.346v.08c-.078.094-.136.203-.169.32a.88.88 0 0 0-.027.361c.015.121.056.237.119.341s.147.195.246.266v.089a.89.89 0 0 0-.167.321.88.88 0 0 0-.025.361c.017.121.058.237.122.341s.148.194.248.265v.08a.88.88 0 0 0-.165.322c-.033.118-.04.241-.023.362a.89.89 0 0 0 .125.341.88.88 0 0 0 .25.262v.08c.017.122.008.245-.026.363a.88.88 0 0 1-.17.321c.104.068.193.157.26.261a.87.87 0 0 1 .132.343v.071c.032.227-.026.457-.16.642s-.336.312-.561.353l-.196.009z"/><path d="M106.271 109.137c-.227-.014-.44-.113-.596-.278a.89.89 0 0 1-.242-.61v-.08c.006-.123.038-.243.093-.354a.89.89 0 0 1 .228-.286.8.8 0 0 1-.267-.657v-.08a.86.86 0 0 1 .091-.358c.055-.112.133-.211.229-.29a.9.9 0 0 1-.207-.3c-.047-.113-.071-.235-.069-.357v-.089c.005-.123.035-.242.089-.352s.13-.208.223-.288a.87.87 0 0 1-.207-.3c-.048-.113-.071-.234-.069-.357v-.08a.87.87 0 0 1 .087-.357c.054-.112.13-.211.225-.291a.89.89 0 0 1-.208-.3c-.047-.113-.071-.235-.069-.358v-.079a.89.89 0 0 0 .212-.297c.05-.112.075-.234.075-.356a.88.88 0 0 0-.075-.357c-.049-.112-.121-.213-.212-.296v-.08a.9.9 0 0 1 .087-.357.89.89 0 0 1 .225-.291.9.9 0 0 1-.207-.3c-.047-.113-.071-.235-.069-.358v-.124c.004-.124.033-.245.087-.357s.13-.211.225-.291a.88.88 0 0 1-.207-.3c-.048-.113-.071-.235-.069-.357v-.08a.87.87 0 0 1 .087-.357.88.88 0 0 1 .224-.291c-.09-.084-.162-.186-.211-.299s-.074-.235-.074-.358v-.08a.9.9 0 0 1 .312-.648.9.9 0 0 1-.212-.299c-.049-.113-.074-.235-.073-.359v-.08a.9.9 0 0 1 .312-.648.88.88 0 0 1-.212-.299c-.049-.113-.074-.235-.073-.358v-.08a.88.88 0 0 1 .083-.356c.052-.112.127-.211.22-.292-.091-.084-.163-.186-.212-.299s-.074-.235-.073-.359v-.08a.88.88 0 0 1 .083-.356c.052-.112.127-.211.22-.292-.091-.084-.163-.186-.212-.299s-.074-.235-.074-.359v-.08a.88.88 0 0 1 .084-.356c.052-.112.127-.211.219-.292a.91.91 0 0 1-.212-.299c-.049-.113-.074-.235-.073-.358v-.08c.091-.083.163-.184.212-.296s.075-.234.075-.356-.025-.244-.075-.356-.121-.213-.212-.297v-.08c.002-.123.029-.243.079-.355s.124-.212.215-.294c-.09-.084-.163-.186-.212-.299s-.074-.235-.073-.358v-.044c.002-.123.029-.243.079-.355s.124-.212.215-.294c-.091-.082-.164-.182-.215-.293s-.077-.232-.079-.355V86c.002-.122.029-.243.079-.355s.124-.212.215-.293c-.094-.082-.169-.183-.221-.297s-.08-.236-.082-.361v-.08a.89.89 0 0 1 .078-.36.88.88 0 0 1 .216-.298.9.9 0 0 1-.22-.293c-.052-.112-.08-.233-.083-.356v-.08c.001-.124.027-.246.078-.36s.124-.215.216-.298a.82.82 0 0 1-.225-.29c-.053-.112-.079-.235-.078-.359v-.08c0-.123.025-.245.074-.359s.121-.215.212-.299a.9.9 0 0 1-.219-.288.87.87 0 0 1-.084-.351v-.089c-.003-.122.021-.244.07-.356s.123-.212.215-.293c-.095-.081-.171-.18-.225-.291s-.083-.233-.087-.357v-.089a.89.89 0 0 1 .077-.36.9.9 0 0 1 .217-.298c-.094-.082-.17-.183-.222-.296a.88.88 0 0 1-.081-.361v-.08c.003-.125.032-.249.085-.362a.89.89 0 0 1 .227-.295c-.094-.084-.168-.187-.219-.302s-.076-.239-.075-.364v-.089a.89.89 0 0 1 .091-.358c.055-.112.133-.211.23-.29a.87.87 0 0 1-.209-.304c-.048-.115-.071-.238-.068-.362v-.089a.91.91 0 0 1 .097-.354c.057-.11.136-.207.233-.285a.88.88 0 0 1-.201-.31c-.045-.116-.064-.24-.057-.365v-.089a.87.87 0 0 1 .109-.358c.061-.11.145-.206.247-.281a.88.88 0 0 1-.193-.316c-.042-.118-.058-.243-.048-.367v-.089c.015-.124.057-.243.121-.351s.151-.2.254-.271c-.084-.095-.146-.207-.183-.328s-.048-.248-.031-.374v-.08c.015-.126.059-.247.129-.353s.162-.195.272-.26c-.079-.099-.135-.214-.166-.336s-.035-.25-.012-.374v-.089a.9.9 0 0 0 .293-.247c.078-.103.133-.221.161-.347a.88.88 0 0 0 .001-.382c-.028-.126-.083-.244-.161-.347v-.08c.029-.125.087-.241.169-.34s.185-.177.303-.229a.89.89 0 0 1-.128-.363c-.015-.129-.002-.26.039-.383v-.08a.97.97 0 0 0 .317-.216c.09-.092.161-.202.208-.322s.071-.248.068-.377-.032-.256-.085-.373v-.08a.98.98 0 0 0 .344-.183c.101-.083.184-.186.245-.302s.097-.243.108-.373a.99.99 0 0 0-.047-.386l.054-.071c.262-.046.496-.192.651-.408s.219-.484.177-.746l.054-.071a.89.89 0 0 1 .316-.235c.122-.054.255-.08.388-.076a.87.87 0 0 1 .062-.387.88.88 0 0 1 .223-.323l.071-.062c.134.017.27.008.399-.027s.252-.096.358-.179a1.02 1.02 0 0 0 .384-.682l.071-.044a1 1 0 0 0 1.23-.684l.08-.044a.89.89 0 0 1 .374-.082c.13 0 .257.028.375.082.041-.122.109-.234.198-.328a.89.89 0 0 1 .318-.214h.081a.89.89 0 0 1 .766.071c.057-.122.141-.229.246-.314s.228-.144.36-.175h.089c.147-.029.3-.021.443.024s.273.125.377.234a.89.89 0 0 1 .41-.249c.158-.044.324-.044.481 0l.142.053c.289.704.644 1.379 1.061 2.016a1.58 1.58 0 0 1 0 .169l-1.684-.453v-.124c-.033-.092-.093-.172-.173-.228s-.175-.087-.273-.087-.193.03-.273.087-.14.136-.172.228h-.072c-.108.026-.221.03-.331.011a.84.84 0 0 1-.31-.118c-.046.105-.113.2-.197.278a.84.84 0 0 1-.293.175h-.072a.89.89 0 0 1-.343.069c-.117 0-.234-.023-.343-.069a.89.89 0 0 1-.445.506h-.072c-.107-.043-.222-.061-.337-.053a.78.78 0 0 0-.329.097c-.1.056-.187.134-.254.228a.77.77 0 0 0-.131.315l-.062.044a.75.75 0 0 0-.338-.013c-.113.022-.218.069-.309.137a.73.73 0 0 0-.217.259c-.052.102-.08.214-.081.327l-.062.053c-.113-.013-.227-.001-.334.037a.74.74 0 0 0-.282.18c-.08.081-.139.178-.175.286s-.045.221-.029.333v.062c-.149.175-.359.287-.588.311a.89.89 0 0 1-.107.648v.071a.76.76 0 0 0-.317.133c-.093.068-.17.156-.225.258a.75.75 0 0 0-.087.331c-.004.115.019.23.067.335v.071a.89.89 0 0 1-.49.462c.089.216.089.459 0 .675v.071a.81.81 0 0 0-.452.514.81.81 0 0 0-.023.35c.018.117.062.228.128.326v.08a.9.9 0 0 1-.154.318c-.072.095-.162.174-.265.233a.89.89 0 0 1 .144.322c.026.116.029.236.007.353v.08a.89.89 0 0 1-.392.568c.076.094.131.202.164.318s.04.237.023.357v.08a.88.88 0 0 1-.125.336c-.065.102-.149.191-.249.259.081.09.142.196.181.31s.052.236.042.356v.124a.89.89 0 0 0-.327.617c-.01.12.004.24.042.354s.098.219.178.309v.08c-.091.078-.165.173-.218.281s-.084.224-.091.344.011.239.052.352.104.216.186.303v.08a.9.9 0 0 1-.095.348c-.055.109-.132.205-.226.282a.88.88 0 0 1 .276.657v.08a.89.89 0 0 1-.085.351c-.052.11-.126.208-.218.288a.88.88 0 0 1 .21.295c.05.112.075.232.075.354v.08a.87.87 0 0 1-.294.648c.093.081.168.181.22.292a.88.88 0 0 1 .083.356v.08a.88.88 0 0 1-.285.648c.093.081.168.181.22.292s.081.233.083.356v.089c0 .124-.026.246-.077.36a.9.9 0 0 1-.217.298c.095.08.171.18.225.291s.083.233.087.357v.08a.89.89 0 0 1-.077.36.9.9 0 0 1-.217.298c.093.081.168.181.22.293s.08.233.083.356v.089a.89.89 0 0 1-.077.36.9.9 0 0 1-.217.298c.095.079.172.178.224.29a.82.82 0 0 1 .079.358v.133a.9.9 0 0 0-.216.298.89.89 0 0 0 0 .719.9.9 0 0 0 .216.298v.08c-.091.083-.163.184-.212.297s-.075.234-.075.356.025.244.075.356.121.213.212.297v.089c-.002.123-.029.243-.079.355s-.124.212-.215.294a.9.9 0 0 1 .217.298.91.91 0 0 1 .077.36v.08a.91.91 0 0 1-.077.36.9.9 0 0 1-.217.298c.092.081.165.181.215.293s.073.233.07.356v.089c-.003.123-.031.244-.083.356s-.127.211-.22.292a.9.9 0 0 1 .217.298.89.89 0 0 1 .077.36v.08c-.003.123-.031.244-.083.356s-.127.211-.22.292c.091.084.163.186.212.299s.074.235.073.359v.089a.89.89 0 0 0-.212.296c-.049.112-.075.234-.075.356a.89.89 0 0 0 .287.653v.08a.89.89 0 0 0-.287.653.89.89 0 0 0 .287.653v.089c-.004.124-.033.245-.087.357s-.13.211-.225.291a.88.88 0 0 1 .212.299c.049.113.074.235.073.359a.87.87 0 0 1-.087.357c-.054.112-.13.211-.224.291.089.085.159.187.207.3s.071.235.069.358v.089c-.001.123-.03.244-.084.355a.83.83 0 0 1-.228.285c.092.085.165.188.214.303a.89.89 0 0 1 .071.363v.08a.89.89 0 0 1-.087.358.9.9 0 0 1-.225.291c.091.084.163.185.212.299a.88.88 0 0 1 .073.358v.08c-.09.083-.162.184-.212.297a.89.89 0 0 0 0 .712.91.91 0 0 0 .212.297v.088c-.006.123-.037.244-.093.354a.89.89 0 0 1-.228.286.87.87 0 0 1 .209.304c.048.115.071.238.068.362v.08a.88.88 0 0 1-.092.358c-.055.112-.133.211-.229.29.089.085.16.187.207.3a.88.88 0 0 1 .069.358v.088c-.094.08-.17.178-.224.288a.89.89 0 0 0-.09.354.88.88 0 0 0 .061.359c.044.114.113.218.2.305v.124a.9.9 0 0 0-.225.288c-.054.11-.084.231-.089.353s.015.246.06.36.113.218.2.305v.089c-.018.231-.126.445-.301.598a.89.89 0 0 1-.634.219z"/><path d="M104.016 106.81c-.219-.013-.426-.106-.581-.262s-.246-.363-.256-.582v-.053c-.004-.124.019-.248.067-.362s.119-.219.209-.304a.89.89 0 0 1-.22-.293c-.052-.111-.08-.233-.083-.356v-.088c-.001-.124.024-.246.073-.359s.121-.215.212-.299c-.093-.081-.168-.181-.22-.292s-.08-.233-.083-.356v-.089c0-.124.027-.246.077-.36s.125-.214.217-.297c-.096-.079-.173-.178-.225-.29s-.079-.235-.078-.358v-.08c-.004-.125.02-.249.071-.363a.82.82 0 0 1 .223-.295.88.88 0 0 1-.303-.657v-.08a.91.91 0 0 1 .077-.359.9.9 0 0 1 .217-.298c-.091-.082-.164-.182-.215-.293s-.077-.232-.079-.355v-.098c.003-.123.031-.244.083-.356s.127-.211.22-.292a.9.9 0 0 1-.217-.298.89.89 0 0 1-.077-.36v-.089c.003-.123.031-.244.083-.356s.127-.211.22-.293a.88.88 0 0 1-.212-.299c-.049-.113-.074-.235-.073-.359v-.08c-.001-.124.026-.246.078-.358a.84.84 0 0 1 .225-.29c-.091-.084-.163-.186-.212-.299s-.074-.235-.073-.358v-.089c.09-.083.162-.184.212-.296a.89.89 0 0 0 .075-.356c0-.123-.026-.244-.075-.356s-.122-.213-.212-.297v-.089c.001-.123.029-.244.083-.355a.82.82 0 0 1 .229-.285c-.092-.085-.165-.188-.214-.303a.89.89 0 0 1-.072-.363v-.08c.004-.124.034-.245.088-.357a.88.88 0 0 1 .224-.291c-.089-.085-.159-.187-.207-.3s-.071-.235-.069-.358v-.089a.89.89 0 0 1 .093-.353c.055-.11.133-.207.228-.286-.09-.086-.161-.189-.209-.304s-.07-.238-.067-.362v-.115a.89.89 0 0 0 .224-.288c.054-.11.085-.231.09-.353s-.016-.245-.061-.359a.89.89 0 0 0-.2-.305v-.08a.88.88 0 0 1 .097-.354.89.89 0 0 1 .233-.285.88.88 0 0 1-.199-.306c-.045-.115-.065-.237-.06-.36v-.089c.009-.124.043-.245.102-.356s.139-.207.237-.284c-.09-.085-.159-.189-.204-.304a.83.83 0 0 1-.054-.362v-.089c.096-.077.175-.173.233-.282s.091-.229.099-.352a.89.89 0 0 0-.243-.672v-.089a.89.89 0 0 0 .235-.28.88.88 0 0 0 .102-.351c.009-.123-.007-.246-.049-.362a.89.89 0 0 0-.19-.312v-.08c.009-.123.044-.242.103-.351s.138-.204.235-.28a.88.88 0 0 1-.191-.312c-.042-.116-.058-.24-.049-.363v-.089c.013-.123.051-.241.112-.348s.145-.2.244-.273a.88.88 0 0 1-.193-.316c-.042-.118-.058-.243-.047-.367v-.08a.89.89 0 0 0 .243-.274.88.88 0 0 0 .113-.349.9.9 0 0 0-.039-.364c-.039-.118-.101-.226-.184-.318v-.08c.014-.123.054-.242.117-.349a.89.89 0 0 1 .249-.272.88.88 0 0 1-.184-.319.87.87 0 0 1-.039-.365v-.009a.89.89 0 0 1 .122-.346c.065-.105.15-.197.252-.267a.88.88 0 0 1-.205-.693v-.08a.88.88 0 0 0 .38-.613c.017-.123.008-.248-.027-.367a.88.88 0 0 0-.175-.325v-.08a.9.9 0 0 1 .135-.35c.069-.106.16-.195.266-.263-.079-.096-.137-.206-.171-.326a.89.89 0 0 1-.025-.367v-.089c.019-.123.064-.24.134-.343a.83.83 0 0 1 .267-.252.9.9 0 0 1-.164-.332c-.03-.121-.035-.247-.014-.37v-.08a.88.88 0 0 1 .146-.342c.072-.102.165-.189.273-.253-.077-.1-.132-.215-.161-.337a.87.87 0 0 1-.008-.373v-.08c.027-.123.079-.239.155-.34a.89.89 0 0 1 .281-.246.9.9 0 0 1-.147-.34c-.025-.122-.023-.249.005-.37v-.08c.031-.121.088-.235.166-.333s.176-.178.288-.236a.89.89 0 0 1-.14-.346c-.021-.124-.016-.251.015-.373v-.089a.89.89 0 0 1 .178-.325c.081-.095.182-.172.295-.225-.066-.108-.109-.229-.124-.355a.89.89 0 0 1 .035-.374v-.089a.88.88 0 0 1 .192-.32c.086-.092.19-.164.307-.213a.86.86 0 0 1-.103-.364.88.88 0 0 1 .058-.373v-.08c.048-.12.121-.228.215-.317a.89.89 0 0 1 .329-.198c-.055-.117-.083-.244-.083-.373s.028-.256.083-.373v-.08a.89.89 0 0 1 .25-.299c.105-.08.226-.136.355-.163-.043-.126-.058-.26-.042-.392a.87.87 0 0 1 .132-.372l.053-.071c.076-.112.176-.206.293-.273a.9.9 0 0 1 .384-.117c-.02-.13-.012-.262.025-.388s.102-.242.189-.34l.062-.062c.087-.093.192-.166.308-.215s.243-.073.37-.069c-.009-.13.012-.26.059-.382a.89.89 0 0 1 .217-.32l.071-.053c.098-.086.213-.149.337-.186s.256-.046.385-.027a.9.9 0 0 1 .106-.379.89.89 0 0 1 .259-.296l.072-.053a.89.89 0 0 1 .37-.145c.132-.02.268-.01.396.03.026-.133.082-.258.164-.365a.89.89 0 0 1 .308-.256h.081a.89.89 0 0 1 .396-.093c.138 0 .273.032.397.093.05-.129.131-.245.235-.337s.227-.16.362-.196h.089a.89.89 0 0 1 .414 0c.136.032.263.096.37.187a.89.89 0 0 1 .713-.373h.098a1.16 1.16 0 0 0 .714.383c.277.038.558-.026.792-.178h.089a.84.84 0 0 1 .363.196c.103.095.18.213.225.345.124-.062.262-.095.401-.095s.276.033.401.095h.08a.9.9 0 0 1 .446.648.89.89 0 0 1 .406-.011c.134.028.261.086.369.17l.071.062c.104.088.186.199.24.323a.88.88 0 0 1 .072.396c.139-.01.278.014.407.068a.9.9 0 0 1 .333.243l.071.098a.89.89 0 0 1 .233.316.88.88 0 0 1 .075.385c-.005.132-.039.262-.1.38s-.148.22-.253.3-.229.135-.359.162a.89.89 0 0 1-.393-.008c-.129-.032-.249-.092-.352-.176a.89.89 0 0 1-.241-.31v-.044a.88.88 0 0 1-.196-.595.89.89 0 0 1-.615-.195l-.054-.053a.89.89 0 0 1-.32-.56c-.213.055-.438.029-.633-.071h-.062c-.195-.103-.344-.274-.419-.48a.84.84 0 0 1-.624.062h-.062a.89.89 0 0 1-.508-.355c-.162.138-.367.213-.579.213h-.072a.84.84 0 0 1-.579-.222.89.89 0 0 1-.517.355h-.062c-.214.052-.439.023-.633-.08a.83.83 0 0 1-.171.279.84.84 0 0 1-.265.192h-.063a.73.73 0 0 0-.332-.054c-.113.008-.223.042-.321.1a.72.72 0 0 0-.242.233.73.73 0 0 0-.112.316l-.062.044c-.189.133-.422.187-.651.151-.01.234-.112.454-.285.613l-.062.053c-.174.153-.401.233-.633.222a.87.87 0 0 1-.052.343c-.04.11-.101.211-.179.297l-.054.062a.89.89 0 0 1-.597.284c.036.219-.011.444-.134.631v.071a.89.89 0 0 1-.543.373c.087.214.087.453 0 .666v.071c-.053.104-.126.197-.214.273s-.192.134-.303.171a.84.84 0 0 1 0 .684v.08c-.113.04-.216.106-.301.191s-.15.188-.19.301-.054.234-.042.353.052.234.114.337v.08a.83.83 0 0 0-.464.519.82.82 0 0 0 .099.689v.08a.89.89 0 0 1-.166.321c-.076.095-.172.173-.28.229a.81.81 0 0 1 .138.328.82.82 0 0 1-.013.356v.08c-.108.057-.202.137-.276.235a.85.85 0 0 0-.151.328.83.83 0 0 0-.001.361c.027.119.078.231.152.328v.08c-.025.119-.075.232-.145.331a.9.9 0 0 1-.265.246c.072.097.123.208.151.326s.031.239.009.358v.08a.89.89 0 0 1-.139.335c-.069.101-.158.186-.262.251a.88.88 0 0 1 .187.684v.08a.81.81 0 0 1-.128.342.83.83 0 0 1-.264.253.88.88 0 0 1 .17.322.87.87 0 0 1 .026.362v.08a.88.88 0 0 1-.383.604c.079.093.137.2.173.316a.89.89 0 0 1 .032.359v.08a.89.89 0 0 1-.374.613.89.89 0 0 1 .177.315c.037.116.05.239.037.36v.08c-.015.122-.056.239-.119.345s-.146.197-.247.268c.084.09.146.197.183.314s.047.24.031.361v.08c-.014.123-.053.242-.116.349a.89.89 0 0 1-.249.272.83.83 0 0 1 .191.307c.04.115.054.238.041.359v.089c-.096.075-.175.168-.233.275s-.093.224-.104.344.003.242.041.357.099.221.18.312v.08c-.009.123-.044.242-.104.35a.83.83 0 0 1-.244.272c.087.089.154.195.197.311s.061.24.053.364v.08a.9.9 0 0 1-.103.351.89.89 0 0 1-.236.28.88.88 0 0 1 .19.308.89.89 0 0 1 .051.358v.08a.9.9 0 0 1-.103.351.89.89 0 0 1-.236.28.88.88 0 0 1 .195.307c.043.115.061.237.055.359v.08a.91.91 0 0 1-.097.355c-.057.11-.136.207-.233.285.086.086.153.189.198.302a.88.88 0 0 1 .06.355v.089a.89.89 0 0 1-.098.35.9.9 0 0 1-.231.281c.088.086.158.19.204.305a.89.89 0 0 1 .063.361v.08a.89.89 0 0 1-.093.353c-.055.11-.133.207-.228.286a.88.88 0 0 1 .203.301.87.87 0 0 1 .064.356v.089c-.006.123-.037.243-.092.353a.9.9 0 0 1-.228.286c.087.085.156.188.202.301a.89.89 0 0 1 .065.356v.08a.88.88 0 0 0-.282.648.88.88 0 0 0 .282.648v.089a.88.88 0 0 1-.089.352c-.054.11-.129.208-.223.287a.88.88 0 0 1 .207.3c.048.113.071.235.069.357v.089c-.005.122-.035.242-.088.352a.9.9 0 0 1-.223.287.91.91 0 0 1 .212.299.9.9 0 0 1 .073.359v.08c-.004.124-.034.245-.088.357s-.13.211-.224.291c.092.081.165.181.215.293s.073.233.07.356v.089c-.003.123-.031.244-.083.356s-.127.211-.22.293c.091.082.164.182.215.293a.87.87 0 0 1 .079.355v.089c-.003.123-.031.244-.083.356s-.127.211-.22.293c.091.082.164.182.215.294a.87.87 0 0 1 .079.355v.08a.87.87 0 0 1-.079.355c-.051.112-.124.212-.215.293a.9.9 0 0 1 .217.298c.051.114.077.236.077.359v.08c-.089.083-.16.184-.208.295a.88.88 0 0 0 0 .707c.048.111.119.212.208.295v.089c.003.122-.021.243-.07.355a.84.84 0 0 1-.215.293c.093.081.168.181.22.292s.08.233.083.356v.08c.001.124-.024.246-.073.359a.9.9 0 0 1-.212.299.89.89 0 0 1 .22.292c.052.112.08.233.083.356v.08a.88.88 0 0 1-.073.358.9.9 0 0 1-.212.299.83.83 0 0 1 .228.285c.054.11.083.231.083.355v.053a.89.89 0 0 1-.26.628c-.168.166-.394.26-.631.26l-.08.009z"/></g><path d="M113.97 82.226s3.671-1.377 5.204-4.601c1.381-2.878-5.08.462-5.08.462l-.124 4.139z" fill="#493b32"/><path d="M124.716 68.868c-.597 4.13-4.536 7.425-8.715 6.83s-7.03-4.876-6.433-9.006c.329-1.966 1.419-3.726 3.034-4.902a7.67 7.67 0 0 1 5.607-1.391 7.66 7.66 0 0 1 4.985 2.913 7.61 7.61 0 0 1 1.522 5.556z" fill="#151c28"/><path d="M121.312 69.836c0-3.633-2.816-5.915-6.077-6.386s-5.204 1.43-5.676 4.698l-.606 4.37c-.348 2.442 1.105 7.345 3.466 7.683 2.673.391 7.877-2.549 8.216-4.903a52.24 52.24 0 0 0 .677-5.462z" fill="#57463a"/><path d="M115.369 68.868l2.931.222a1.19 1.19 0 0 1 .637.354c.169.182.277.412.308.658a15.49 15.49 0 0 1-3.68-.284c-.446-.195-.196-.95-.196-.95zm-2.638-.373l-2.878-.613a1.16 1.16 0 0 0-.25 0c-.267 0-.392.888-.187.942.929.276 1.885.452 2.852.524.499-.107.463-.853.463-.853z" fill="#151c28"/><path d="M113.542 74.57c.223 0 .428.417.428.417l-.891-.08c.133-.195.231-.355.463-.338zm-1.23-.293c.214.08.259.515.259.515l-.785-.293s.312-.302.526-.222zm.348-1.306a20.89 20.89 0 0 0 .383-3.464h-.374a20.57 20.57 0 0 1-.375 3.393l.366.071z" fill="#3e312a"/><path d="M117.258 71.817a.89.89 0 0 1-.282.588.9.9 0 0 1-.609.238.9.9 0 0 1-.336-.095.91.91 0 0 1-.274-.216.89.89 0 0 1-.17-.304.88.88 0 0 1-.04-.345.89.89 0 0 1 .311-.607.9.9 0 0 1 .305-.169.88.88 0 0 1 .346-.04c.222.035.423.153.562.329a.89.89 0 0 1 .187.622zm-5.694-.818c-.035.147-.111.281-.22.387a.79.79 0 0 1-.394.208c-.148.03-.302.018-.444-.037s-.264-.148-.354-.27a.78.78 0 0 1 .263-1.163c.134-.071.285-.104.436-.093a.89.89 0 0 1 .713.968z" fill="#151c28"/><path d="M121.802 70.68c.321-.284 1.025-.435 1.631.577s-.383 4.334-2.201 4.077-.294-3.863.57-4.654z" fill="#57463a"/><path d="M122.791 71.594c-.229-.001-.452.075-.632.215s-.31.337-.366.558l-.24 1.652 1.238-2.425z" fill="#3e312a"/><path d="M121.499 75.84a.21.21 0 0 1-.082-.027.2.2 0 0 1-.065-.057c-.018-.023-.031-.05-.037-.078a.21.21 0 0 1-.003-.086l.116-.826c.009-.057.04-.109.086-.144s.106-.05.163-.043c.029.003.058.012.083.027s.047.034.065.057.03.05.037.078a.21.21 0 0 1 .003.087l-.116.826c-.009.057-.04.109-.087.144s-.105.05-.163.042z" fill="#fff"/><path d="M112.651 77.616a2.61 2.61 0 0 1-1.087-.462.18.18 0 0 1-.069-.12c-.006-.047.008-.095.037-.133a.18.18 0 0 1 .121-.068c.048-.006.096.007.133.037a2.37 2.37 0 0 0 1.881.355c.046-.013.095-.007.137.016s.072.062.085.108.008.095-.016.137a.18.18 0 0 1-.108.085 2.4 2.4 0 0 1-1.114.044zm1.372-.888a2.54 2.54 0 0 1-.356-.089 2.19 2.19 0 0 0-.348-.098 10.12 10.12 0 0 1-1.007-.151 1.83 1.83 0 0 0-.347 0 1.84 1.84 0 0 1-.348 0 1.96 1.96 0 0 1-.891-.409c-.024-.035-.036-.077-.033-.12s.021-.083.05-.114.068-.051.11-.057.086.003.122.024a1.88 1.88 0 0 0 .695.311h.268a2.14 2.14 0 0 1 .428 0c.312.067.627.117.944.151.15.016.297.052.437.107a1.96 1.96 0 0 0 .303.08 2.79 2.79 0 0 0 .793-.053l.419-.062c.048-.005.096.009.134.039a.19.19 0 0 1 .071.121.18.18 0 0 1-.039.135c-.03.039-.074.063-.122.07l-.401.062a3.17 3.17 0 0 1-.882.053z" fill="#3e312a"/><path d="M34.61 45.03l.241-7.061 6.835 2.46.241 5.933a1.17 1.17 0 0 0 .121.466c.072.145.174.274.298.378l.508.426.472 2.842-3.386 3.597-4.625-1.226-3.181-4.956 1.052-.568a2.67 2.67 0 0 0 1.025-.953 2.66 2.66 0 0 0 .401-1.339z" fill="#b9a090"/><path d="M15.576 75.414s2.442-15.987 3.671-19.291c.586-1.838 1.863-3.379 3.564-4.299l10.132-4.441c8.349 5.897 9.909.222 9.909.222s6.692 3.597 9.749 6.288a8.37 8.37 0 0 1 2.842 4.53c.579 3.206 2.103 12.283 2.673 16.964l-42.54.027z" fill="#fba823"/><path d="M41.926 46.335s-3.671-1.386-5.204-4.601c-1.381-2.886 5.079.453 5.079.453l.125 4.148z" fill="#a58a7c"/><path d="M32.391 31.094c-.321 4.166 2.798 8.233 7.013 8.562s7.922-3.224 8.243-7.389c.088-1.978-.599-3.913-1.917-5.396s-3.161-2.396-5.142-2.549a7.67 7.67 0 0 0-5.473 1.733c-1.53 1.264-2.506 3.071-2.724 5.039z" fill="#151c28"/><path d="M35.465 32.782c.82-3.553 4.046-5.16 7.334-4.911s4.758 2.531 4.509 5.817l-.374 4.441c-.187 2.451-2.673 6.919-5.052 6.741-2.745-.213-7.129-4.21-6.951-6.581a51.46 51.46 0 0 1 .535-5.507z" fill="#b9a090"/><path d="M41.48 33.128l-2.914-.417a1.16 1.16 0 0 0-.698.199c-.205.139-.36.34-.442.574a14.76 14.76 0 0 0 3.654.524c.481-.133.401-.879.401-.879zm2.655.205h2.941l.241.062c.258.08.196.95 0 .959a12.86 12.86 0 0 1-2.905-.115c-.437-.142-.276-.906-.276-.906z" fill="#151c28"/><path d="M42.015 39.088c-.232 0-.517.32-.517.32l.891.124c-.089-.231-.152-.409-.374-.444zm1.256-.018c-.223 0-.356.444-.356.444l.82-.106s-.232-.364-.463-.338zm-.045-1.341a20.13 20.13 0 0 1 .383-3.473l.365.071c-.222 1.121-.347 2.259-.374 3.402h-.374z" fill="#977c70"/><g fill="#151c28"><path d="M44.777 35.811c0 .524.249.986.704 1.039.227 0 .446-.086.612-.241s.266-.368.279-.594c.071-.524-.223-.133-.677-.187s-.936-.266-.918-.018z"/><path d="M44.323 36.077a5.5 5.5 0 0 1 2.388-.195v-.275a5.71 5.71 0 0 0-2.495.195l.107.275zm-3.636-.506c-.107.515-.401.941-.891.888-.117-.012-.23-.047-.332-.103a.89.89 0 0 1-.429-.529c-.033-.112-.044-.229-.032-.345 0-.524.249-.098.704-.08s1.034-.071.98.169z"/><path d="M41.097 35.873l.116-.258a5.64 5.64 0 0 0-2.424-.577h-.544v.284h.553c.798.012 1.583.2 2.299.551z"/></g><path d="M34.797 33.492c-.249-.346-.891-.64-1.711.213s-.579 4.316 1.256 4.441 1.132-3.695.454-4.654z" fill="#b9a090"/><path d="M33.638 34.176c.223.049.423.171.568.347a1.02 1.02 0 0 1 .234.621c0 .773-.134 1.67-.134 1.67l-.668-2.638z" fill="#977c70"/><path d="M42.113 29.087c.212-.186.467-.317.742-.381s.562-.058.835.017c1.996.755 3.422 7.247 3.422 7.247s2.522-3.553 1.595-7.061c-1.06-4.006-5.177-6.119-8.251-5.391-1.58-.471-3.282-.317-4.751.431s-2.592 2.031-3.135 3.584c-.695 1.652-1.524 4.041-.151 4.823 1.287.892 2.23 2.196 2.673 3.695 0 0 2.121-1.599 4.794-6.741.704-1.386 2.076-1.119 2.228-.222z" fill="#151c28"/><path d="M26.153 75.414c0-.364.267-8.882 0-10.835a20.7 20.7 0 0 0-1.853-4.778c-.838-1.723-1.64-3.215-1.649-3.233l-.249.133c0 .062 3.208 5.959 3.475 7.913s0 10.711 0 10.8h.276zm25.993-.587h.276v-10c.219-2.029.576-4.041 1.069-6.022l-.276-.062c-.494 2.002-.852 4.034-1.069 6.084v10.001z" fill="#ab8433"/><path d="M42.264 42.303a3.02 3.02 0 0 0 1.167-.213c.045-.021.08-.059.096-.106s.014-.098-.007-.143-.059-.079-.106-.096-.098-.014-.143.007c-.304.125-.631.184-.96.174s-.652-.091-.947-.236c-.044-.023-.095-.029-.143-.015s-.088.047-.111.09a.19.19 0 0 0-.015.142c.014.047.047.087.09.111.333.175.702.273 1.078.284zm-1.123-1.252c.122.012.244.012.365 0s.244-.008.365 0c.249 0 .802.071 1.016.071.117 0 .234.015.348.044a1.88 1.88 0 0 0 .339.053 1.94 1.94 0 0 0 .891-.213c.021-.013.039-.029.054-.049s.025-.042.031-.066a.18.18 0 0 0 .003-.073c-.004-.024-.013-.048-.026-.069-.026-.04-.066-.069-.112-.081s-.095-.005-.137.018c-.233.111-.49.166-.748.16l-.259-.044a1.92 1.92 0 0 0-.428-.053c-.319-.007-.637-.031-.953-.071-.148-.017-.297-.017-.446 0a2.15 2.15 0 0 1-.321 0c-.262-.038-.517-.112-.758-.222a4.12 4.12 0 0 0-.401-.151c-.023-.008-.047-.012-.071-.011s-.048.008-.069.019-.041.026-.057.044-.027.04-.034.063-.012.047-.011.071.008.048.019.069a.18.18 0 0 0 .108.091l.374.142a3.02 3.02 0 0 0 .918.258z" fill="#977c70"/><defs ><path id="B" d="M5.061 25.313a1.03 1.03 0 0 1-.174.572c-.114.169-.275.301-.464.379s-.397.098-.597.059-.385-.138-.529-.282a1.03 1.03 0 0 1-.283-.527c-.04-.2-.019-.407.059-.595a1.03 1.03 0 0 1 .381-.462c.17-.113.37-.174.574-.174.274 0 .537.109.731.302a1.03 1.03 0 0 1 .303.729z"/></defs></svg>